/* XPM */
static char *dccf73e10b794e0fc8d12aac23511a68VAtVwBbGBMNWqnG1[] = {
/* columns rows colors chars-per-pixel */
"64 64 176 2 ",
"   c None",
".  c #536B3D",
"X  c #5B6D3E",
"o  c #597637",
"O  c #5A743D",
"+  c #5E7A3E",
"@  c #607B3D",
"#  c #576F40",
"$  c #5A6E43",
"%  c #5D7542",
"&  c #5E7A43",
"*  c #5E7448",
"=  c #617643",
"-  c #627B44",
";  c #6E7D44",
":  c #65774A",
">  c #647C49",
",  c #6A7F4A",
"<  c #668246",
"1  c #6A8345",
"2  c #658148",
"3  c #6A854B",
"4  c #6E8A4E",
"5  c #718D47",
"6  c #71844E",
"7  c #728B4C",
"8  c #798D4B",
"9  c #76924D",
"0  c #7B954C",
"q  c #7E9A4D",
"w  c #6E8A51",
"e  c #718751",
"r  c #758C52",
"t  c #798E56",
"y  c #7B8E5A",
"u  c #769153",
"i  c #7C9453",
"p  c #7F9A51",
"a  c #7D9359",
"s  c #81934E",
"d  c #829E4E",
"f  c #809553",
"g  c #829E51",
"h  c #8B9D54",
"j  c #809359",
"k  c #83995B",
"l  c #909B5C",
"z  c #83A14E",
"x  c #94A14F",
"c  c #83A151",
"v  c #8CA454",
"b  c #8EAC54",
"n  c #8DA35B",
"m  c #8FAB5C",
"M  c #96A453",
"N  c #99A655",
"B  c #9DAA57",
"V  c #96A25B",
"C  c #9AA65B",
"Z  c #95A95A",
"A  c #9DAA5C",
"S  c #9EB15E",
"D  c #A1AE5D",
"F  c #A4B25E",
"G  c #829563",
"H  c #869D60",
"J  c #8A9D62",
"K  c #8B9C60",
"L  c #969F65",
"P  c #939E63",
"I  c #97A161",
"U  c #97A561",
"Y  c #95A464",
"T  c #9AA561",
"R  c #9CA763",
"E  c #9AA463",
"W  c #91A963",
"Q  c #9DA964",
"!  c #9EAA62",
"~  c #9BA46A",
"^  c #9EA868",
"/  c #9AB063",
"(  c #A3AF60",
")  c #A1AD62",
"_  c #A1AE62",
"`  c #A0AA69",
"'  c #A1B161",
"]  c #A3B060",
"[  c #A3B260",
"{  c #A5B263",
"}  c #A6B363",
"|  c #A5B260",
" . c #A7B463",
".. c #A7B563",
"X. c #A7B560",
"o. c #A6B364",
"O. c #A7B464",
"+. c #A7B465",
"@. c #A6B363",
"#. c #A8B563",
"$. c #A9B562",
"%. c #A8B562",
"&. c #A8B366",
"*. c #A8B564",
"=. c #A8B565",
"-. c #A9B664",
";. c #A8B566",
":. c #A9B666",
">. c #AAB767",
",. c #A8B564",
"<. c #ABB864",
"1. c #A5B16B",
"2. c #ACB568",
"3. c #A9B56A",
"4. c #AEB969",
"5. c #AFBD6A",
"6. c #AEBB6B",
"7. c #B0BD6C",
"8. c #A2AE75",
"9. c #A5B271",
"0. c #ACB770",
"q. c #AEB872",
"w. c #B1BC73",
"e. c #B2BA7B",
"r. c #B3C16B",
"t. c #B5C075",
"y. c #BAC279",
"u. c #B6BE82",
"i. c #BAC384",
"p. c #BDC28B",
"a. c #BEC29D",
"s. c #C1C78D",
"d. c #C4CC91",
"f. c #C6CC98",
"g. c #CCCE9A",
"h. c #CBD29A",
"j. c #CACDA6",
"k. c #D1D7A7",
"l. c #D5D7AF",
"z. c #D2D8AC",
"x. c #D7DBB2",
"c. c #DADEB5",
"v. c #ECD8A3",
"b. c #EEDEB3",
"n. c #DFE4B5",
"m. c #DDE1B2",
"M. c #DDE2BC",
"N. c #E3E5BF",
"B. c #E7EABF",
"V. c #EBEEBC",
"C. c #DEE1C1",
"Z. c #E4E6C4",
"A. c #EBECC4",
"S. c #E3E5C9",
"D. c #EAEBCA",
"F. c #F0E7C4",
"G. c #F2ECCC",
"H. c #EEF0C3",
"J. c #EEF1CD",
"K. c #F1F3C1",
"L. c #EFE6D6",
"P. c #ECEDD3",
"I. c #EEEDDB",
"U. c #F0E5D4",
"Y. c #F1EED6",
"T. c #EFF1DA",
"R. c #F2F1D5",
"E. c #F9F6D2",
"W. c #F5F3DE",
"Q. c #EEEDE0",
"!. c #F2EFE1",
"~. c #F6F6E4",
"^. c #F8F6E6",
"/. c #F7F7EA",
"(. c #F8F7EB",
"). c #F7F9E9",
/* pixels */
"                                                                                                                                ",
"                                                                                                                                ",
"                                                                                                                                ",
"          t u                                                                       t i i                                       ",
"        g d c g                                                             a       g c d g K                                   ",
"      g g c c a                                                           i z q     d g g z m     = % X                         ",
"    0 g 0 g p                                                             g z d 0 i d g c g c 7 e e - - - %                     ",
"    p c d g q p d g                                                     i c d c z d c q g c g 5 = - - - - - %                   ",
"    0 c q d g c c c             T ( }  .O.;.;.} D D                     i c g g g q c g q g g 4 O + - O O - & O                 ",
"    i z g c 0 g c g         Q 4.;.;.;.;.} ;.;. .} } ( T                 i c g 0 g 0 g g c z p < + + & O & - - O                 ",
"      i v v c g p         3.;. .O.;.;.} M D ;.;.$. . .;.V                 g q g g q d c z d 9 - & - - O % - - %                 ",
"          K H           q.5.;.} ;.O.;.;.A M } $.$.$.$.;.F                 t g c c c d c c 0 - & - O - - @ 1 8 8 ;               ",
"                        $.4.&.;. .O.O.O.O.A D O.} } O.;.;.I                   0 p g p p 9 > % - O % - 8 Z ] ] ] ( ( V           ",
"                      U ;.2.$.F  .] D D } ;.;.O.} o.o.o.$.(                                 X O & & 8 ]  .$.O.} ;.;.;.^         ",
"                      3.&.d.n.e.;.N M M M ] O.C V L   I R D                                   X O - M  . .B } O.;.A $.;.Q       ",
"                    S.A.p.D./.k.} i.i.o.} O.} F } )                                                 ] ;.O.B B } D N O.;.(       ",
"                    e.A.I.I.).C.k.W.Z.;.} } O.;.;.$.D M                 i i 0 0 t                    .;. .F  .O.D ;.} 4.w.      ",
"                    j.c.P.Q.Y.I.~.T.s.$. .M F  .;.;. .( C           i q c c g g q u               P $.o.D B F ;.O.;.;.7.1.      ",
"                  W.(.).!.L.b.U.Q.M.w.;.N N } $.$.$.;.$.} )         g g q d g z z i                 } ] M B F O.N D ;.;.C       ",
"                    a.l.P.W.Y.I.~.~.Z.;.x D  .O.} } ;.$.;.C       i g g 0 g g g j                   A o.;.;.;.O.) I D }         ",
"                    a.J./.N.c.W.f.n.c.;.D $.$.;.;.}  .;.}         q g g q q 0                         A F ;. .;.Q   V C         ",
"                      M.h.3.d.~.h.&.;.$.;.;.$.;.;.o.O.O.R         d g g q c q i u u                     Q } $.o.T               ",
"                      ~ O. .w.P.h.} $.$.;.$. .;.;.} $.A           g p 0 q g g c g q g                     T A ] V               ",
"                        ) ;.;.w.3.;.F $.$. . .} <.5.A             p z c c q g g c z d                                           ",
"                          F F $.;.;.O.$.$. . .O.r.1.                g z c q d g h c i                                           ",
"                            D F F O.;.;.;.$.$.6.A                     0 g g g d g i                                             ",
"        K n n d g t           Y A ( D D F o.Q                           t u u i G                                               ",
"      n b z z d c q a                                                                                                           ",
"    u c c c c 0 c c q                                                                                                           ",
"    p g 0 d d 0 z z g 0                                                                                                         ",
"  i g g g g c g q q g d                                                           $ = O = % $                                   ",
"  i z g c c p g d q g g                                                         X - - & - - & =                                 ",
"  i z c z q a p c z c p                         i d d i                       $ = > & - - - - - 6                               ",
"  a z g p     g c c d i                       p g g c i     a                 = - > . - - # % - - 6 i h Z v d d g a             ",
"    9 g       g c d i                       i d g c q   y q g f l Q F D D ( C s 1 > % O % $ % 1 p c z z c v c c c z p           ",
"              g c q                         p c d c q i d d v A $.} ( { { D F o.! 8 - - - - 3 g c c c c c c g g z g z g         ",
"                                            g q 0 c d g d C } O.O.} $.O.O.} ;.o.;.] 0 - & < g d c c d z z z c c c c c q i       ",
"                                            g d g q d d Z O.O.;.O.O.;.O.O.} O.O.;. .[ 0 - u d c c c c c c c d c c c c p         ",
"                                            i d c 0 g v } ;.} ;.O.O.D O. .O.;.O.O. .t.1.8 i d c c c c d c c d c c c c i         ",
"                                              i d g d A ;.;.O.;.O.A N O. .;.3.w.;.y.K.h.Z d c c c c c 0 q c c c c c p     u i   ",
"                                                i i v } O.O.;.;.;.N A } o.;.2.V.c.g.E.h.} v z c c c c g q q c c c c g   j d a   ",
"        R                                           A ;.O.;.;.;.;.M ] O.} } $.m.~.Z.G.p.u.9.d c c c c c c d c c c g q g c z a   ",
"      ( }     } C                                   1.;.&.;.;.O.} N } } N A 0.s.P.F.G.R.W.D.W c c c c c c c g c c c g g c g     ",
"    6.;.} ` A  .}                                   A o.O.;.;.$. .} ] M A i.T.^.W.v.b.R.R.z.h c c c c g 0 0 q c g c c g c q     ",
"  ( ;.O.;.A ;.O.o.I                                 D O.O.O.;.} ;.;.D } o.d.W.~.D.Y.Y.W.g.} v c c c 0 0 q g g d 0 g c c g i     ",
"  o.} A } $.D } $.T                                 ) O. .} } ( } ;.O.;.o.;.i.p.M./.x.R.H.w./ c c c c c c c c 0 q d c c p       ",
"  ) } } } F D N } Q                                   V         A O.] C N M B &.J.~.p.f.B.8.n m d z z c c c 0 0 c c c g i       ",
"    } O.O.N  .;. .              p g i i                       I D ;.} }  .F  .o.Z.Z.3.} 1.k i q d c c c c c d g z c d f         ",
"    h ] O.F ;.;.Q             p z c g g u                     D } ;.O.} }  .;.;.6.0. .S h k u 7 i p g c c c c c c d             ",
"  . - s A  .F h                 p c g q g                   D F ;. .} O. . .;. .;.O.A h 7 w w 2 1 9 0 i i a g i i               ",
"  O - & @ 1 1 & $                 g g g c i               Q o.O. .;.;. .} } } ;.;.] h 7 4 w 4 4 4 4 7 3                         ",
"  % - - O - O & O           p i i 0 g q z g                 ( $. .O. .O.O.;.;.} V 0 7 < 4 4 4 4 4 4 4 w                         ",
"  % - O & - & - %           d z g q q g g i                   Q } } } } } ! n 0 4 3 3 - 4 4 4 4 4 4 w 4 %                       ",
"  $ - - - O - 1 7 9         u g d q g g q                               8 7 4 4 - 4 - 3 3 4 4 4 4 4 w 3                         ",
"    O - < & 9 g z z g t       9 g c g p                   T C A V       > 3 4 3 3 4 4 3 + o @ 4 4 4 w -                         ",
"      > , 9 g d c g d c u                                 Q  .F } o.      2 3 - 3 3 - 4 3 1 4 4 w 4 3 %                         ",
"          v g q p g q g c                                 ^ ( B B ;.      > 3 w w -   3 4 w 4 4 4 3 -                           ",
"          c g g g p g 0 d t                           ~ ( ( ] O. .o.        > 4 4     - 4 w w w 3 -                             ",
"          p c d i d c g c                               D  .N ( O.I           > 3     % 3 4 4 < *                               ",
"            q f   q d c g                                 Q ( D E                       : :                                     ",
"                  q g p                                                                                                         ",
"                                                                                                                                ",
"                                                                                                                                ",
"                                                                                                                                "
};
