/* XPM */
static char *_92a16be34724f47b6f6289884e48328OwdZ24vPVzeYiHq9[] = {
/* columns rows colors chars-per-pixel */
"64 64 220 2 ",
"   c None",
".  c #BB7B35",
"X  c #BE5575",
"o  c #BE5C7B",
"O  c #C3536F",
"+  c #C74F75",
"@  c #CC4E76",
"#  c #CE4E78",
"$  c #D44F79",
"%  c #DB4E7D",
"&  c #D14E77",
"*  c #C45274",
"=  c #C8567A",
"-  c #C35A7B",
";  c #CC5B7D",
":  c #C85477",
">  c #DA557D",
",  c #E14C7C",
"<  c #C5686B",
"1  c #C6627F",
"2  c #CC677E",
"3  c #CA7B7B",
"4  c #CA737C",
"5  c #DA7C69",
"6  c #D1911C",
"7  c #D9A219",
"8  c #E8AF0C",
"9  c #E4B00A",
"0  c #E4AD14",
"q  c #E3AD1A",
"w  c #E5B116",
"e  c #E9B216",
"r  c #E6B319",
"t  c #EAB41C",
"y  c #D09922",
"u  c #DB9E2A",
"i  c #D79628",
"p  c #CF8F3F",
"a  c #C89034",
"s  c #DE9D37",
"d  c #D89B3A",
"f  c #D68137",
"g  c #E39E27",
"h  c #DAA221",
"j  c #DCAC2F",
"k  c #D8A626",
"l  c #DBAA34",
"z  c #D8A83B",
"x  c #DAB62B",
"c  c #E4AC24",
"v  c #E2A526",
"b  c #E3B323",
"n  c #EAB322",
"m  c #E8B72D",
"M  c #E1AC3B",
"N  c #E5B333",
"B  c #EAB834",
"V  c #EEC138",
"C  c #F1C63A",
"Z  c #DD9C4A",
"A  c #D59A48",
"S  c #D98C51",
"D  c #DA9B56",
"F  c #D2945C",
"G  c #DC9D5D",
"H  c #CF894F",
"J  c #E0964D",
"K  c #DEA84A",
"L  c #DEA553",
"P  c #DFA759",
"I  c #EABB46",
"U  c #E8B949",
"Y  c #E3A554",
"T  c #E4AD56",
"R  c #E8B956",
"E  c #CD8E6B",
"W  c #D89867",
"Q  c #CE8F7A",
"!  c #D58F75",
"~  c #D89578",
"^  c #DFB061",
"/  c #DEA471",
"(  c #E9AC69",
")  c #E3A569",
"_  c #E3A671",
"`  c #ECAD7B",
"'  c #EFBB7B",
"]  c #EBB875",
"[  c #F2BC78",
"{  c #EDC14F",
"}  c #E7C163",
"|  c #EFCD7E",
" . c #C65D81",
".. c #CE5980",
"X. c #DC5583",
"o. c #D65C84",
"O. c #D85885",
"+. c #E15E89",
"@. c #C46484",
"#. c #CA6584",
"$. c #C46C86",
"%. c #CA6C85",
"&. c #CB6D8B",
"*. c #CB6A89",
"=. c #DB648C",
"-. c #D16788",
";. c #CD7584",
":. c #C5738C",
">. c #CA728C",
",. c #C87A88",
"<. c #D0738F",
"1. c #D57D8B",
"2. c #CC6E90",
"3. c #D06B90",
"4. c #CD7593",
"5. c #C57A92",
"6. c #CE7C95",
"7. c #D27493",
"8. c #D27A95",
"9. c #D2769C",
"0. c #DC7499",
"q. c #D47C9B",
"w. c #DA7D9E",
"e. c #D87996",
"r. c #E4638E",
"t. c #EA6791",
"y. c #E56A96",
"u. c #E7749C",
"i. c #E9729B",
"p. c #E27798",
"a. c #D67EA0",
"s. c #E47CA1",
"d. c #EA7EA3",
"f. c #C68896",
"g. c #D4839D",
"h. c #DB829F",
"j. c #D88B9E",
"k. c #D5889B",
"l. c #D18589",
"z. c #E1988A",
"x. c #E1819F",
"c. c #E9A985",
"v. c #E9B087",
"b. c #EBA49A",
"n. c #F2BA89",
"m. c #D682A1",
"M. c #DC85A4",
"N. c #DC89A4",
"B. c #DF8DA9",
"V. c #D288A4",
"C. c #CB93A1",
"Z. c #DC93AD",
"A. c #D994A7",
"S. c #DF97B3",
"D. c #E285A5",
"F. c #E38AA5",
"G. c #EB86AA",
"H. c #E48BAB",
"J. c #EB8AAD",
"K. c #E086A8",
"L. c #E493AC",
"P. c #E49AAF",
"I. c #E594A8",
"U. c #E68EB2",
"Y. c #F18DB4",
"T. c #E494B3",
"R. c #EA94B2",
"E. c #E69BB4",
"W. c #EB9CB5",
"Q. c #ED9CB9",
"!. c #E49FB9",
"~. c #F096B6",
"^. c #F19AB7",
"/. c #F19BBA",
"(. c #F397B9",
"). c #EAA6A7",
"_. c #F1A9A5",
"`. c #EDB4AD",
"'. c #EFBFA6",
"]. c #F2BCA2",
"[. c #E5A4B5",
"{. c #EBA2B5",
"}. c #E6AAB4",
"|. c #E6A4BB",
" X c #ECA3BD",
".X c #E5ABBC",
"XX c #ECAABD",
"oX c #ECAAB5",
"OX c #F1A3BE",
"+X c #F0ACBD",
"@X c #E4B2BA",
"#X c #EAB1BE",
"$X c #F2C184",
"%X c #F1C2B0",
"&X c #EDA6C2",
"*X c #EDAAC2",
"=X c #E9A9C6",
"-X c #F1A5C1",
";X c #F1ABC6",
":X c #F1AEC9",
">X c #F2A3CB",
",X c #E5B2C0",
"<X c #ECB2C4",
"1X c #ECBBC6",
"2X c #EEB6CA",
"3X c #EEB4CA",
"4X c #EDBBCB",
"5X c #E7BBC5",
"6X c #F0B2C5",
"7X c #F2B1CA",
"8X c #F2B6CE",
"9X c #F2B4CC",
"0X c #F0BACE",
"qX c #EFBED2",
"wX c #F2BBD1",
"eX c #F2B2D0",
"rX c #EAC1CA",
"tX c #F1C5CE",
"yX c #EDCCDA",
"uX c #F2C4D6",
/* pixels */
"                                                                                                                                ",
"                                                                                                                                ",
"                                                                                                                                ",
"                                                                                                                                ",
"                                                                                                                                ",
"                                                                                                                                ",
"                                                                                                                                ",
"                                                                                                                                ",
"                                                                                                                                ",
"                                                                                                                                ",
"                                                                                                                                ",
"                                                                                                                                ",
"                                                                                                                                ",
"                                                                                                                                ",
"                                                                                                                                ",
"                                                                                                                                ",
"                                            5X4X          [.W.                                                                  ",
"                                            <X9X0XrX      Q.(.|.                                                                ",
"                                            *X9X9X9X1X  [.W.K.R..X                                                              ",
"                                            *X9X9X8X1X1XW.R.&.e.W.                    <X<X                                      ",
"                                            *X9X9X9X9X*X^.M.$.*.F. X              C.|.&X3X                                      ",
"                    1XtX                    *X:X9X2XeX-X^.8.$.%.7.W.            f.Z.-X;X3X                                      ",
"                    XX XXX3X3X4X            XX;X9X9X9XQ.R.&.*.*.&.H.|.        f.g./.=X<X1X                                      ",
"                    3XQ.Q.Q.Q. XXX<X        XX-X9X9X7XQ.H.&.*.*.*.w.Q.      f.5.W.-X*X9X1X                [.Z.                  ",
"                    4XXXQ.Q.(./.Q.Q. XXX    *X-X7X9X7X XK.*.*.%.*.2.R.      >.M.-X&X;X9X4X        .X X XQ.s.p.                  ",
"                      3X XQ./.Q.Q././.{.<X0X*X-X;X9X7X XK.*.%.%.&.&.N.{.  :.7.Q.&X*X9X4XrX  *X X/.Q.Q.Q.Y.y.=.                  ",
"                      5X3X XQ.Q.Q.L.g.H.Q.3X<X-X-X9X9X&XK.*.%.;.%.%.l.I.,.&.j.OX-X7X0XqX3X XQ./.Q.Q.Q.^.d.r.-.                  ",
"                      ,X<X2X<X*X:X[.k.:.h.Q.:X-X-X6X9X+XI.;.3 ( E / ) c._ 3 z.oX*X9XwX<X[.Q.Q.Q.Q.Q.Q.J.y.=.                    ",
"                    [.k.E.*X;X:X<X3X4X.X6.g. X;X>X*X9X].c.c.F a L Z G A D _ ` v.'.0X6XQ./././././.~.G.i.r.                      ",
"                    XXN.q.Q.-X&X&X*X*X0X|.:.M.-XOXoX`.$XL Y j y m v g u p I L K | %X X/././././.~.D.i.t.o.                      ",
"                       Xm.g.Q. X-X-X-X&X2XV.&.N._.n./ U N t e 0 b r 8 q c q y { } ' W./.Q./.~.J.s.i.t.;                         ",
"                      XXQ.q.8.R.-X&X*X&X*X|.@.#.~ P d c 0 w r 0 0 0 t q 9 0 b z z [ _./.~.J.d.u.i.r.>                           ",
"                         XQ.q.4.H.OX-X&X&X*Xg.< ! S i 7 e r 0 t 0 0 0 0 e 0 q I T D z.H.s.u.i.i.+.>                             ",
"                        <XOXOXN.4.m./.-X&X-X Xl.G s y c q w w t 0 r r 0 w 0 n b d < j.2X|.M.y.X.O.D.,X@X#X                      ",
"                        k.R.-XOXT.g.m.W.-X-X&X}.Q A u y n w 0 r 0 0 w 0 w t V h s ! Z.4XyX3XH.G.R.~.R.L.F.F.I.L.P.{.            ",
"              5.:.>.*.o X %.W.-X-XOXQ.T. X-X&XXX` R M 6 7 r t t t t t t r q x j s ~ Q. XuXyXwXH.0.=.O.= - #.*.&.<.e.I.@X        ",
"            :.&.*.&.#.* + * #.L.OX&X*X*X;X6X*XOX{.] T Z N q q 0 r r 0 q q q B U L b.^.^.9XyXqX=., % # *  .&.&.&.&.&.>.k.        ",
"          >.&.*.*.*.- * * * * - h.-X9X9XwX9X3X6X#X$XL T l h b q C B 0 B V 0 i ) ] ).W.Q.<XyX=XX., & * - *.&.&.&.&.&.*.&.A.      ",
"        :.&.*.*.*.*.#.* * * * * * -.s.H.T.<XwX3X[.).v.' K N I y k j b k l I H W [ b.W./.<X<X0.% $ + - &.7.e.q.q.4.4.m.E.<X      ",
"      f.8.&.&.&.&.*.*.- * * * * * # % , 0.uX3XQ.e.&.! ( H f h 7 l U T A . A Y z.).Q.Q.R.Z.g.O.X...-.e.w.4.9.a.Q. X*X3X          ",
"        }.P.k.4.&.*.*.#.* * * * * @ $ X.W.wX X/.m.$.*.2 5 J z R K U F 4 < W _ ;.>.9.8.4.A.;XT.R.R.4.4.q.T.&X7X6X1X              ",
"            .XE.F.e.>.&.#.X * + * *  .p.Z.0XQ.Q.R.8.*.%.4 W ^ W F [ ~ #.3.>.;.&.%.%.4.S.9X9X9X9X7X*X3X3X1X4X                    ",
"                XX XE.Z.N.q.&.#.#.%.x.-.$.*XQ./.W.R.M.7.&.>.3 1.k.`.}.-  .#.*.*.*.e.W.7X1X4X9X0X1X1X4X                          ",
"                      <X2X3X3X<X*XP.7.= X Z.*X X X XQ.Q.T.U.P.E.&XwX=X- * * * - #.8.E.2XrX                                      ",
"                                [.6.&.= * >.|.*X3X0XwXwX2X7X<X3X1X*X8.O O * * * - &.B..X                                        ",
"                                8.-.&.#.* * o  .#.4.m.Z.!.|.&X&X X7.X + * * * * - *.q..X                                        ",
"                              6.*.*.&.&.#.* * + * * * - @.&.q.P.Q.w.@.= * * * * 1 *.<.E.                                        ",
"                              5.:.&.*.&.>.%.#.1 1 #.#.*.7.h.[.  XX Xm.&.#.#.1 #.&.*.*.P.                                        ",
"                                  A.k.q.8.7.7.7.7.7.q.N.P.        #X XB.<.*.*.*.*.*.&.L.                                        ",
"                                        Q.E.E.E.W.W.[.                oXP.g.>.&.&.&.*.B.                                        ",
"                                                                          XXE.g.4.>.&.N.                                        ",
"                                                                                                                                ",
"                                                                                                                                ",
"                                                                                                                                ",
"                                                                                                                                ",
"                                                                                                                                ",
"                                                                                                                                ",
"                                                                                                                                ",
"                                                                                                                                ",
"                                                                                                                                ",
"                                                                                                                                ",
"                                                                                                                                ",
"                                                                                                                                ",
"                                                                                                                                "
};
