/* XPM */
static char *eba21a6bb5314161f40e4615a11b9e7c9RH2v5cBmBOQpcKM[] = {
/* columns rows colors chars-per-pixel */
"64 64 234 2 ",
"   c #170D07",
".  c #07190B",
"X  c #18130D",
"o  c #110F10",
"O  c #0A1519",
"+  c #151618",
"@  c #1D1C1B",
"#  c #27180B",
"$  c #34180A",
"%  c #231A12",
"&  c #261D18",
"*  c #07280E",
"=  c #0A2617",
"-  c #17291A",
";  c #083919",
":  c #153D12",
">  c #342E09",
",  c #2B2115",
"<  c #2C231A",
"1  c #362516",
"2  c #0C1523",
"3  c #0B1924",
"4  c #0C192C",
"5  c #171925",
"6  c #141A24",
"7  c #141D2C",
"8  c #0B1C33",
"9  c #0B1E3B",
"0  c #131E34",
"q  c #241F24",
"w  c #0D2422",
"e  c #1E232F",
"r  c #0C3F21",
"t  c #0E2436",
"y  c #0D213D",
"u  c #182335",
"i  c #14233D",
"p  c #282726",
"a  c #342D25",
"s  c #392926",
"d  c #203122",
"f  c #3B3325",
"g  c #3A3527",
"h  c #34342D",
"j  c #272938",
"k  c #352C36",
"l  c #373436",
"z  c #3D3C35",
"x  c #522E0C",
"c  c #472A17",
"v  c #4B3617",
"b  c #563919",
"n  c #6D310A",
"m  c #6B3F0B",
"M  c #68361D",
"N  c #532B27",
"B  c #473729",
"V  c #553724",
"C  c #473B34",
"Z  c #643B22",
"A  c #683D26",
"S  c #713F23",
"D  c #643E39",
"F  c #06441C",
"G  c #04551C",
"H  c #234410",
"J  c #094A25",
"K  c #134626",
"L  c #095828",
"P  c #0C5D33",
"I  c #175332",
"U  c #29473B",
"Y  c #09652F",
"T  c #0C6F31",
"R  c #0B6A39",
"E  c #027D33",
"W  c #09773A",
"Q  c #037E3B",
"!  c #197C3F",
"~  c #237D3B",
"^  c #5C540F",
"/  c #5A4214",
"(  c #6A450D",
")  c #72450D",
"_  c #7D540E",
"`  c #694315",
"'  c #75431D",
"]  c #79431F",
"[  c #775813",
"{  c #40412F",
"}  c #574229",
"|  c #4A4535",
" . c #544436",
".. c #524B3C",
"X. c #684429",
"o. c #734424",
"O. c #794423",
"+. c #774728",
"@. c #634E3D",
"#. c #744D34",
"$. c #735639",
"%. c #0D2343",
"&. c #0D264B",
"*. c #0C284F",
"=. c #122443",
"-. c #192943",
";. c #132A4D",
":. c #0B2952",
">. c #132C53",
",. c #313845",
"<. c #1E2F69",
"1. c #3B337F",
"2. c #3B5547",
"3. c #146A40",
"4. c #087A42",
"5. c #317C42",
"6. c #1E7663",
"7. c #327168",
"8. c #484743",
"9. c #514E47",
"0. c #585547",
"q. c #52514F",
"w. c #5D5C4C",
"e. c #5C5B58",
"r. c #665948",
"t. c #635C4D",
"y. c #7C5E41",
"u. c #635F53",
"i. c #4A774D",
"p. c #53764D",
"a. c #66614F",
"s. c #666455",
"d. c #6C6453",
"f. c #69665A",
"g. c #746955",
"h. c #736B5A",
"j. c #647656",
"k. c #78745B",
"l. c #635A63",
"z. c #4F7270",
"x. c #696765",
"c. c #6B6964",
"v. c #6F7064",
"b. c #7B7464",
"n. c #78766A",
"m. c #767674",
"M. c #8D3E0A",
"N. c #87590B",
"B. c #914D11",
"V. c #A44A0F",
"C. c #A44C18",
"Z. c #A65614",
"A. c #B15511",
"S. c #A07009",
"D. c #B27709",
"F. c #B27A18",
"G. c #924F28",
"H. c #865D3D",
"J. c #C85E0A",
"K. c #E65E10",
"L. c #D3700C",
"P. c #875744",
"I. c #836548",
"U. c #826C51",
"Y. c #857659",
"T. c #997B5B",
"R. c #877A69",
"E. c #837C6B",
"W. c #987368",
"Q. c #A6726D",
"!. c #00802E",
"~. c #008132",
"^. c #03833C",
"/. c #028C3A",
"(. c #078743",
"). c #12894A",
"_. c #08994A",
"`. c #109550",
"'. c #2D874D",
"]. c #728A7A",
"[. c #AA8F29",
"{. c #C88909",
"}. c #DA960B",
"|. c #CB8912",
" X c #D48D12",
".X c #DB9D1A",
"XX c #E0980A",
"oX c #DDA519",
"OX c #FAA807",
"+X c #F9B207",
"@X c #E8AA12",
"#X c #F1AC13",
"$X c #F4B113",
"%X c #D4B827",
"&X c #85826C",
"*X c #8A826E",
"=X c #97866B",
"-X c #93896D",
";X c #878576",
":X c #8D8572",
">X c #8C8B73",
",X c #938674",
"<X c #928974",
"1X c #938C79",
"2X c #3D6E8A",
"3X c #486891",
"4X c #5D57A7",
"5X c #A15DC9",
"6X c #A35CD8",
"7X c #936CCD",
"8X c #B268DC",
"9X c #BC67EB",
"0X c #C46BE4",
"qX c #C66AE8",
"wX c #2F8A82",
"eX c #7FB399",
"rX c #878585",
"tX c #9C9382",
"yX c #958B90",
"uX c #9A9997",
"iX c #A2A199",
"pX c #A7A6A7",
"aX c #ADB1AC",
"sX c #B9B6AE",
"dX c #B5B4B8",
"fX c #CCA6BB",
"gX c #9CC1AF",
"hX c #C9C9C9",
"jX c #D2CFD0",
"kX c #D6D6D4",
"lX c #DAD7D6",
"zX c #DBDADB",
"xX c #E0DFDE",
"cX c #F6F3EB",
/* pixels */
":.:.:.:.:.:.:.:.:.:.:.:.:.:.:.:.:.:.:.:.:.:.:.:.:.:.:.:.:.:.:.:.:.:.:.:.:.:.:.:.:.:.:.:.:.:.:.:.:.:.:.:.:.:.:.:.:.:.:.:.:.:.:.:.",
":.:.:.:.:.:.:.:.:.:.:.:.:.:.:.:.:.:.:.:.:.:.:.:.:.:.:.:.:.:.:.:.:.:.:.:.:.:.:.:.:.:.:.:.:.:.:.:.:.:.:.:.:.:.:.:.:.:.:.:.:.:.:.:.",
":.:.:.:.:.:.:.:.:.:.:.:.:.:.:.:.:.:.:.:.:.:.:.:.:.:.:.:.:.:.:.:.:.:.:.:.:.:.:.:.:.:.:.:.:.:.:.:.:.:.:.:.:.:.:.:.:.:.:.:.:.:.:.:.",
":.:.:.:.:.:.:.:.:.:.:.:.:.:.:.:.:.:.:.:.:.:.:.:.:.:.:.:.:.:.:.:.:.:.:.:.:.:.:.:.:.:.:.:.:.:.:.:.:.:.:.:.:.:.:.:.:.:.:.:.:.:.:.:.",
":.:.:.:.:.:.:.:.:.:.:.:.:.:.:.:.:.:.:.:.:.:.:.:.:.:.:.:.:.:.:.:.:.:.:.:.:.:.:.:.:.:.:.:.:.:.:.:.:.:.:.:.:.:.:.:.:.:.:.:.:.:.:.:.",
":.:.:.:.:.:.:.:.:.:.:.:.:.:.:.:.:.:.:.:.:.:.:.:.:.:.:.:.:.:.:.:.:.:.:.:.:.:.:.:.:.:.:.:.:.:.:.:.:.:.:.:.:.:.:.:.:.:.:.:.:.:.:.:.",
":.:.:.:.:.:.:.:.:.:.:.:.:.:.:.:.:.:.:.:.:.:.:.:.:.:.:.:.:.:.:.:.:.:.:.:.:.:.:.:.:.:.:.:.:.:.:.:.:.:.:.:.:.:.:.:.:.:.:.:.:.:.:.:.",
":.:.:.:.:.:.:.:.:.:.:.:.:.:.:.:.:.:.:.:.:.:.:.:.:.:.:.:.:.:.:.:.:.:.:.:.:.:.:.:.:.:.:.:.:.:.:.:.:.:.:.:.:.:.:.:.:.:.:.:.:.:.:.:.",
":.:.:.:.:.:.:.:.:.:.:.:.:.:.:.:.:.:.:.:.:.:.:.:.:.:.:.:.&.7 y :.:.:.:.:.:.:.:.:.:.:.:.:.:.:.:.:.:.:.:.:.:.:.:.:.:.:.:.:.:.:.:.:.",
":.:.:.:.:.:.:.:.:.:.:.:.:.:.:.:.:.:.:.:.:.:.:.:.:.:.<.&.w I 3 :.:.:.:.:.:.:.:.:.:.:.:.:.:.:.:.:.:.:.:.:.:.:.:.:.:.:.:.:.:.:.:.:.",
":.:.:.:.:.:.:.:.:.:.:.:.:.:.:.:.:.:.:.:.:.:.:.:.>.8X6X1.3.`.t :.:.:.:.:.:.:.:.:.:.:.:.:.:.:.:.:.:.:.:.:.:.:.:.:.:.:.:.:.:.:.:.:.",
":.:.:.:.:.:.:.:.:.:.:.:.:.:.:.:.:.:.:.:.:.&.y 4X6XqXqX5X7X7.+ %.:.:.:.:.:.:.:.:.:.:.:.:.:.:.:.:.:.:.:.:.:.:.:.:.:.:.:.:.:.:.:.:.",
":.:.:.:.:.:.:.:.:.:.:.:.:.:.:.:.:.:.:.&.8 w U qXqXqX9X9X8X3XK y :.:.:.:.:.:.:.:.:.:.:.:.:.:.:.:.:.:.:.:.:.:.:.:.:.:.:.:.:.:.:.:.",
":.:.:.:.:.:.:.:.:.:.:.:.:.:.:.:.:.:.&.3 I ).).7XqX9XfX0X7XwXJ O %.:.:.:.:.:.:.:.:.:.:.:.:.:.:.:.:.:.:.:.:.:.:.:.:.:.:.:.:.:.:.:.",
":.:.:.:.:.:.:.:.:.:.:.:.:.:.:.:.:.*.w I (.~.~.7.0XqX9X6X3X/.).J O &.:.:.:.:.:.:.:.:.:.:.:.:.:.:.:.:.:.:.:.:.:.:.:.:.:.:.:.:.:.:.",
":.:.:.:.:.:.:.:.:.:.:.:.:.:.:.:.:.t r 4.Q E Q z.0X6X0X0X2XE ^._.; 2 :.:.:.:.:.:.:.:.:.:.:.:.:.:.:.:.:.:.:.:.:.:.:.:.:.:.:.:.:.:.",
":.:.:.:.:.:.:.:.:.:.:.:.:.:.:.:.&.O Y 4.^.^.Q (.2X6.z.3X4.~.E _.W . &.:.:.:.:.:.:.:.:.:.:.:.:.:.:.:.:.:.:.:.:.:.:.:.:.:.:.:.:.:.",
":.:.:.:.:.:.:.:.:.:.:.:.:.:.:.:.y = 4.(.W J ; ; Y Q E ~.~.~.~./.`.= %.:.:.:.:.:.:.:.:.:.:.:.:.:.:.:.:.:.:.:.:.:.:.:.:.:.:.:.:.:.",
":.:.:.:.:.:.:.:.:.:.:.:.:.:.*.-.8.U P R r v.uXrXd I Q ~.~.~.~.~._.; y :.:.:.:.:.:.:.:.:.:.:.:.:.:.:.:.:.:.:.:.:.:.:.:.:.:.:.:.:.",
":.:.:.:.:.:.:.:.:.:.:.:.:.*.j uXhXaX2.- uXlXzXkXuX- W ~.!.!.!.E (.F 8 :.:.:.:.:.:.:.:.:.:.:.:.:.:.:.:.:.:.:.:.:.:.:.:.:.:.:.:.:.",
":.:.:.:.:.:.:.:.:.:.:.:.:.=.rXhXzXzXrXc.zXlXzXzXkXq.L !.!.!.E T W J 2 :.:.:.:.:.:.:.:.:.:.:.:.:.:.:.:.:.:.:.:.:.:.:.:.:.:.:.:.:.",
":.:.:.:.:.:.*.t + %.:.:.:.t pXl hXzXm.sXkXuXaXzXkX].F !.!.!.E G * . O *.:.:.:.:.:.:.:.:.:.:.:.:.:.:.:.:.:.:.:.:.:.:.:.:.:.:.:.:.",
":.:.:.:.:.:.5 / [./ =.:.:.i yXyXkXdXh dXaXp m.zXlXm.F !.~.~ 5.! ^.P . 9 :.:.:.:.:.:.:.:.:.:.:.:.:.:.:.:.:.:.:.:.:.:.:.:.:.:.:.:.",
":.:.:.:.:.=.c oX$X@Xb u &.=.q.jXiXC { l.lXaXhXzXjXh L p.Q.Q.Q.Q.R.'.! = &.:.:.:.:.:.:.:.:.:.:.:.:.:.:.:.:.:.:.:.:.:.:.:.:.:.:.:.",
":.:.:.:.:.%.b .XOX+XoXb c } v } v [ %X/ yXxXzXkXm.; i.Q.Q.Q.Q.Q.Q.W._.J 0 :.:.:.:.:.:.:.:.:.:.:.:.:.:.:.:.:.:.:.:.:.:.:.:.:.:.:.",
":.:.:.:.:.:.5 (  X#X+XoXF.#X#X#X#X+X+X}.b c.pXx.o J j.Q.Q.Q.Q.Q.Q.Q._.R 2 :.:.:.:.:.:.:.:.:.:.:.:.:.:.:.:.:.:.:.:.:.:.:.:.:.:.:.",
":.:.:.:.:.:.:.0 c N. X}.#X+XOXOXOXOXOXOX@X[ #   / H p.Q.Q.Q.Q.Q.Q.Q._.P 5 :.:.:.:.:.:.:.:.:.:.:.:.:.:.:.:.:.:.:.:.:.:.:.:.:.:.:.",
":.:.:.:.:.:.:.:.&.0 s / N.S.D.{.{.{.L.D.N.m ) F..X^ T k.Q.Q.Q.Q.Q.i._.K 0 :.:.:.:.:.:.:.:.:.:.:.:.:.:.:.:.:.:.:.:.:.:.:.:.:.:.:.",
":.:.:.:.:.:.:.:.:.:.*.&.i & $ b ` m ) B.F.{.}.}.|.> T !.5.j.j.p.! (.`.= =.:.:.:.:.:.:.:.:.:.:.:.:.:.:.:.:.:.:.:.:.:.:.:.:.:.:.:.",
":.:.:.:.:.:.:.:.:.:.:.:.:.&.7 1 [ F.|.}.XX}. X{.N.: E !.!.!.E Q Q W ; 8 :.:.:.:.:.:.:.:.:.:.:.:.i + 2 %.:.:.:.:.:.:.:.:.:.:.:.:.",
":.:.:.:.:.:.:.:.:.:.:.:.:.:.:.=.5 % x ) _ N._ m # Y Q Q Q W T L J = 8 :.:.:.:.:.:.:.:.:.:.:.:.%.@ e.8.5 &.:.:.:.:.:.:.:.:.:.:.:.",
":.:.:.:.:.:.:.:.:.:.:.:.:.:.:.:.:.&.i 7 5 @ %   . J J F ; * . . 4 &.:.:.:.:.:.:.:.:.:.:.:.>.:.y l ;Xm.z 9 :.:.:.:.:.:.:.:.:.:.:.",
":.:.:.:.:.:.:.:.:.:.:.:.:.:.:.:.:.:.:.:.:.:.:.&.%.y O . r I - 2 :.:.:.:.:.:.:.:.:.:.:.;.5 p p e p m.x.e.O :.:.:.:.:.:.:.:.:.:.:.",
":.:.:.:.:.:.:.:.:.:.:.:.:.:.:.:.:.:.:.:.:.:.:.:.:.:.O K R 4.= t :.:.:.:.:.:.:.:.:.:.:.%.h m.x.8.o z x.e.+ y :.:.:.:.:.:.:.:.:.:.",
":.:.:.:.:.:.:.:.:.:.:.:.:.:.:.:.:.:.:.:.:.:.:.:.:.%.= R 4.3.. @ q 5 9 &.:.:.:.:.:.:.:.&.p e.x.c.8.X 9.8.| | y :.:.:.:.:.:.:.:.:.",
":.:.:.:.:.:.:.:.:.:.:.:.:.:.:.:.:.:.:.:.:.:.:.:.:.8 x.gXeX].- } Z V B p 7 i ;.:.:.:.:.:.&.t j z f.+ 8.z c.f.3 :.:.:.:.:.:.:.:.:.",
":.:.:.:.:.:.:.:.:.:.:.:.:.:.:.:.:.:.:.:.:.:.:.:.:.5 sXcXcXsX1 o.O.+.$.g.t.g @ 7 =.*.:.:.:.:.*.5 z p f.h s.q.8 :.:.:.:.:.:.:.:.:.",
":.:.:.:.:.:.:.:.:.:.:.:.:.:.:.:.:.:.:.:.:.:.:.:.=., #.P.P.#.M O.] O.o.$.r.*Xb.8.@ + 7 4 4 0 ,.0.f.c.w.a s.p &.:.:.:.:.:.:.:.:.:.",
":.:.:.:.:.:.:.:.:.:.:.:.:.:.:.:.:.:.:.:.:.:.:.*.+ V +.+.+.+.+.O.O.+.o.I.g.| *X1X;Xv.0.| 0.n.;X;X;Xn.f.s.8.=.:.:.:.:.:.:.:.:.:.:.",
":.:.:.:.:.:.:.:.:.:.:.:.:.:.:.:.:.:.:.:.:.:.:.&.X X.o.O.O.' O.O.H.T.y.U.-Xs.{ w.E.>X<X>X>X>X>X>X>Xn.w.l =.:.:.:.:.:.:.:.:.:.:.:.",
":.:.:.:.:.:.:.:.:.:.:.:.:.:.:.:.:.:.:.:.:.:.:.9 , X.o.o.M ] +.#.H.=X=X=X<X>Xb.w.g d.1X>X>X>X>X>X:Xh.z %.*.:.:.:.:.:.:.:.:.:.:.:.",
":.:.:.:.:.:.:.:.:.:.:.:.:.:.:.:.:.:.:.:.:.:.:.8 < X.o.M x O.H.T.U.=X<X,X1X<X>XE...C E.>X>X>X>X*XE.0.% N s e i &.&.:.:.:.:.:.:.:.",
":.:.:.:.:.:.:.:.:.:.:.:.:.:.:.:.:.:.:.:.:.:.:.8 1 X.o.Z c o.I.=X-X-X<X<X1X1X:Xh.d.t.f g.&Xt.| a l p x K.J.B.B.' V j :.:.:.:.:.:.",
":.:.:.:.:.:.:.:.:.:.:.:.:.:.:.:.:.:.:.:.:.:.:.8 # X.o.Z $ X.I.-X-X-X-X-X<X<X1XtX:Xg.f 0.| 0.a.w.a 1 A.K.J.C.V.V.A.c &.:.:.:.:.:.",
":.:.:.:.:.:.:.:.:.:.:.:.:.:.:.:.:.:.:.:.:.:.:.y # Z S A $ X.U.-X-X-X-X<X<X<X*Xd.f < C ..g a *X*Xr.$ s k ,.l X.C.V.M.D -.:.:.:.:.",
":.:.:.:.:.:.:.:.:.:.:.:.:.:.:.:.:.:.:.:.:.:.:.&.X V S o.1  .Y.-X-X-X-X<X:Xb.t.t.R.tXtX1X....>X:Xr.+ &.:.:.:.;.C M N G.s *.:.:.:.",
":.:.:.:.:.:.:.:.:.:.:.:.:.:.:.:.:.:.:.:.:.:.:.*.o c Z o.b % g.*X<X-X<X<X:X*X<X,XR.R.g.....:X<Xd., c N j k j *.*.=.*.&.&.:.:.:.:.",
":.:.:.:.:.:.:.:.:.:.:.:.:.:.:.:.:.:.:.:.:.:.:.:.4 1 V A X.# B d.b.E.E.R.E.k.k.d.0.| | d.:Xb.C X o V C.J.K.M.9 :.:.:.:.:.:.:.:.:.",
":.:.:.:.:.:.:.:.:.:.:.:.:.:.:.:.:.:.:.:.:.:.:.:.&.X B b Z b # & ..u.a.t...| f < | h.<X<XE.C a   %.*.u C.K.n &.:.:.:.:.:.:.:.:.:.",
":.:.:.:.:.:.:.:.:.:.:.:.:.:.:.:.:.:.:.:.:.:.:.:.:.4 <  .b b V B < % % < f ..h.:X1X<X:X*XE.t.< 4 :.:.l Z.Z.p :.:.:.:.:.:.:.:.:.:.",
":.:.:.:.:.:.:.:.:.:.:.:.:.:.:.:.:.:.:.:.:.:.:.:.:.&.5 a @.@.r.h.g.g.g.b.E.E.E.E.b.b.h.d...% 5 *.:.;.O.C.B.i :.:.:.:.:.:.:.:.:.:.",
":.:.:.:.:.:.:.:.:.:.:.:.:.:.:.:.:.:.:.:.:.:.:.:.:.:.&.2 & | 0.t.t.t.s.f.s.s.d.s.s.t.9.a + 0 *.:.*.X.C.V.' &.:.:.:.:.:.:.:.:.:.:.",
":.:.:.:.:.:.:.:.:.:.:.:.:.:.:.:.:.:.:.:.:.:.:.:.:.:.:.*.9 2 + + + @ p h h h h h p + 5 8 &.:.:.:.i ' C.A.s :.:.:.:.:.:.:.:.:.:.:.",
":.:.:.:.:.:.:.:.:.:.:.:.:.:.:.:.:.:.:.:.:.:.:.:.:.:.:.:.:.:.&.&.%.%.y 9 8 8 8 9 %.&.:.:.:.:.:.:.;.+.n c =.:.:.:.:.:.:.:.:.:.:.:.",
":.:.:.:.:.:.:.:.:.:.:.:.:.:.:.:.:.:.:.:.:.:.:.:.:.:.:.:.:.:.:.:.:.:.:.:.:.:.:.:.:.:.:.:.:.:.:.:.e G.j :.:.:.:.:.:.:.:.:.:.:.:.:.",
":.:.:.:.:.:.:.:.:.:.:.:.:.:.:.:.:.:.:.:.:.:.:.:.:.:.:.:.:.:.:.:.:.:.:.:.:.:.:.:.:.:.:.:.:.:.:.:.i k *.:.:.:.:.:.:.:.:.:.:.:.:.:.",
":.:.:.:.:.:.:.:.:.:.:.:.:.:.:.:.:.:.:.:.:.:.:.:.:.:.:.:.:.:.:.:.:.:.:.:.:.:.:.:.:.:.:.:.:.:.:.:.:.:.:.:.:.:.:.:.:.:.:.:.:.:.:.:.",
":.:.:.:.:.:.:.:.:.:.:.:.:.:.:.:.:.:.:.:.:.:.:.:.:.:.:.:.:.:.:.:.:.:.:.:.:.:.:.:.:.:.:.:.:.:.:.:.:.:.:.:.:.:.:.:.:.:.:.:.:.:.:.:.",
":.:.:.:.:.:.:.:.:.:.:.:.:.:.:.:.:.:.:.:.:.:.:.:.:.:.:.:.:.:.:.:.:.:.:.:.:.:.:.:.:.:.:.:.:.:.:.:.:.:.:.:.:.:.:.:.:.:.:.:.:.:.:.:.",
":.:.:.:.:.:.:.:.:.:.:.:.:.:.:.:.:.:.:.:.:.:.:.:.:.:.:.:.:.:.:.:.:.:.:.:.:.:.:.:.:.:.:.:.:.:.:.:.:.:.:.:.:.:.:.:.:.:.:.:.:.:.:.:.",
":.:.:.:.:.:.:.:.:.:.:.:.:.:.:.:.:.:.:.:.:.:.:.:.:.:.:.:.:.:.:.:.:.:.:.:.:.:.:.:.:.:.:.:.:.:.:.:.:.:.:.:.:.:.:.:.:.:.:.:.:.:.:.:.",
":.:.:.:.:.:.:.:.:.:.:.:.:.:.:.:.:.:.:.:.:.:.:.:.:.:.:.:.:.:.:.:.:.:.:.:.:.:.:.:.:.:.:.:.:.:.:.:.:.:.:.:.:.:.:.:.:.:.:.:.:.:.:.:.",
":.:.:.:.:.:.:.:.:.:.:.:.:.:.:.:.:.:.:.:.:.:.:.:.:.:.:.:.:.:.:.:.:.:.:.:.:.:.:.:.:.:.:.:.:.:.:.:.:.:.:.:.:.:.:.:.:.:.:.:.:.:.:.:.",
":.:.:.:.:.:.:.:.:.:.:.:.:.:.:.:.:.:.:.:.:.:.:.:.:.:.:.:.:.:.:.:.:.:.:.:.:.:.:.:.:.:.:.:.:.:.:.:.:.:.:.:.:.:.:.:.:.:.:.:.:.:.:.:."
};
