/* XPM */
static char *f39bbe16b5ac4e46954b1a9dcb6982fdeKtATLBqMHxHkg99[] = {
/* columns rows colors chars-per-pixel */
"64 64 232 2 ",
"   c None",
".  c #0B0606",
"X  c #0C0A06",
"o  c #0B0A08",
"O  c #130B05",
"+  c #130C0B",
"@  c #1C0E0A",
"#  c #1D0B02",
"$  c #081207",
"%  c #0B130B",
"&  c #061C0B",
"*  c #09180A",
"=  c #15130E",
"-  c #1A130C",
";  c #17160A",
":  c #151412",
">  c #1A1A15",
",  c #0C1E13",
"<  c #24140C",
"1  c #241B0C",
"2  c #291609",
"3  c #381A0A",
"4  c #221B13",
"5  c #201A1A",
"6  c #291A15",
"7  c #200F0E",
"8  c #08260E",
"9  c #0B2916",
"0  c #162818",
"q  c #083918",
"w  c #153D12",
"e  c #2C231A",
"r  c #262219",
"t  c #352414",
"y  c #342E09",
"u  c #0C3F21",
"i  c #2B2623",
"p  c #2C2A22",
"a  c #292727",
"s  c #352D24",
"d  c #322D28",
"f  c #3B3325",
"g  c #35352C",
"h  c #3B3429",
"j  c #393627",
"k  c #343331",
"l  c #3D3C33",
"z  c #3B3735",
"x  c #203122",
"c  c #581C0F",
"v  c #4A270A",
"b  c #552B0E",
"n  c #5C3D0D",
"m  c #472714",
"M  c #562713",
"N  c #4B3616",
"B  c #55351E",
"V  c #563A19",
"C  c #672809",
"Z  c #6C3F0B",
"A  c #68371B",
"S  c #7A371A",
"D  c #753405",
"F  c #473729",
"G  c #553724",
"H  c #453D32",
"J  c #413B39",
"K  c #643B22",
"L  c #693D26",
"P  c #713F23",
"I  c #6C2D25",
"U  c #06441C",
"Y  c #04551C",
"T  c #234410",
"R  c #084924",
"E  c #124626",
"W  c #0A5728",
"Q  c #0C5D33",
"!  c #145330",
"~  c #284E3A",
"^  c #09652F",
"/  c #06752D",
"(  c #0B6D3D",
")  c #0A6834",
"_  c #16673C",
"`  c #017E32",
"'  c #047D3B",
"]  c #0A7A3B",
"[  c #087636",
"{  c #19773F",
"}  c #5A4213",
"|  c #5C4C0F",
" . c #67430B",
".. c #73450D",
"X. c #7E540E",
"o. c #77431A",
"O. c #775813",
"+. c #624110",
"@. c #58432B",
"#. c #4B4331",
"$. c #494638",
"%. c #524B3C",
"&. c #544436",
"*. c #40412F",
"=. c #684528",
"-. c #734424",
";. c #794423",
":. c #764228",
">. c #774A27",
",. c #644E3D",
"<. c #744D34",
"1. c #735639",
"2. c #3B5547",
"3. c #087541",
"4. c #146F40",
"5. c #4C4941",
"6. c #494744",
"7. c #5A5549",
"8. c #5D5C4B",
"9. c #575547",
"0. c #5B5B57",
"q. c #534F49",
"w. c #635C4D",
"e. c #665948",
"r. c #625F54",
"t. c #7C5E41",
"y. c #66614F",
"u. c #666355",
"i. c #6B6454",
"p. c #65645B",
"a. c #6C6658",
"s. c #6B6A5A",
"d. c #726955",
"f. c #736B5A",
"g. c #766A55",
"h. c #76735B",
"j. c #635A63",
"k. c #656662",
"l. c #6B6964",
"z. c #6A6767",
"x. c #7B7464",
"c. c #7D7A67",
"v. c #75746C",
"b. c #767674",
"n. c #6F7064",
"m. c #903E08",
"M. c #88590B",
"N. c #84491F",
"B. c #925218",
"V. c #944B0B",
"C. c #A54A0E",
"Z. c #A44B17",
"A. c #AA5612",
"S. c #B95714",
"D. c #A7520A",
"F. c #B27709",
"G. c #B27A17",
"H. c #A17009",
"J. c #865D3D",
"K. c #934E2B",
"L. c #C95E0A",
"P. c #C65F11",
"I. c #E25B08",
"U. c #C77F05",
"Y. c #E66413",
"T. c #875744",
"R. c #836548",
"E. c #826C51",
"W. c #857659",
"Q. c #997B5B",
"!. c #837C6B",
"~. c #867C6A",
"^. c #00802E",
"/. c #008132",
"(. c #02823B",
"). c #038D3B",
"_. c #01923B",
"`. c #048142",
"'. c #0A8943",
"]. c #118648",
"[. c #0A9649",
"{. c #0A9D4D",
"}. c #059845",
"|. c #0D9A51",
" X c #119151",
".X c #728A7A",
"XX c #AC9029",
"oX c #C88909",
"OX c #DA960B",
"+X c #CC8A12",
"@X c #D48E12",
"#X c #D69B1C",
"$X c #E19C10",
"%X c #DEA618",
"&X c #FBAD05",
"*X c #FAA508",
"=X c #FAB207",
"-X c #EAA711",
";X c #F2AC13",
":X c #EAB014",
">X c #F9B313",
",X c #D4B827",
"<X c #8A826E",
"1X c #85826C",
"2X c #93896D",
"3X c #97866B",
"4X c #8D8573",
"5X c #8C8B73",
"6X c #878577",
"7X c #928974",
"8X c #938C79",
"9X c #938674",
"0X c #7FB399",
"qX c #878685",
"wX c #9C9382",
"eX c #9B9997",
"rX c #958B90",
"tX c #A2A199",
"yX c #A7A7A7",
"uX c #ADB1AC",
"iX c #BAB7AE",
"pX c #B5B4B8",
"aX c #9CC1AF",
"sX c #CAC9C9",
"dX c gray78",
"fX c #D5D5D3",
"gX c #DBDAD6",
"hX c #DCDADB",
"jX c #D9D6D6",
"kX c #D2CFD0",
"lX c #E0DFDE",
"zX c #F6F3EB",
/* pixels */
"                                                                                                                                ",
"                                                                                                                                ",
"                                                                                                                                ",
"                                                                                                                                ",
"                                                                                                                                ",
"                                                                                                                                ",
"                                                                                                                                ",
"                                                                                                                                ",
"                                                        =                                                                       ",
"                                                      , ~ $                                                                     ",
"                                                      4. X                                                                      ",
"                                            6 4 O > 9 |.] ;                                                                     ",
"                                        9 E _ 4.].].] [./ E                                                                     ",
"                                    % ! ].'.).)._._.}.}.{.R *                                                                   ",
"                                  , ! '././././.^.^././.). XR o                                                                 ",
"                                  u `.' ` ' (././././././.(.[.q +                                                               ",
"                                * ) `.(.(.' `.(./././././.` }.] $                                                               ",
"                                9 3.`.] R q q ^ ' ` /./././.).{.9                                                               ",
"                              6.~ Q 4.E n.eXqXx ! ] /././././.[.q                                                               ",
"                          d eXsXuX2.0 eXgXhXfXeX0 [ /.^.^.^.` '.U                                                               ",
"                          qXdXhXhXqXz.gXjXhXhXfXq.W ^.^.^.` / ] R .                                                             ",
"              -           yXz sXhXb.iXfXeXuXhXfX.XU /.^.^.` Y 8 & .                                                             ",
"          7 } XX}         eXrXfXpXk pXuXa b.hXjXv.U /.^.^.` /.(.Q $                                                             ",
"          m %X>X:Xn       q.fXtXJ N j.jXyXsXhXkXg W /.^.^.` ` ` '.{ &                                                           ",
"          n $X*X&X%Xn m } N @.N O.,X} rXlXhXfXb.q / /.^.^./.` /.^.{.W                                                           ",
"          <  .@X*X&X%XG.;X;X;X;X=X=XOXV z.yXz.% R [ ^.^.^./.` /./.}.) .                                                         ",
"              v M.@XOX;X=X&X*X*X*X*X&X-XO.2 # } T / ` ^.^.` /././.{.Q O                                                         ",
"                  3 +.M.H.F.oXoXoXU.F.M.Z ..G.#X| / ^.^.^./.` /./.{.E                                                           ",
"                        2 3 V +.Z ..V.G.+XOXOX+Xy / ^.^.^./././.'. X,                                                           ",
"                          < t O.G.+XOX$XOXOXoXM.w [ ^.^.^.` (.' ] q                             : +                             ",
"                              < 2 v ..X.M.X.n 1 ^ ' ' ' [ ) W R 8                             > 0.6.:                           ",
"                                      @ 1 1 O & R R U q 8 & $ :                               k 6Xv.z                           ",
"                                                  $ & u ! 0 o                         5 a i i i v.k.0.o                         ",
"                                                  $ E ( 3.9                           k v.z.6.= l k.0.=                         ",
"                                                  9 _ 3.4.& 1 6 <                     a r.k.l.5.: q.5.$.$.                      ",
"                                                  k.aX0X.X0 G L G F e 4                   r l p.: 5.l l.p.+                     ",
"                                                > iXzXzXiXt -.;.>.1.g.w.h 4 5               ; l p p.g r.q.                      ",
"                                                t <.T.T.<.A ;.o.;.-.1.e.<Xx.5.> = i     > l 9.s.s.w.s p.i                       ",
"                                              @ G =.>.>.>.;.;.;.>.=.R.g.#.<X8X6Xn.7.$.7.v.6X5X6Xc.a.u.6.                        ",
"                                              - =.-.;.;.o.;.;.J.Q.t.E.2Xu.*.8.!.5X7X5X5X5X5X5X5Xc.8.l                           ",
"                                              e =.-.-.A o.>.<.J.3X3X3X7X5Xc.8.h i.8X5X5X5X5X5X5Xf.H                             ",
"                                              e =.-.A M ;.J.Q.E.3X7X9X7X7X5X!.%.H !.5X5X5X5X<X!.7.1 M m                         ",
"                                              t =.-.K m -.R.3X2X2X7X7X7X8X4Xf.a.w.f d.1Xw.$.e h i b Y.L.C.B...A                 ",
"                                              6 =.:.K 3 =.R.3X2X2X2X2X7X7X8XwX4Xd.f 9.$.7.y.8.d t S.I.P.Z.V.D.A.v               ",
"                                              1 K P L 3 =.E.2X2X2X2X7X7X7X4Xi.h e H %.j s <X<Xe.3 c       N.Z.C.m.N.            ",
"                                              - B P :.t #.W.2X2X2X2X7X4Xx.w.w.~.wXwX7X%.%.4X4Xe.7           S S C Z.b           ",
"                                              X m K :.B 1 d.<X7X2X7X7X9X<X7X9X~.!.d.&.%.4X7Xi.r M I                             ",
"                                                t G L =.2 F i.x.!.!.!.!.h.h.i.9.#.#.i.4Xx.H - O A Z.L.I.m.                      ",
"                                                @ F B K B 2 6 %.w.y.w.%.#.f e #.f.7X7X!.H s O       A.Y.C                       ",
"                                                  e &.B B G f e 4 4 e f %.f.4X8X7X4X<X!.w.e +       A.A.3                       ",
"                                                  + s ,.,.e.f.f.d.d.x.!.!.!.!.c.x.f.a.%.4 +       N.Z.B.                        ",
"                                                    X 4 $.7.w.w.w.i.s.u.u.i.i.i.w.5.s ;         ;.Z.C.o.                        ",
"                                                        o + = : > r g g g g d r : -             o.Z.S.v                         ",
"                                                                                                >.D b                           ",
"                                                                                              4 K.                              ",
"                                                                                                M                               ",
"                                                                                                                                ",
"                                                                                                                                ",
"                                                                                                                                ",
"                                                                                                                                ",
"                                                                                                                                ",
"                                                                                                                                ",
"                                                                                                                                ",
"                                                                                                                                "
};
