/* XPM */
static char *_92046b3b28745fca813b1f8a3ad2950rNdwmzUPIgQcgIfB[] = {
/* columns rows colors chars-per-pixel */
"64 64 241 2 ",
"   c None",
".  c #100A01",
"X  c #0A1E0C",
"o  c #19160D",
"O  c #15140E",
"+  c #26180B",
"@  c #371A09",
"#  c #271E14",
"$  c #3F1D1B",
"%  c #142819",
"&  c #0B3B1B",
"*  c #13321B",
"=  c #07320C",
"-  c #252706",
";  c #2C241B",
":  c #2B261A",
">  c #362917",
",  c #39301F",
"<  c #1C3724",
"1  c #163021",
"2  c #2A2824",
"3  c #352D26",
"4  c #35352D",
"5  c #3B352C",
"6  c #3A3524",
"7  c #3B3A32",
"8  c #383835",
"9  c #2B3527",
"0  c #47220D",
"q  c #583519",
"w  c #4D320A",
"e  c #683A19",
"r  c #773C18",
"t  c #65360C",
"y  c #473628",
"u  c #573824",
"i  c #463C34",
"p  c #563B30",
"a  c #693C24",
"s  c #723D2B",
"d  c #05461A",
"f  c #134E1E",
"g  c #005815",
"h  c #204814",
"j  c #094923",
"k  c #154528",
"l  c #095627",
"z  c #195936",
"x  c #065D33",
"c  c #374537",
"v  c #334A34",
"b  c #0C722C",
"n  c #017D2C",
"m  c #047826",
"M  c #0D6A37",
"N  c #027D33",
"B  c #097C33",
"V  c #017B3C",
"C  c #0C7E3D",
"Z  c #166E39",
"A  c #357225",
"S  c #55500F",
"D  c #7B480A",
"F  c #785404",
"G  c #6B4515",
"H  c #79461A",
"J  c #6F5215",
"K  c #4A412C",
"L  c #4A4334",
"P  c #43433D",
"I  c #494539",
"U  c #534B3B",
"Y  c #574736",
"T  c #514026",
"R  c #6B4A2A",
"E  c #684426",
"W  c #764422",
"Q  c #78482A",
"!  c #765629",
"~  c #635339",
"^  c #765539",
"/  c #6E4B39",
"(  c #7A633C",
")  c #4A7736",
"_  c #3E3341",
"`  c #3C5047",
"'  c #167844",
"]  c #117544",
"[  c #327645",
"{  c #4D4D4A",
"}  c #4A4945",
"|  c #4A5849",
" . c #575243",
".. c #59564A",
"X. c #5B5955",
"o. c #52524A",
"O. c #625B4C",
"+. c #645444",
"@. c #785A45",
"#. c #645D51",
"$. c #675B57",
"%. c #596255",
"&. c #69654F",
"*. c #78654C",
"=. c #666154",
"-. c #6B6454",
";. c #64635C",
":. c #6C6A5C",
">. c #6C6658",
",. c #746D5D",
"<. c #766A55",
"1. c #73725B",
"2. c #5F5D60",
"3. c #6A6965",
"4. c #676D67",
"5. c #716866",
"6. c #747263",
"7. c #73736D",
"8. c #7D7767",
"9. c #787773",
"0. c #687678",
"q. c #803D22",
"w. c #97470A",
"e. c #8A5A18",
"r. c #8F4E16",
"t. c #A65519",
"y. c #AE4F10",
"u. c #81631B",
"i. c #9B7301",
"p. c #AD740D",
"a. c #965924",
"s. c #8B5837",
"d. c #834A28",
"f. c #B45824",
"g. c #CC5A0D",
"h. c #D86206",
"j. c #E76513",
"k. c #E75A08",
"l. c #8A5446",
"z. c #A35A54",
"x. c #886949",
"c. c #8F7254",
"v. c #AC7251",
"b. c #846D69",
"n. c #847B65",
"m. c #837C6B",
"M. c #857969",
"N. c #9B7869",
"B. c #877977",
"V. c #99726A",
"C. c #B17B61",
"Z. c #D85D7A",
"A. c #E15B7C",
"S. c #CF7078",
"D. c #E0727F",
"F. c #01822D",
"G. c #008025",
"H. c #018334",
"J. c #028A34",
"K. c #06873B",
"L. c #00933B",
"P. c #108338",
"I. c #63953E",
"U. c #72A033",
"Y. c #068943",
"T. c #099749",
"R. c #13944B",
"E. c #128D4F",
"W. c #0AA653",
"Q. c #69AA42",
"!. c #B78A02",
"~. c #AE8209",
"^. c #848922",
"/. c #AE9331",
"(. c #B9AB38",
"). c #D28B06",
"_. c #D8960B",
"`. c #CE8F11",
"'. c #EC9C00",
"]. c #D4A418",
"[. c #FAA808",
"{. c #FBB408",
"}. c #F9B315",
"|. c #E8A809",
" X c #CD8D24",
".X c #D4B131",
"XX c #E9A52A",
"oX c #92C13F",
"OX c #8A8856",
"+X c #91984C",
"@X c #BB9E42",
"#X c #9FB852",
"$X c #86836E",
"%X c #8B846E",
"&X c #8D886B",
"*X c #94856C",
"=X c #938B6D",
"-X c #9B8669",
";X c #8C8573",
":X c #8D8A74",
">X c #878578",
",X c #948773",
"<X c #928B74",
"1X c #948C79",
"2X c #968C77",
"3X c #95907C",
"4X c #BAB26C",
"5X c #B39269",
"6X c #CF8C7C",
"7X c #847F81",
"8X c #D87285",
"9X c #E36F82",
"0X c #898A86",
"qX c #989287",
"wX c #999897",
"eX c #918E8D",
"rX c #A49896",
"tX c #B0938D",
"yX c #94A296",
"uX c #A5A29A",
"iX c #B4A28E",
"pX c #9A9CA8",
"aX c #A9ADA8",
"sX c #B2A9A9",
"dX c #B7B7B2",
"fX c #DC899B",
"gX c #DC858B",
"hX c #E48C98",
"jX c #D19EA5",
"kX c #E89BA8",
"lX c #D0AFB1",
"zX c #E9A9B6",
"xX c #B2D39E",
"cX c #CDCED3",
"vX c #DBDBDC",
"bX c #D9D6D6",
"nX c #D2CDCD",
"mX c #E9DDDF",
"MX c #DBE1DA",
"NX c #F6F1DE",
"BX c #E8E7EB",
/* pixels */
"                                                                                                                                ",
"                                                                                                                                ",
"                                                                                                                                ",
"                                                                                                                                ",
"                                                                                                                                ",
"                                                                                                                                ",
"                                                                                                                                ",
"                                                                                                                                ",
"                                                          9.                                                                    ",
"                                                        ` z 5.                                                                  ",
"                                                        ] E.yX                                                                  ",
"                                              B.4.o.%.| E.] 7                                                                   ",
"                                        eXv j Z ' ' Y.C T.M k                                                                   ",
"                                      | z ' R.K.L.L.L.L.T.R.l v                                                                 ",
"                                    %.z Y.Y.H.N F.J.N n H.L.R.l c                                                               ",
"                                  0Xk ] V N N N H.m J.H.F.N K.R.1 4.                                                            ",
"                                  v M Y.V K.Y.V V H.H.N n H.n R.] %                                                             ",
"                                  < ] V Z j j & M C N n n H.n L.T.&                                                             ",
"                              wX5.v x M k 7.eX0X* l P.N N H.n H.R.&                                                             ",
"                            7XwXnXaX` * yXbXmXbXrX* M H.H.H.H.m Y.d 0X                                                          ",
"                            0XnXbXvX7X5.bXbXvXbXbX| l N H.n n b ' k 9.                                                          ",
"                #.        eXaX4 cXbX7.dXvXwXuXMXbX9.d H.n H.N g = X o.                                                          ",
"            b.G /.J       wXeXeXbXdX4 sXsX2 9.vXvX7.d H.F.H.H.B K.z X                                                           ",
"            q ].{..X!       X.cXuXc i $.bXsXnXvXnX9 l H.n B H.n F.Y.' <                                                         ",
"            G ].[.[.XXG ~ ( w Y w ! .XS wXMXvXnX0.= B V H.F.H.N H.n T.j                                                         ",
"            b.J `.[.{.].p.XX}.|.|.}.{._.q 5.pX0.. f b H.F.m H.H.H.H.T.M 4.                                                      ",
"                E e.`.|.}.{.[.[.[.[.'.[.|.F @ . e h b G.F.B n F.F.F.T.l B.                                                      ",
"                    c.! e.i.!.!.).).).p.F e D ~. XS B n K.N N C m P.W.d                                                         ",
"                          #.@ q t G G e.@X(.(.].`.w b J.n N J.n H.J.R.<                                                         ",
"                            m.T u.p. X).'._.`./.^.) Z m I.x.OX1.[ V & eX                          P {                           ",
"                                8.y q D e.u.F e - A Q.U.+XS.9XD.8X#.wX                          2 X.{ }                         ",
"                                        $.Y y o % j f +XoX#X6XhXhXkX                            8 0X7.8                         ",
"                                                    v v.5X4X4XzXkXzX                    { 4 P 3.2 7.3.X.o.                      ",
"                                                    I C.A.D.kXzXkXlX                    8 7.3.} . 7 ;.X.2                       ",
"                                                    9 OXZ.9XfXkXkXjXsX                  } ;.3.3.{ O o.I } {                     ",
"                                                  wX4.xXtX8XfXgXz.l.p i ;.                eXX.P %.o P 7 6.3.9.                  ",
"                                                  ` dXNXNXlXy l.q.Q ^ <.>.5 7 7.              X.7 : ;.4 X.o.wX                  ",
"                                                  , ^ ^ l./ t r H r ! ^ ~ ;X8.I ; 7 9.0XwX9.9.;.:.:.%.3 ;.{                     ",
"                                                $.q R Q q.Q E d.W W R *.*.U $X3X>X6. .U ..6.>X>X:X6.>.;.$.                      ",
"                                                + s Y H G D W Q l.N.@.*.,XO.L ..m.:X3X>X:X:X$X:X:X8.X.>X                        ",
"                                                : R r E e H Q ^ ( -X-X*X,X<Xm...i #.:X1X<X&X:X&X;X,.|                           ",
"                                                ; E W a 0 W s.N.c.-X*X,X2X<X:X$XL L 8.<X:X:X1X;Xm...> @.@.qX                    ",
"                                                > R r a 0 E x.-X*X*X*X,X,X1X<X-.>.O.6 -.;X&.L : i 2 w j.g.w.a.e.c.              ",
"                                                + a W s @ E x.=X*X2X<X2X2X,X1XqX;X>.6  .L ..=.=.2 0 f.k.g.t.w.r.t.R             ",
"                                                + u W a @ ~ <.=X=X&X=X=X%X1X;X$.5 # i  .6 6 $X$X$.$ N.    iXv.t.w.w.6X          ",
"                                                ; u e a 0 K n.=X=X&X&X2X1X8.#.O.B.qXqX;XU U :X:X . .          tXl.v.C.N.        ",
"                                                i y e Q u # >.*X:X<X<X:X%X;X<X<Xm.M.,.U U ;X<X-.- q V.rX                        ",
"                                                0X> q a E + 6 *.8.m.m.n.n.n.<.&.~ K K -.<X8.i + _ c.f.h.h.r.                    ",
"                                                  3 y u a q + + U #.>.O.U L 6 : K 1.;X;XM.L 3 #       f.j.r.                    ",
"                                                  0X3 p u u y y ; + + # , U ,.;X3X%X;X;X8.#.; 9.      f.t.n.                    ",
"                                                    ..3 Y +.+.-.,.-.>.8.n.8.8.m.n.6.,.,. .# 9.      s.t.a.                      ",
"                                                      ;.; L O.#.#.#.=.:.:.:.>.-.=.=.U 5 5         c.t.y.a.                      ",
"                                                          X.3 2 2 3 4 4 4 7 7 4 5 3 X.wX          H y.y.N.                      ",
"                                                                                                  u.r Q                         ",
"                                                                                                eXs.                            ",
"                                                                                                  tX                            ",
"                                                                                                                                ",
"                                                                                                                                ",
"                                                                                                                                ",
"                                                                                                                                ",
"                                                                                                                                ",
"                                                                                                                                ",
"                                                                                                                                ",
"                                                                                                                                "
};
