/* XPM */
static char *left_flower1709510409[] = {
/* columns rows colors chars-per-pixel */
"64 64 234 2 ",
"   c #170D07",
".  c #08170B",
"X  c #18130D",
"o  c #110F10",
"O  c #0A151B",
"+  c #151618",
"@  c #1D1C1B",
"#  c #27180B",
"$  c #34180A",
"%  c #231A12",
"&  c #261D18",
"*  c #082E0F",
"=  c #0A2617",
"-  c #1A2A17",
";  c #093A1A",
":  c #3D240C",
">  c #2B2115",
",  c #2C231A",
"<  c #362516",
"1  c #0C1523",
"2  c #0B1924",
"3  c #0C192D",
"4  c #171925",
"5  c #141B25",
"6  c #151D2D",
"7  c #0B1C33",
"8  c #0B1E3A",
"9  c #131E34",
"0  c #241F24",
"q  c #0D2622",
"w  c #163128",
"e  c #0E2436",
"r  c #0D213C",
"t  c #182335",
"y  c #14233D",
"u  c #262622",
"i  c #292827",
"p  c #342D25",
"a  c #392926",
"s  c #233423",
"d  c #3B3325",
"f  c #3A3527",
"g  c #34342D",
"h  c #272938",
"j  c #352C36",
"k  c #373436",
"l  c #3D3C35",
"z  c #522E0C",
"x  c #472A17",
"c  c #4B3617",
"v  c #563919",
"b  c #6D350A",
"n  c #68361D",
"m  c #532B27",
"M  c #473729",
"N  c #553724",
"B  c #473B34",
"V  c #643B22",
"C  c #683D26",
"Z  c #713F23",
"A  c #643E39",
"S  c #06451C",
"D  c #04551C",
"F  c #0A4D27",
"G  c #144527",
"H  c #0A5727",
"J  c #15502E",
"K  c #0C5D33",
"L  c #1A5435",
"P  c #2E4A28",
"I  c #06722D",
"U  c #0C683A",
"Y  c #106638",
"T  c #017E32",
"R  c #087638",
"E  c #037D3A",
"W  c #0A7A3C",
"Q  c #5A4214",
"!  c #59511F",
"~  c #73460D",
"^  c #7D540E",
"/  c #6B4916",
"(  c #75431D",
")  c #79431F",
"_  c #775915",
"`  c #40412F",
"'  c #574229",
"]  c #4A4535",
"[  c #544436",
"{  c #524B3C",
"}  c #684429",
"|  c #734424",
" . c #794423",
".. c #774728",
"X. c #634E3D",
"o. c #744D34",
"O. c #735639",
"+. c #766D2E",
"@. c #0D2343",
"#. c #0D264B",
"$. c #0C284F",
"%. c #122443",
"&. c #192943",
"*. c #132A4D",
"=. c #0B2952",
"-. c #142E51",
";. c #313845",
":. c #3B5547",
">. c #146A40",
",. c #097A42",
"<. c #167843",
"1. c #484743",
"2. c #534E47",
"3. c #585547",
"4. c #52514F",
"5. c #5D5C4C",
"6. c #5C5B58",
"7. c #665948",
"8. c #635C4D",
"9. c #7C5E41",
"0. c #635F53",
"q. c #596C4D",
"w. c #66614F",
"e. c #666455",
"r. c #6C6453",
"t. c #69665A",
"y. c #746955",
"u. c #736B5A",
"i. c #677755",
"p. c #767459",
"a. c #635A63",
"s. c #5F6762",
"d. c #696765",
"f. c #6B6964",
"g. c #6F7064",
"h. c #7B7464",
"j. c #78766A",
"k. c #767674",
"l. c #8D3E0A",
"z. c #875C0C",
"x. c #914D11",
"c. c #A44A0F",
"v. c #A44C18",
"b. c #A65614",
"n. c #B15511",
"m. c #B27709",
"M. c #A77610",
"N. c #B17C19",
"B. c #924F28",
"V. c #865D3D",
"C. c #C85E0A",
"Z. c #D25F0B",
"A. c #E2570C",
"S. c #D3700C",
"D. c #E96514",
"F. c #875744",
"G. c #836548",
"H. c #826C51",
"J. c #997B5B",
"K. c #B3715C",
"L. c #837C6B",
"P. c #867C6A",
"I. c #D25D6E",
"U. c #D95A71",
"Y. c #D36D73",
"T. c #00802E",
"R. c #008132",
"E. c #02823B",
"W. c #038D3B",
"Q. c #01923B",
"!. c #088742",
"~. c #12894A",
"^. c #089948",
"/. c #0D9951",
"(. c #119051",
"). c #2F884D",
"_. c #478140",
"`. c #728A7A",
"'. c #B38C1F",
"]. c #948C34",
"[. c #99A93E",
"{. c #B4A42F",
"}. c #C88B08",
"|. c #D9960C",
" X c #D48D12",
".X c #D39314",
"XX c #E0980A",
"oX c #DDA519",
"OX c #FAA807",
"+X c #F9B207",
"@X c #E8AA12",
"#X c #F1AC13",
"$X c #F4B113",
"%X c #D4B827",
"&X c #AA9046",
"*X c #9ABB4D",
"=X c #A2B153",
"-X c #85826C",
";X c #8A826E",
":X c #97866B",
">X c #93896D",
",X c #878576",
"<X c #8D8572",
"1X c #8C8B73",
"2X c #938674",
"3X c #928974",
"4X c #938C79",
"5X c #CD927C",
"6X c #D67585",
"7X c #E07386",
"8X c #7FB399",
"9X c #878585",
"0X c #9C9382",
"qX c #958B90",
"wX c #9A9997",
"eX c #A7A6A7",
"rX c #ADB1AC",
"tX c #B9B6AE",
"yX c #B5B4B8",
"uX c #DA8694",
"iX c #C69898",
"pX c #E58D9B",
"aX c #D2A893",
"sX c #DC98A1",
"dX c #E69BA8",
"fX c #E5A4B0",
"gX c #9CC1AF",
"hX c #C9C9C9",
"jX c #D2CFD0",
"kX c #D6D6D4",
"lX c #DAD7D6",
"zX c #DBDADB",
"xX c #E0DFDE",
"cX c #F6F3EB",
/* pixels */
"=.=.=.=.=.=.=.=.=.=.=.=.=.=.=.=.=.=.=.=.=.=.=.=.=.=.=.=.=.=.=.=.=.=.=.=.=.=.=.=.=.=.=.=.=.=.=.=.=.=.=.=.=.=.=.=.=.=.=.=.=.=.=.=.",
"=.=.=.=.=.=.=.=.=.=.=.=.=.=.=.=.=.=.=.=.=.=.=.=.=.=.=.=.=.=.=.=.=.=.=.=.=.=.=.=.=.=.=.=.=.=.=.=.=.=.=.=.=.=.=.=.=.=.=.=.=.=.=.=.",
"=.=.=.=.=.=.=.=.=.=.=.=.=.=.=.=.=.=.=.=.=.=.=.=.=.=.=.=.=.=.=.=.=.=.=.=.=.=.=.=.=.=.=.=.=.=.=.=.=.=.=.=.=.=.=.=.=.=.=.=.=.=.=.=.",
"=.=.=.=.=.=.=.=.=.=.=.=.=.=.=.=.=.=.=.=.=.=.=.=.=.=.=.=.=.=.=.=.=.=.=.=.=.=.=.=.=.=.=.=.=.=.=.=.=.=.=.=.=.=.=.=.=.=.=.=.=.=.=.=.",
"=.=.=.=.=.=.=.=.=.=.=.=.=.=.=.=.=.=.=.=.=.=.=.=.=.=.=.=.=.=.=.=.=.=.=.=.=.=.=.=.=.=.=.=.=.=.=.=.=.=.=.=.=.=.=.=.=.=.=.=.=.=.=.=.",
"=.=.=.=.=.=.=.=.=.=.=.=.=.=.=.=.=.=.=.=.=.=.=.=.=.=.=.=.=.=.=.=.=.=.=.=.=.=.=.=.=.=.=.=.=.=.=.=.=.=.=.=.=.=.=.=.=.=.=.=.=.=.=.=.",
"=.=.=.=.=.=.=.=.=.=.=.=.=.=.=.=.=.=.=.=.=.=.=.=.=.=.=.=.=.=.=.=.=.=.=.=.=.=.=.=.=.=.=.=.=.=.=.=.=.=.=.=.=.=.=.=.=.=.=.=.=.=.=.=.",
"=.=.=.=.=.=.=.=.=.=.=.=.=.=.=.=.=.=.=.=.=.=.=.=.=.=.=.=.=.=.=.=.=.=.=.=.=.=.=.=.=.=.=.=.=.=.=.=.=.=.=.=.=.=.=.=.=.=.=.=.=.=.=.=.",
"=.=.=.=.=.=.=.=.=.=.=.=.=.=.=.=.=.=.=.=.=.=.=.=.=.=.=.=.#.6 e =.=.=.=.=.=.=.=.=.=.=.=.=.=.=.=.=.=.=.=.=.=.=.=.=.=.=.=.=.=.=.=.=.",
"=.=.=.=.=.=.=.=.=.=.=.=.=.=.=.=.=.=.=.=.=.=.=.=.=.=.=.=.q L q =.=.=.=.=.=.=.=.=.=.=.=.=.=.=.=.=.=.=.=.=.=.=.=.=.=.=.=.=.=.=.=.=.",
"=.=.=.=.=.=.=.=.=.=.=.=.=.=.=.=.=.=.=.=.=.=.=.=.=.=.=.8 Y (.e =.=.=.=.=.=.=.=.=.=.=.=.=.=.=.=.=.=.=.=.=.=.=.=.=.=.=.=.=.=.=.=.=.",
"=.=.=.=.=.=.=.=.=.=.=.=.=.=.=.=.=.=.=.=.=.$.r 6 4 O q q (.W + @.=.=.=.=.=.=.=.=.=.=.=.=.=.=.=.=.=.=.=.=.=.=.=.=.=.=.=.=.=.=.=.=.",
"=.=.=.=.=.=.=.=.=.=.=.=.=.=.=.=.=.=.=.$.9 q G Y <.~.,.W ^.I G e =.=.=.=.=.=.=.=.=.=.=.=.=.=.=.=.=.=.=.=.=.=.=.=.=.=.=.=.=.=.=.=.",
"=.=.=.=.=.=.=.=.=.=.=.=.=.=.=.=.=.=.#.O J ~.~.W.W.Q.Q.Q.^.^.H O #.=.=.=.=.=.=.=.=.=.=.=.=.=.=.=.=.=.=.=.=.=.=.=.=.=.=.=.=.=.=.=.",
"=.=.=.=.=.=.=.=.=.=.=.=.=.=.=.=.=.$.q K ~.T R.R.R.T.R.R.T.Q.~.F O #.$.=.=.=.=.=.=.=.=.=.=.=.=.=.=.=.=.=.=.=.=.=.=.=.=.=.=.=.=.=.",
"=.=.=.=.=.=.=.=.=.=.=.=.=.=.=.=.=.e w ,.T E E.E.R.R.R.R.T.T W.^.; O =.=.=.=.=.=.=.=.=.=.=.=.=.=.=.=.=.=.=.=.=.=.=.=.=.=.=.=.=.=.",
"=.=.=.=.=.=.=.=.=.=.=.=.=.=.=.=.#.O K ,.E.E ,.!.E T T R.R.R.T ^.W . #.=.=.=.=.=.=.=.=.=.=.=.=.=.=.=.=.=.=.=.=.=.=.=.=.=.=.=.=.=.",
"=.=.=.=.=.=.=.=.=.=.=.=.=.=.=.-.r = ,.!.,.F ; ; I E.E R.R.R.T.W./.= r =.=.=.=.=.=.=.=.=.=.=.=.=.=.=.=.=.=.=.=.=.=.=.=.=.=.=.=.=.",
"=.=.=.=.=.=.=.=.=.=.=.=.=.=.$.&.4.;.U U G g.wX,Xs J R R.T.R.R.R.^.; y =.=.=.=.=.=.=.=.=.=.=.=.=.=.=.=.=.=.=.=.=.=.=.=.=.=.=.=.=.",
"=.=.=.=.=.=.=.=.=.=.=.=.=.#.&.wXhXrX:.; wXkXzXkXwX- R T.T.T.T.T !.S 7 =.=.=.=.=.=.=.=.=.=.=.=.=.=.=.=.=.=.=.=.=.=.=.=.=.=.=.=.=.",
"=.=.=.=.=.=.=.=.$.=.=.=.=.y 8XhXzXzX9Xf.zXzXzXzXjX2.H T T.T T I E F 2 =.=.=.=.=.=.=.=.=.=.=.=.=.=.=.=.=.=.=.=.=.=.=.=.=.=.=.=.=.",
"=.=.=.=.=.=.=.y 1 @.=.=.=.9 wXk hXlXk.rXlXwXrXlXlX`.S T.T.T T D * . O $.=.=.=.=.=.=.=.=.=.=.=.=.=.=.=.=.=.=.=.=.=.=.=.=.=.=.=.=.",
"=.=.=.=.=.=.4 v '.' y $.=.8 qXqXkXyXg yXrXu k.xXlXj.S T.T.T.T R.E.K . 8 $.=.=.=.=.=.=.=.=.=.=.=.=.=.=.=.=.=.=.=.=.=.=.=.=.=.=.=.",
"=.=.=.=.=.@.x oX#X@Xn y #.y 4.jXeXl c a.lXrXhXzXjXg H T.T.T.T T R.!.<.. #.=.=.=.=.=.=.=.=.=.=.=.=.=.=.=.=.=.=.=.=.=.=.=.=.=.=.=.",
"=.=.=.=.=.@.v oXOXOXoXv d Q c N x _ %XQ qXxXzXkXk.; I T T.T.T.T R.R.^.H e =.=.=.=.=.=.=.=.=.=.=.=.=.=.=.=.=.=.=.=.=.=.=.=.=.=.=.",
"=.=.=.=.=.*.4 ~  XOX+XoXm.#X#X#X$X+X+XoXz f.eXf.. H W T T.T T.T R.R.^.U 1 =.=.=.=.=.=.=.=.=.=.=.=.=.=.=.=.=.=.=.=.=.=.=.=.=.=.=.",
"=.=.=.=.=.=.=.9 x z..X|.@X+XOXOXOXOXOXOXXX^ #   z P _.p.p.i.W R.R.R.^.K 4 =.=.=.=.=.=.=.=.=.=.=.=.=.=.=.=.=.=.=.=.=.=.=.=.=.=.=.",
"=.=.=.=.=.=.=.=.#.t < Q ^ M.'.}.}.}.S.m.z.b ~ '.oX&XU.Y.7XpXiX).R.R./.G 9 =.=.=.=.=.=.=.=.=.=.=.=.=.=.=.=.=.=.=.=.=.=.=.=.=.=.=.",
"=.=.=.=.=.=.=.=.=.=.$.#.t & $ Q / +.+.].&X{.{.{.{.[.=X5XpXpXsX).E.!.(.= %.=.=.=.=.=.=.=.=.=.=.=.=.$.=.=.=.=.=.=.=.=.=.=.=.=.=.=.",
"=.=.=.=.=.=.=.=.=.=.=.=.=.#.6 < _ N.}..XXX|. X}.].*X*X=XaXdXdXiX,.R ; 7 =.=.=.=.=.=.=.=.=.=.=.=.%.1 1 #.=.=.=.=.=.=.=.=.=.=.=.=.",
"=.=.=.=.=.=.=.=.=.=.=.=.=.=.=.%.4 % z ~ ^ z.^ v ! K.Y.uXdXfXdXpXL = 7 =.=.=.=.=.=.=.=.=.=.=.=.%.4 6.1.+ =.=.=.=.=.=.=.=.=.=.=.=.",
"=.=.=.=.=.=.=.=.=.=.=.=.=.=.=.=.=.#.r 3 4 @ & o - K.U.Y.pXfX6X7.3 @.=.=.=.=.=.=.=.=.=.=.=.-.=.%.k ,Xk.k 8 =.=.=.=.=.=.=.=.=.=.=.",
"=.=.=.=.=.=.=.=.=.=.=.=.=.=.=.=.=.=.=.=.=.$.=.#.@.q.K.I.6XuX2.1 =.=.=.=.=.=.=.=.=.=.=.$.4 p 0 t , k.d.4.O =.=.=.=.=.=.=.=.=.=.=.",
"=.=.=.=.=.=.=.=.=.=.=.=.=.=.=.=.=.=.=.=.=.=.=.=.=.-.s J >.,.= 7 =.=.=.=.=.=.=.=.=.=.=.@.g k.d.1.. l f.6.+ @.=.=.=.=.=.=.=.=.=.=.",
"=.=.=.=.=.=.=.=.=.=.=.=.=.=.=.=.=.=.=.=.=.=.=.=.=.#.= U ,.>.. - u 4 8 #.=.$.=.=.=.=.=.$.h 6.d.d.1.X 2.1.1.l 8 =.=.=.=.=.=.=.=.=.",
"=.=.=.=.=.=.=.=.=.=.=.=.=.=.=.=.=.=.=.=.=.=.=.=.$.7 s.gX8X`.> N V N M i 6 y *.=.$.=.=.$.@.9 h l u.X 1.P d.t.2 $.=.=.=.=.=.=.=.=.",
"=.=.=.=.=.=.=.=.=.=.=.=.=.=.=.=.=.=.=.=.=.=.=.=.=.4 tXcXcXtX< ..| ..O.p.7.d & 9 %.$.=.#.$.=.$.= B i t.g 0.4.7 =.=.=.=.=.=.=.=.=.",
"=.=.=.=.=.=.=.=.=.=.=.=.=.=.=.=.=.=.=.=.=.=.=.=.%., o.F.F.o.n  . . ...O.7.<Xh.1.@ + t 3 3 6 ;.3.t.f.0.s e.h #.$.=.=.=.=.=.=.=.=.",
"=.=.=.=.=.=.=.=.=.=.=.=.=.=.=.=.=.=.=.=.=.=.$.$.4 N .... ... . . . .| 9.y.B ;X4XL.u.3.] 3.j.1X1X,Xh.r.e.1.@.=.=.=.=.=.=.=.=.=.=.",
"=.=.=.=.=.=.=.=.=.=.=.=.=.=.=.=.=.=.=.=.=.=.=.#.X ' |  . . . . .F.J.9.H.>Xr.P 5.`.1X4X1X1X1X1X1X1X`.5.k #.$.=.=.=.=.=.=.=.=.=.=.",
"=.=.=.=.=.=.=.=.=.=.=.=.=.=.=.=.=.=.=.=.=.=.=.8 , } } | n ( ..o.V.:X:X:X:X3Xh.5.d e.4X1X1X1X1X1X;Xp.B %.$.-.$.=.=.=.=.=.=.=.=.=.",
"=.=.=.=.=.=.=.=.=.=.=.=.=.=.=.=.=.=.=.=.=.=.=.7 < } | n z | V.J.H.:X3X:X4X3X4XL.{ B L.1X1X1X1X-X`.3.& m a 6 %.#.$.=.=.=.=.=.=.=.",
"=.=.=.=.=.=.=.=.=.=.=.=.=.=.=.=.=.=.=.=.=.=.=.7 < } | V : | G.:X:X>X3X3X4X4X2Xu.u.8.d y.-X5.] p M u z D.C.x.x.( N h #.=.=.=.=.=.",
"=.=.=.=.=.=.=.=.=.=.=.=.=.=.=.=.=.=.=.=.=.=.=.7 # C ..C $ | G.:X>X:X3X:X3X4X4X4X1Xr.f 3.] 3.w.5.a : n.A.C.c.c.c.b.x #.=.=.=.=.=.",
"=.=.=.=.=.=.=.=.=.=.=.=.=.=.=.=.=.=.=.=.=.=.=.@.% V Z Z $ } H.>X>X>X>X>X3X3X<Xr.d , B { f f -X;X7.$ a j ;.j Z v.c.l.A &.=.=.=.=.",
"=.=.=.=.=.=.=.=.=.=.=.=.=.=.=.=.=.=.=.=.=.=.=.@.X N Z Z : ' -X>X>X>X>X1X3Xh.8.7.L.0X0X3X{ { 3X;X7.+ #.=.$.$.-.B n x B.a $.=.=.=.",
"=.=.=.=.=.=.=.=.=.=.=.=.=.=.=.=.=.=.=.=.=.=.=.$.o < V Z c > y.;X3X>X3X3X<X;X3X<XL.L.y.[ ] <X3Xr.% m m j h h =.#.#.=.$.#.=.=.=.=.",
"=.=.=.=.=.=.=.=.=.=.=.=.=.=.=.=.=.=.=.=.=.=.=.=.4 < N V } # x r.h.-X-X-XL.p.p.y.3.] B y.3Xp.B X o A v.Z.A.l.8 =.=.=.=.=.=.=.=.=.",
"=.=.=.=.=.=.=.=.=.=.=.=.=.=.=.=.=.=.=.=.=.=.=.=.=.X M v V N   & { 8.w.8.{ ] d , ] u.3X3XL.B a   8 =.9 v.A.b #.=.=.=.=.=.=.=.=.=.",
"=.=.=.=.=.=.=.=.=.=.=.=.=.=.=.=.=.=.=.=.=.=.=.=.=.3 , A v n N M < % % > d { y.<X4X3X<X-XL.8.& 3 =.=.;.b.b.i =.=.=.=.=.=.=.=.=.=.",
"=.=.=.=.=.=.=.=.=.=.=.=.=.=.=.=.=.=.=.=.=.=.=.=.=.$.1 p 3.X.7.u.u.r.y.h.L.L.-XL.j.h.u.u.{ % 3 #.$.&.Z v.x.y =.=.=.=.=.=.=.=.=.=.",
"=.=.=.=.=.=.=.=.=.=.=.=.=.=.=.=.=.=.=.=.=.=.=.=.=.=.#.1 & B 3.5.8.e.e.t.e.e.t.e.e.8.2.p @ 7 =.=.$.A v.n.Z #.=.=.=.=.=.=.=.=.=.=.",
"=.=.=.=.=.=.=.=.=.=.=.=.=.=.=.=.=.=.=.=.=.=.=.=.=.=.=.#.8 1 O o + + , g g g g i u + @ 7 #.=.=.=.y Z v.n.m =.=.=.=.=.=.=.=.=.=.=.",
"=.=.=.=.=.=.=.=.=.=.=.=.=.=.=.=.=.=.=.=.=.=.=.=.=.=.=.=.=.=.$.@.#.#.@.e 7 7 7 8 @.#.=.=.=.=.=.=.@.B.b x %.=.=.=.=.=.=.=.=.=.=.=.",
"=.=.=.=.=.=.=.=.=.=.=.=.=.=.=.=.=.=.=.=.=.=.=.=.=.=.=.=.=.=.=.=.=.=.=.=.=.=.=.=.=.=.=.=.=.=.=.=.t B.;.$.=.=.=.=.=.=.=.=.=.=.=.=.",
"=.=.=.=.=.=.=.=.=.=.=.=.=.=.=.=.=.=.=.=.=.=.=.=.=.=.=.=.=.=.=.=.=.=.=.=.=.=.=.=.=.=.=.=.=.=.=.=.y g #.=.=.=.=.=.=.=.=.=.=.=.=.=.",
"=.=.=.=.=.=.=.=.=.=.=.=.=.=.=.=.=.=.=.=.=.=.=.=.=.=.=.=.=.=.=.=.=.=.=.=.=.=.=.=.=.=.=.=.=.=.=.=.=.=.=.=.=.=.=.=.=.=.=.=.=.=.=.=.",
"=.=.=.=.=.=.=.=.=.=.=.=.=.=.=.=.=.=.=.=.=.=.=.=.=.=.=.=.=.=.=.=.=.=.=.=.=.=.=.=.=.=.=.=.=.=.=.=.=.=.=.=.=.=.=.=.=.=.=.=.=.=.=.=.",
"=.=.=.=.=.=.=.=.=.=.=.=.=.=.=.=.=.=.=.=.=.=.=.=.=.=.=.=.=.=.=.=.=.=.=.=.=.=.=.=.=.=.=.=.=.=.=.=.=.=.=.=.=.=.=.=.=.=.=.=.=.=.=.=.",
"=.=.=.=.=.=.=.=.=.=.=.=.=.=.=.=.=.=.=.=.=.=.=.=.=.=.=.=.=.=.=.=.=.=.=.=.=.=.=.=.=.=.=.=.=.=.=.=.=.=.=.=.=.=.=.=.=.=.=.=.=.=.=.=.",
"=.=.=.=.=.=.=.=.=.=.=.=.=.=.=.=.=.=.=.=.=.=.=.=.=.=.=.=.=.=.=.=.=.=.=.=.=.=.=.=.=.=.=.=.=.=.=.=.=.=.=.=.=.=.=.=.=.=.=.=.=.=.=.=.",
"=.=.=.=.=.=.=.=.=.=.=.=.=.=.=.=.=.=.=.=.=.=.=.=.=.=.=.=.=.=.=.=.=.=.=.=.=.=.=.=.=.=.=.=.=.=.=.=.=.=.=.=.=.=.=.=.=.=.=.=.=.=.=.=.",
"=.=.=.=.=.=.=.=.=.=.=.=.=.=.=.=.=.=.=.=.=.=.=.=.=.=.=.=.=.=.=.=.=.=.=.=.=.=.=.=.=.=.=.=.=.=.=.=.=.=.=.=.=.=.=.=.=.=.=.=.=.=.=.=.",
"=.=.=.=.=.=.=.=.=.=.=.=.=.=.=.=.=.=.=.=.=.=.=.=.=.=.=.=.=.=.=.=.=.=.=.=.=.=.=.=.=.=.=.=.=.=.=.=.=.=.=.=.=.=.=.=.=.=.=.=.=.=.=.=."
};
