/* XPM */
static char *left1709510408[] = {
/* columns rows colors chars-per-pixel */
"64 64 229 2 ",
"   c #170D07",
".  c #09160B",
"X  c #051D0A",
"o  c #18130D",
"O  c #110F10",
"+  c #0B1415",
"@  c #0A171D",
"#  c #141615",
"$  c #181716",
"%  c #13151D",
"&  c #1D1C1B",
"*  c #27180B",
"=  c #34180A",
"-  c #231A12",
";  c #261D18",
":  c #07280E",
">  c #0A2617",
",  c #17291A",
"<  c #083919",
"1  c #342E09",
"2  c #2B2115",
"3  c #2C231A",
"4  c #362516",
"5  c #0C1523",
"6  c #0B1924",
"7  c #0C192C",
"8  c #171925",
"9  c #141B25",
"0  c #151D2D",
"q  c #0B1C33",
"w  c #0B1E3A",
"e  c #131E34",
"r  c #241F24",
"t  c #0D2622",
"y  c #1E232F",
"u  c #0C3F21",
"i  c #0E2436",
"p  c #0D213C",
"a  c #182335",
"s  c #14233D",
"d  c #262622",
"f  c #292827",
"g  c #342D25",
"h  c #392926",
"j  c #203122",
"k  c #3B3325",
"l  c #3A3527",
"z  c #34342D",
"x  c #272938",
"c  c #352C36",
"v  c #383433",
"b  c #3D3C35",
"n  c #34353B",
"m  c #522E0C",
"M  c #472A17",
"N  c #4B3617",
"B  c #573B16",
"V  c #55351E",
"C  c #6D310A",
"Z  c #6B3F0B",
"A  c #68361D",
"S  c #532B27",
"D  c #473729",
"F  c #553724",
"G  c #473B34",
"H  c #643B22",
"J  c #683D26",
"K  c #713F23",
"L  c #643E39",
"P  c #06441C",
"I  c #04551C",
"U  c #234410",
"Y  c #094A25",
"T  c #124627",
"R  c #095828",
"E  c #15502E",
"W  c #0C5D33",
"Q  c #195637",
"!  c #30463B",
"~  c #09652F",
"^  c #06752D",
"/  c #0B6A39",
"(  c #16673D",
")  c #087636",
"_  c #017E32",
"`  c #037E3B",
"'  c #0A7A3C",
"]  c #18773F",
"[  c #5C540F",
"{  c #5A4214",
"}  c #6A450D",
"|  c #72450D",
" . c #7D540E",
".. c #694315",
"X. c #75431D",
"o. c #79431F",
"O. c #775813",
"+. c #40412F",
"@. c #574229",
"#. c #4B4331",
"$. c #4B4935",
"%. c #47443C",
"&. c #524B3C",
"*. c #6B4527",
"=. c #63432C",
"-. c #734424",
";. c #794423",
":. c #774A27",
">. c #764228",
",. c #744D34",
"<. c #735639",
"1. c #0D2343",
"2. c #0D264B",
"3. c #0C284F",
"4. c #122443",
"5. c #192943",
"6. c #132A4D",
"7. c #0B2952",
"8. c #142C50",
"9. c #313845",
"0. c #3B5547",
"q. c #146A40",
"w. c #077942",
"e. c #127C42",
"r. c #484743",
"t. c #514E47",
"y. c #585547",
"u. c #52514F",
"i. c #5D5C4C",
"p. c #5C5B58",
"a. c #665948",
"s. c #635C4D",
"d. c #7C5E41",
"f. c #635F53",
"g. c #66614F",
"h. c #666455",
"j. c #6C6453",
"k. c #64645B",
"l. c #6C6658",
"z. c #6B6A5A",
"x. c #746955",
"c. c #736B5A",
"v. c #76735B",
"b. c #635A63",
"n. c #696765",
"m. c #6B6964",
"M. c #6F7064",
"N. c #7B7464",
"B. c #78766A",
"V. c #767674",
"C. c #8D3E0A",
"Z. c #87590B",
"A. c #914D11",
"S. c #A44A0F",
"D. c #A44C18",
"F. c #A65614",
"G. c #B75715",
"H. c #A07009",
"J. c #B27709",
"K. c #B27A18",
"L. c #924F28",
"P. c #865D3D",
"I. c #C85E0A",
"U. c #E2570C",
"Y. c #D3700C",
"T. c #E96514",
"R. c #875744",
"E. c #836548",
"W. c #826C51",
"Q. c #857659",
"!. c #997B5B",
"~. c #837C6B",
"^. c #867C6A",
"/. c #00802E",
"(. c #008132",
"). c #02823B",
"_. c #038D3B",
"`. c #01923B",
"'. c #088742",
"]. c #12894A",
"[. c #059845",
"{. c #0A9649",
"}. c #0A9D4D",
"|. c #0D9951",
" X c #119051",
".X c #728A7A",
"XX c #AA8F29",
"oX c #C88909",
"OX c #DA960B",
"+X c #CB8912",
"@X c #D48D12",
"#X c #DB9D1A",
"$X c #E0980A",
"%X c #DDA519",
"&X c #FBAC05",
"*X c #FAA508",
"=X c #F9B207",
"-X c #E8AA12",
";X c #F1AC13",
":X c #F4B113",
">X c #D4B827",
",X c #85826C",
"<X c #8A826E",
"1X c #97866B",
"2X c #93896D",
"3X c #878576",
"4X c #8D8572",
"5X c #8C8B73",
"6X c #938674",
"7X c #928974",
"8X c #938C79",
"9X c #7FB399",
"0X c #878585",
"qX c #9C9382",
"wX c #958B90",
"eX c #9A9997",
"rX c #A2A199",
"tX c #A7A6A7",
"yX c #ADB1AC",
"uX c #B9B6AE",
"iX c #B5B4B8",
"pX c #9CC1AF",
"aX c #C9C9C9",
"sX c #D2CFD0",
"dX c #D6D6D4",
"fX c #D9D6D6",
"gX c #DBDAD6",
"hX c #DBDADB",
"jX c #F6F3EB",
/* pixels */
"7.7.7.7.7.7.7.7.7.7.7.7.7.7.7.7.7.7.7.7.7.7.7.7.7.7.7.7.7.7.7.7.7.7.7.7.7.7.7.7.7.7.7.7.7.7.7.7.7.7.7.7.7.7.7.7.7.7.7.7.7.7.7.7.",
"7.7.7.7.7.7.7.7.7.7.7.7.7.7.7.7.7.7.7.7.7.7.7.7.7.7.7.7.7.7.7.7.7.7.7.7.7.7.7.7.7.7.7.7.7.7.7.7.7.7.7.7.7.7.7.7.7.7.7.7.7.7.7.7.",
"7.7.7.7.7.7.7.7.7.7.7.7.7.7.7.7.7.7.7.7.7.7.7.7.7.7.7.7.7.7.7.7.7.7.7.7.7.7.7.7.7.7.7.7.7.7.7.7.7.7.7.7.7.7.7.7.7.7.7.7.7.7.7.7.",
"7.7.7.7.7.7.7.7.7.7.7.7.7.7.7.7.7.7.7.7.7.7.7.7.7.7.7.7.7.7.7.7.7.7.7.7.7.7.7.7.7.7.7.7.7.7.7.7.7.7.7.7.7.7.7.7.7.7.7.7.7.7.7.7.",
"7.7.7.7.7.7.7.7.7.7.7.7.7.7.7.7.7.7.7.7.7.7.7.7.7.7.7.7.7.7.7.7.7.7.7.7.7.7.7.7.7.7.7.7.7.7.7.7.7.7.7.7.7.7.7.7.7.7.7.7.7.7.7.7.",
"7.7.7.7.7.7.7.7.7.7.7.7.7.7.7.7.7.7.7.7.7.7.7.7.7.7.7.7.7.7.7.7.7.7.7.7.7.7.7.7.7.7.7.7.7.7.7.7.7.7.7.7.7.7.7.7.7.7.7.7.7.7.7.7.",
"7.7.7.7.7.7.7.7.7.7.7.7.7.7.7.7.7.7.7.7.7.7.7.7.7.7.7.7.7.7.7.7.7.7.7.7.7.7.7.7.7.7.7.7.7.7.7.7.7.7.7.7.7.7.7.7.7.7.7.7.7.7.7.7.",
"7.7.7.7.7.7.7.7.7.7.7.7.7.7.7.7.7.7.7.7.7.7.7.7.7.7.7.7.7.7.7.7.7.7.7.7.7.7.7.7.7.7.7.7.7.7.7.7.7.7.7.7.7.7.7.7.7.7.7.7.7.7.7.7.",
"7.7.7.7.7.7.7.7.7.7.7.7.7.7.7.7.7.7.7.7.7.7.7.7.7.7.7.2.7 p 7.7.7.7.7.7.7.7.7.7.7.7.7.7.7.7.7.7.7.7.7.7.7.7.7.7.7.7.7.7.7.7.7.7.",
"7.7.7.7.7.7.7.7.7.7.7.7.7.7.7.7.7.7.7.7.7.7.7.7.7.7.2.t Q 6 3.7.7.7.7.7.7.7.7.7.7.7.7.7.7.7.7.7.7.7.7.7.7.7.7.7.7.7.7.7.7.7.7.7.",
"7.7.7.7.7.7.7.7.7.7.7.7.7.7.7.7.7.7.7.7.7.7.7.7.7.2.p q. Xi 7.7.7.7.7.7.7.7.7.7.7.7.7.7.7.7.7.7.7.7.7.7.7.7.7.7.7.7.7.7.7.7.7.7.",
"7.7.7.7.7.7.7.7.7.7.7.7.7.7.7.7.7.7.7.7.3.w 0 8 @ 9 t }.` $ 1.7.7.7.7.7.7.7.7.7.7.7.7.7.7.7.7.7.7.7.7.7.7.7.7.7.7.7.7.7.7.7.7.7.",
"7.7.7.7.7.7.7.7.7.7.7.7.7.7.7.7.7.7.2.q , T ( e.].e.' {.^ T i 7.7.7.7.7.7.7.7.7.7.7.7.7.7.7.7.7.7.7.7.7.7.7.7.7.7.7.7.7.7.7.7.7.",
"7.7.7.7.7.7.7.7.7.7.7.7.7.7.7.7.7.2.6 E ].]._.`.`._.`.[.}.Y > 1.7.7.7.7.7.7.7.7.7.7.7.7.7.7.7.7.7.7.7.7.7.7.7.7.7.7.7.7.7.7.7.7.",
"7.7.7.7.7.7.7.7.7.7.7.7.7.7.7.7.3.t Q '._ _ _././.(.(.(._. XY + 3.7.7.7.7.7.7.7.7.7.7.7.7.7.7.7.7.7.7.7.7.7.7.7.7.7.7.7.7.7.7.7.",
"7.7.7.7.7.7.7.7.7.7.7.7.7.7.7.7.s < w.` _ ` ).(.(.(.(.(.(._.{.< 5 7.7.7.7.7.7.7.7.7.7.7.7.7.7.7.7.7.7.7.7.7.7.7.7.7.7.7.7.7.7.7.",
"7.7.7.7.7.7.7.7.7.7.7.7.7.7.7.3.@ ~ w.).).' '.` ).(.(.(.(.(.{.' . 7.7.7.7.7.7.7.7.7.7.7.7.7.7.7.7.7.7.7.7.7.7.7.7.7.7.7.7.7.7.7.",
"7.7.7.7.7.7.7.7.7.7.7.7.7.7.7.1.t q.'.w.Y T < ~ ` (.(.(.(.(._.}.> 1.7.7.7.7.7.7.7.7.7.7.7.7.7.7.7.7.7.7.7.7.7.7.7.7.7.7.7.7.7.7.",
"7.7.7.7.7.7.7.7.7.7.7.7.7.3.5.r.! / q.T M.eX0Xy E ) (.(./.(.(.[.< p 7.7.7.7.7.7.7.7.7.7.7.7.7.7.7.7.7.7.7.7.7.7.7.7.7.7.7.7.7.7.",
"7.7.7.7.7.7.7.7.7.7.7.7.7.x eXaXyX0.> eXgXgXdXeX, ) /./././.(.'.P q 7.7.7.7.7.7.7.7.7.7.7.7.7.7.7.7.7.7.7.7.7.7.7.7.7.7.7.7.7.7.",
"7.7.7.7.7.7.7.7.7.7.7.7.i eXaXhXdX0Xm.gXgXgXgXdXt.R /././._ ^ ' Y 5 7.7.7.7.7.7.7.7.7.7.7.7.7.7.7.7.7.7.7.7.7.7.7.7.7.7.7.7.7.7.",
"7.7.7.7.7.7.e 9 4.7.7.7.t tXn aXhXV.uXgXeXyXgXdX.XP /././._ I : X @ 7.7.7.7.7.7.7.7.7.7.7.7.7.7.7.7.7.7.7.7.7.7.7.7.7.7.7.7.7.7.",
"7.7.7.7.7.9 B XXB 1.7.7.q wX0XgXiXc yXyXf V.hXdXV.P (././._ (.).W . p 7.7.7.7.7.7.7.7.7.7.7.7.7.7.7.7.7.7.7.7.7.7.7.7.7.7.7.7.7.",
"7.7.7.7.4.M %X:X-XH p 3.1.u.sXrX! N b.dXyXaXhXsXz R /./././._ _ ).] > 1.7.7.7.7.7.7.7.7.7.7.7.7.7.7.7.7.7.7.7.7.7.7.7.7.7.7.7.7.",
"7.7.7.7.1.B #X*X&X%XB M @.N F N O.>X..wXhXhXfXV.< _ _ _ /./._ _ (.}.Y e 7.7.7.7.7.7.7.7.7.7.7.7.7.7.7.7.7.7.7.7.7.7.7.7.7.7.7.7.",
"7.7.7.7.8.8 } @X*X=X%XK.-X-X;X:X=X=X%XB n.rXn.. E ) _ _ /./.(.(.(.[./ 5 7.7.7.7.7.7.7.7.7.7.7.7.7.7.7.7.7.7.7.7.7.7.7.7.7.7.7.7.",
"7.7.7.7.3.7.e M Z.@X$X:X=X*X*X&X&X&X&XOXO.*   B U ^ _ /._ _ (.(.(.}.W 9 7.7.7.7.7.7.7.7.7.7.7.7.7.7.7.7.7.7.7.7.7.7.7.7.7.7.7.7.",
"7.7.7.7.7.7.7.2.e g [  .H.oXoXoXoXY.J.Z.| | K.#X[ ^ /./.(.(._ (.(.}.T 0 7.7.7.7.7.7.7.7.7.7.7.7.7.7.7.7.7.7.7.7.7.7.7.7.7.7.7.7.",
"7.7.7.7.7.7.7.7.7.3.2.a ; = { { Z Z A.K.+X$XOXoXN ^ _ /._ /.)._ '. X> 2.7.7.7.7.7.7.7.7.7.7.7.7.7.3.7.7.7.7.7.7.7.7.7.7.7.7.7.7.",
"7.7.7.7.7.7.7.7.7.7.7.7.2.0 4 O.K.oX@XOXOXOXoX .U ^ _ _ /._ ` ` ' < 7 7.7.7.7.7.7.7.7.7.7.7.7.a 7 7 4.7.7.7.7.7.7.7.7.7.7.7.7.7.",
"7.7.7.7.7.7.7.7.7.7.7.7.7.7.4.9 # m Z Z.Z. .B 1 ~ (.(._ ^ ~ R Y > q 7.7.7.7.7.7.7.7.7.7.7.7.2.8 p.r.8 2.7.7.7.7.7.7.7.7.7.7.7.7.",
"7.7.7.7.7.7.7.7.7.7.7.7.7.7.3.7.3.w 0 8 o -   . P P P < : X X 7 2.7.7.7.7.7.7.7.7.7.7.7.6.6.1.n ~.V.n q 7.7.7.7.7.7.7.7.7.7.7.7.",
"7.7.7.7.7.7.7.7.7.7.7.7.7.7.7.7.7.7.7.7.7.3.2.4.w + X Y E , 5 7.7.7.7.7.7.7.7.7.7.7.3.8 g d y d B.n.u.@ 7.7.7.7.7.7.7.7.7.7.7.7.",
"7.7.7.7.7.7.7.7.7.7.7.7.7.7.7.7.7.7.7.7.7.7.7.7.7.+ Y / w.> q 7.7.7.7.7.7.7.7.7.7.7.1.z V.m.r.O b n.p.# w 3.7.7.7.7.7.7.7.7.7.7.",
"7.7.7.7.7.7.7.7.7.7.7.7.7.7.7.7.7.7.7.7.7.7.7.7.1.> / w.w.X ; d 8 e 3.6.7.7.7.7.7.7.3.f p.n.k.r.o u.t.%.r.w 7.7.7.7.7.7.7.7.7.7.",
"7.7.7.7.7.7.7.7.7.7.7.7.7.7.7.7.7.7.7.7.7.7.7.3.q n.pX9X.X$ @.H F D f 8 s 6.7.7.7.7.7.6.w x b k.# &.b m.k.7 7.7.7.7.7.7.7.7.7.7.",
"7.7.7.7.7.7.7.7.7.7.7.7.7.7.7.7.7.7.7.7.7.7.7.7.8 uXjXjXuX4 -.-.;.<.x.s.l & 0 4.7.7.7.7.3.3.& ! d z.z f.u.q 7.7.7.7.7.7.7.7.7.7.",
"7.7.7.7.7.7.7.7.7.7.7.7.7.7.7.7.7.7.7.7.7.7.7.4.; ,.R.R.,.A ;.o.o.:.<.a.<XB.r.& # 0 7 7 0 9.y.z.m.i.g k.j 2.7.7.7.7.7.7.7.7.7.7.",
"7.7.7.7.7.7.7.7.7.7.7.7.7.7.7.7.7.7.7.7.7.7.7.% F :.:.:.;.:.;.:.:.-.E.x.$.,X8X3Xm.y.%.y.B.3X5X3XB.j.h.r.1.7.7.7.7.7.7.7.7.7.7.7.",
"7.7.7.7.7.7.7.7.7.7.7.7.7.7.7.7.7.7.7.7.7.6.2.$ F >.;.K o.o.;.P.!.d.W.<Xg.+.s.B.5X5X5X5X5X5X5X5X.Xy.n 4.7.7.7.7.7.7.7.7.7.7.7.7.",
"7.7.7.7.7.7.7.7.7.7.7.7.7.7.7.7.7.7.7.7.7.7.w 2 =.-.-.A X.:.,.P.1X1X1X7X4XB.i.l l.5X5X5X5X5X5X5Xx.! 4.3.3.3.7.7.7.7.7.7.7.7.7.7.",
"7.7.7.7.7.7.7.7.7.7.7.7.7.7.7.7.7.7.7.7.7.7.q 3 *.*.A m -.P.!.W.1X2X6X7X8X4X^.&.G ~.8X5X5X5X,X,Xi.- V 4 0 4.2.2.7.7.7.7.7.7.7.7.",
"7.7.7.7.7.7.7.7.7.7.7.7.7.7.7.7.7.7.7.7.7.7.q 4 *.-.A M -.E.1X2X2X8X6X8X8X4Xc.l.g.l z.,Xg.$.2 v 3 m T.G.D.A.X.F x 7.7.7.7.7.7.7.",
"7.7.7.7.7.7.7.7.7.7.7.7.7.7.7.7.7.7.7.7.7.7.q * K K A = *.E.1X2X2X2X1X1X7X8XqX4Xx.l &.$.y.g.s.g M G.U.I.D.S.S.G.M 2.7.7.7.7.7.7.",
"7.7.7.7.7.7.7.7.7.7.7.7.7.7.7.7.7.7.7.7.7.7.p * A -.J = =.Q.2X2X2X2X2X7X7X4Xj.D 3 G &.l k ,X<Xa.= h c 9.c K D.S.C.L 5.7.7.7.7.7.",
"7.7.7.7.7.7.7.7.7.7.7.7.7.7.7.7.7.7.7.7.7.7.2.o V J >.4 @.Q.2X7X2X2X7X2XN.s.a.^.qX8X7X&.&.5X<Xa.$ 3.7.7.7.2.G A M L.h 7.7.7.7.7.",
"7.7.7.7.7.7.7.7.7.7.7.7.7.7.7.7.7.7.7.7.7.7.3.O M H >.N 2 x.<X1X7X7X7X<X<X8X1X^.,Xx.&.&.<X7Xj.; S S c c x 7.2.2.7.2.2.7.7.7.7.7.",
"7.7.7.7.7.7.7.7.7.7.7.7.7.7.7.7.7.7.7.7.7.7.7.7 4 V J *.* k j.N.,X^.~.~.v.v.x.y.#.#.j.4XN.+.o # L D.I.U.C.w 7.7.7.7.7.7.7.7.7.7.",
"7.7.7.7.7.7.7.7.7.7.7.7.7.7.7.7.7.7.7.7.7.7.7.7.# D F H V * = &.s.g.s.&.#.k 3 #.c.6X7X^.G h   s 2.s D.T.C 2.7.7.7.7.7.7.7.7.7.7.",
"7.7.7.7.7.7.7.7.7.7.7.7.7.7.7.7.7.7.7.7.7.7.7.7.7 3 L V V F k 3 ; - 2 k &.v.5X8X8X4X,X~.s.; 7 7.2.c D.F.f 7.7.7.7.7.7.7.7.7.7.7.",
"7.7.7.7.7.7.7.7.7.7.7.7.7.7.7.7.7.7.7.7.7.7.7.7.2.% g &.a.a.c.z.x.x.N.~.~.~.B.~.N.c.l.t.- 7 7.7.6.K D.A.e 7.7.7.7.7.7.7.7.7.7.7.",
"7.7.7.7.7.7.7.7.7.7.7.7.7.7.7.7.7.7.7.7.7.7.7.7.7.2.5 ; G y.i.f.s.h.l.h.h.h.h.f.s.t.g $ e 2.7.6.J D.F.-.3.7.7.7.7.7.7.7.7.7.7.7.",
"7.7.7.7.7.7.7.7.7.7.7.7.7.7.7.7.7.7.7.7.7.7.7.7.7.7.3.w 5 # # # & d z z z z g d & % q 2.7.7.7.s X.D.G.D 2.7.7.7.7.7.7.7.7.7.7.7.",
"7.7.7.7.7.7.7.7.7.7.7.7.7.7.7.7.7.7.7.7.7.7.7.7.7.7.7.7.7.3.1.1.1.p w q q q w 1.2.3.7.7.7.7.7.6.:.C M 4.7.7.7.7.7.7.7.7.7.7.7.7.",
"7.7.7.7.7.7.7.7.7.7.7.7.7.7.7.7.7.7.7.7.7.7.7.7.7.7.7.7.7.7.3.7.7.7.7.7.7.7.7.7.3.7.7.7.7.7.7.e L.n 7.7.7.7.7.7.7.7.7.7.7.7.7.7.",
"7.7.7.7.7.7.7.7.7.7.7.7.7.7.7.7.7.7.7.7.7.7.7.7.7.7.7.7.7.7.7.7.7.7.7.7.7.7.7.7.7.7.7.7.7.7.7.1.v 6.7.7.7.7.7.7.7.7.7.7.7.7.7.7.",
"7.7.7.7.7.7.7.7.7.7.7.7.7.7.7.7.7.7.7.7.7.7.7.7.7.7.7.7.7.7.7.7.7.7.7.7.7.7.7.7.7.7.7.7.7.7.7.7.7.7.7.7.7.7.7.7.7.7.7.7.7.7.7.7.",
"7.7.7.7.7.7.7.7.7.7.7.7.7.7.7.7.7.7.7.7.7.7.7.7.7.7.7.7.7.7.7.7.7.7.7.7.7.7.7.7.7.7.7.7.7.7.7.7.7.7.7.7.7.7.7.7.7.7.7.7.7.7.7.7.",
"7.7.7.7.7.7.7.7.7.7.7.7.7.7.7.7.7.7.7.7.7.7.7.7.7.7.7.7.7.7.7.7.7.7.7.7.7.7.7.7.7.7.7.7.7.7.7.7.7.7.7.7.7.7.7.7.7.7.7.7.7.7.7.7.",
"7.7.7.7.7.7.7.7.7.7.7.7.7.7.7.7.7.7.7.7.7.7.7.7.7.7.7.7.7.7.7.7.7.7.7.7.7.7.7.7.7.7.7.7.7.7.7.7.7.7.7.7.7.7.7.7.7.7.7.7.7.7.7.7.",
"7.7.7.7.7.7.7.7.7.7.7.7.7.7.7.7.7.7.7.7.7.7.7.7.7.7.7.7.7.7.7.7.7.7.7.7.7.7.7.7.7.7.7.7.7.7.7.7.7.7.7.7.7.7.7.7.7.7.7.7.7.7.7.7.",
"7.7.7.7.7.7.7.7.7.7.7.7.7.7.7.7.7.7.7.7.7.7.7.7.7.7.7.7.7.7.7.7.7.7.7.7.7.7.7.7.7.7.7.7.7.7.7.7.7.7.7.7.7.7.7.7.7.7.7.7.7.7.7.7.",
"7.7.7.7.7.7.7.7.7.7.7.7.7.7.7.7.7.7.7.7.7.7.7.7.7.7.7.7.7.7.7.7.7.7.7.7.7.7.7.7.7.7.7.7.7.7.7.7.7.7.7.7.7.7.7.7.7.7.7.7.7.7.7.7.",
"7.7.7.7.7.7.7.7.7.7.7.7.7.7.7.7.7.7.7.7.7.7.7.7.7.7.7.7.7.7.7.7.7.7.7.7.7.7.7.7.7.7.7.7.7.7.7.7.7.7.7.7.7.7.7.7.7.7.7.7.7.7.7.7."
};
