/* XPM */
static char *collect1709487782[] = {
/* columns rows colors chars-per-pixel */
"64 64 220 2 ",
"   c #0B2952",
".  c #122D55",
"X  c #1A2F57",
"o  c #173057",
"O  c #173158",
"+  c #1B345A",
"@  c #23395E",
"#  c #2C395D",
"$  c #35375E",
"%  c #263B61",
"&  c #2B3D61",
"*  c #513F63",
"=  c #2E4164",
"-  c #354366",
";  c #364568",
":  c #3A4569",
">  c #3A486A",
",  c #454667",
"<  c #444D6E",
"1  c #4C4B6B",
"2  c #5A516E",
"3  c #465170",
"4  c #4B5373",
"5  c #545574",
"6  c #5A5776",
"7  c #5B5A79",
"8  c #6B486C",
"9  c #63526F",
"0  c #7D4D71",
"q  c #625B7A",
"w  c #795C77",
"e  c #6A637E",
"r  c #7A617B",
"t  c #BB7B35",
"y  c #9D5076",
"u  c #BE5575",
"i  c #BC597A",
"p  c #8F687F",
"a  c #C3536F",
"s  c #C74F75",
"d  c #CD4E76",
"f  c #D74E7B",
"g  c #C45274",
"h  c #C8567B",
"j  c #C45B7C",
"k  c #D2537B",
"l  c #E14C7C",
"z  c #C5686B",
"x  c #DA7C69",
"c  c #C8647F",
"v  c #CA777B",
"b  c #D1911C",
"n  c #D9A219",
"m  c #E6B00B",
"M  c #E4AD14",
"N  c #E3AD1A",
"B  c #E5B116",
"V  c #E9B216",
"C  c #E6B319",
"Z  c #EAB41C",
"A  c #D69926",
"S  c #CF8B39",
"D  c #DB9B38",
"F  c #E39E27",
"G  c #DAA626",
"H  c #DAB62B",
"J  c #DAA938",
"K  c #E3AA25",
"L  c #E3B323",
"P  c #EAB425",
"I  c #E1AC3B",
"U  c #E5B333",
"Y  c #EAB834",
"T  c #EEC138",
"R  c #F1C63A",
"E  c #D89B49",
"W  c #D28A50",
"Q  c #D8995A",
"!  c #E0964D",
"~  c #DEA84A",
"^  c #DEA553",
"/  c #DFA759",
"(  c #E9BA48",
")  c #E4AA55",
"_  c #E8B956",
"`  c #D89867",
"'  c #D08F73",
"]  c #D89578",
"[  c #DFB061",
"{  c #DEA471",
"}  c #E5A769",
"|  c #E7A976",
" . c #ECB978",
".. c #F2BC78",
"X. c #EDC14F",
"o. c #EBC771",
"O. c #696783",
"+. c #796984",
"@. c #7A728B",
"#. c #896C8A",
"$. c #976983",
"%. c #87748C",
"&. c #877791",
"*. c #9A7A96",
"=. c #AF6984",
"-. c #B26B84",
";. c #BB7289",
":. c #AC7C98",
">. c #B97995",
",. c #C45D82",
"<. c #CE5980",
"1. c #DC5583",
"2. c #D75A86",
"3. c #E05E88",
"4. c #C46484",
"5. c #C96584",
"6. c #C46C86",
"7. c #CA6D85",
"8. c #CF6588",
"9. c #C66D89",
"0. c #CB6D8A",
"q. c #D6658A",
"w. c #CC7683",
"e. c #C4728D",
"r. c #CC738D",
"t. c #D0728E",
"y. c #CD7693",
"u. c #CA7C98",
"i. c #D27493",
"p. c #D37A96",
"a. c #D3769A",
"s. c #DD7499",
"d. c #D47C9B",
"f. c #D97A9B",
"g. c #E5648F",
"h. c #E66994",
"j. c #E7749B",
"k. c #E6749C",
"l. c #D57EA0",
"z. c #E37CA1",
"x. c #E97DA2",
"c. c #918196",
"v. c #AB839B",
"b. c #B9869E",
"n. c #A28DA1",
"m. c #AB8DA5",
"M. c #B88AA3",
"N. c #AB93A9",
"B. c #B995AB",
"V. c #BC97B0",
"C. c #D08489",
"Z. c #CB849B",
"A. c #D3819D",
"S. c #D8869D",
"D. c #E1988A",
"F. c #E0819F",
"G. c #E9A985",
"H. c #E9B087",
"J. c #F2BA89",
"K. c #EBA49A",
"L. c #C989A5",
"P. c #D682A1",
"I. c #DC85A3",
"U. c #D98BA7",
"Y. c #DD8AA5",
"T. c #C493AB",
"R. c #D693AB",
"E. c #DB94AD",
"W. c #D798A9",
"Q. c #C69DB3",
"!. c #D998B3",
"~. c #DB9EB6",
"^. c #E787A9",
"/. c #E38BAB",
"(. c #E692AB",
"). c #E492AE",
"_. c #EB8DB3",
"`. c #E493B2",
"'. c #EC94B4",
"]. c #E59BB4",
"[. c #EC9BB6",
"{. c #E49FB9",
"}. c #ED9CB9",
"|. c #F096B6",
" X c #F19AB7",
".X c #F195B9",
"XX c #F19ABA",
"oX c #CFA6BA",
"OX c #D8A4B9",
"+X c #EAA6A7",
"@X c #F1A9A5",
"#X c #EEB8AA",
"$X c #E5A3BB",
"%X c #ECA3BD",
"&X c #E9AAB8",
"*X c #F1A3BE",
"=X c #F0ACBD",
"-X c #EFB7B0",
";X c #F2C184",
":X c #F1C2B0",
">X c #DAA9C1",
",X c #EEA6C2",
"<X c #E8A9C3",
"1X c #ECABC3",
"2X c #F1A4C1",
"3X c #F1ABC6",
"4X c #F2A3CB",
"5X c #F0AEC9",
"6X c #E6B2C4",
"7X c #EAB1C5",
"8X c #EDB4CB",
"9X c #EDBACD",
"0X c #F0B2C5",
"qX c #F1B4CC",
"wX c #F0BACD",
"eX c #EFBED1",
"rX c #F2B2D0",
"tX c #F2BBD2",
"yX c #EDCCDA",
"uX c #F2C4D6",
/* pixels */
"                                                                                                                                ",
"                                                                                                                                ",
"                                                                                                                                ",
"                                                                                                                                ",
"                                                                                                                                ",
"                                                                                                                                ",
"                                                                                                                                ",
"                                                                                                                                ",
"                                                                                                                                ",
"                                                                                                                                ",
"                                                                                                                                ",
"                                                                                                                                ",
"                                                                                                                                ",
"                                                                                                                                ",
"                                                                                                                                ",
"                                            % >           3 6 .                                                                 ",
"                                            c.oX@.+     = M.!.q                                                                 ",
"                                          % oX8X8Xn.=   q ]..XL.:                                                               ",
"                                          - !.8XqX0Xn.= v.[.I.`.:.+                   @ 7 @                                     ",
"                                          < OX8XwXqX6XV.].).0.a.E.7               . 3 N.>X3                                     ",
"                    O O                   < ~.qX8XtXqX,X[.I.7.8.Y.v.+           + r W.<X>X-                                     ",
"                  = c.&.O.> +             3 ~.5XqXtXrX2X.Xp.6.9.p.E.5         + r R.,X,XoX%                                     ",
"                  3 ~.{.OXQ.B.&.4 +       3 ~.3XwXqXrXXX'.0.9.8.0./.*.o     @ w u.2X<X5XQ.+               . .                   ",
"                  > OX}.}.}.XX{.!.m.5 o   < ~.,XqXqXqXXX/.0.0.9.0.s.L.&   . w >.'.2X1X8XV.O         + < 7 +.#.:                 ",
"                  + B.$X}.}..XXX}.}.!.&.& 4 ~.*X5XqXqX*X/.9.7.5.9.0.).6   9 7.I.*X,X0X8XN.. + ; O.*.V.!.`.z.q.9                 ",
"                    O.6X{.}.XXXX.X}.XX].B.m.$X,X3XqXqX}.I.0.7.7.0.0./.%.1 -.t.}.%X1XqX9XN.O.*.R..X}.}.}..Xh.,.#                 ",
"                    + B.8X,X}.}. X(.P./.{.3X5X2X2X0XqX*X/.0.7.w.0.7.C.S.6.7.S.%X2XqXwXwX6X].}..X}.}..X.Xx.3.0                   ",
"                  + 3 N.6X8X5X1X3X$XL.e.l.}.5X,X2X0XqX=X(.w.v } ' ` | G.} v D.&X1XwXtX0X$X}.}.}.}.}.}.^.h.,.$                   ",
"                  > T.Z.].=X3X5X8X8XuX&Xu.A.}.5X4X=XqX#XG.H.Q S / E Q E Q | | H.:XtX8X%XXXXXXXXXXX.X^.k.2.8 .                   ",
"                  @ M.Y.p.%X=X,X%X%X1XwX$Xe.I.,X=X&X-X;X^ ) K b U K F G S ( ) ~ o.#X%X XXXXXXX.X.Xz.j.g.y X                     ",
"                    +.$XA.A.{.%X2X2X2X,X8XP.9.^.@XJ.{ ( U Z V M K V m n K L b X.o. . XXX}.XX.X^.z.k.h.u $                       ",
"                    = B.}.p.p.'.2X,X2X1X1X<X;.,.] ) D K M V V N M V C B m B L J J ..@X.X|._.x.z.k.g.d *                         ",
"                      O.%X}.d.p./.2X2X2X3X1XZ.z ' ! A n V C M Z M M M M V M N ( ) Q D./.F.j.j.k.3.f 8 O .                       ",
"                      + c.%X%XI.y.P.XX3X2X2X{.C.Q D A K N Z M Z M V V M B C Z L D z S.wX$X^.h.1.1.l.*.@.+.e 7 5 - o             ",
"              . $ 1 2 2 $.'.2X*X`.P.P.].2X2X,X&X' E A A P V M V M N B B N P R G D ] ).9XuX9X/.^.'.XX`.U.Y.S.U.U.L.v.q +         ",
"            @ p -.e.0.j u 5.].,X2X,X].`.%X2X2X=XG._ I b n N Z Z Z Z Z Z Z N H G J ] {.%XuXyXuX/.k.q.2.h j 5.0.0.t.p.S.%.+       ",
"        . , p 0.7.0.5.g s a 5./.*X2X1X1X3XqX1X*X@X| ) ^ U N M M B M M B N N Y ( ^ K. X XrXyXeXq.l f d h ,.0.0.0.r.7.r.Z.r O     ",
"        , =.0.0.r.7.h g s s s h f.2XqXqXtX8X8X3X3X;X) ) J G L N R T M Y Y M A }  .@X[.[.5XyX<X1.l d d j 0.0.0.0.0.r.8.r.Z.>     ",
"      , =.0.0.r.0.0.5.g s a a s h 8.z.^.`.8XeX9X+XK.H. .J K ( A G H L G J ( W ` ..K.}.}.8X8Xh.1.f d j 0.p.a.a.d.y.y.L.W.c.=     ",
"    . p p.0.0.0.0.0.7.j u s s u s d l 1.s.uX8X,Xd.e.] } x S K n J ( ~ E t E ^ D.+X}..X'.R.l.<.1.h 8.s.A.y.a.d.{.%X<XV.O.@       ",
"      # +.b.A.r.0.0.0.8.g g g u s s f k  XwX*XXXA.6.8.c ' ! J _ J _ Q ;.z ` | e.r.d.p.y.R.3X`._.'.y.u.u.`.3X<XOXm.O.@           ",
"          : %.W.I.a.0.0.5.i s s s s 5.f.E.wX}.}.'.p.0.7.v ` [ Q W  .] c 0.w.w.9.7.7.y.!.8X9X8XqXqX<X5X6XoXN.O.> +               ",
"            o < #.T.!.`.U.d.0.9.4.7.k.8.6.7X%X X[.'.l.i.q.r.v p.A.-X&Xi ,.9.7.0.0.p.%X0X9X9X7X>XQ.m.&.7 - O                     ",
"                  & 6 &.B.oX>X&X&X`.p.h u E.%X%X,X,X%X}._._.(.].%XqX<Xj g g g g 5.p.].T.&.O.7 > % .                             ",
"                      O + % ; 4 b.u.0.j g y.$X<X8XwXtXtXrX5X0X9X9X1Xp.g a g s g j r.U.%.. .                                     ",
"                              6 ;.q.0.5.g g i ,.5.y.P.).$X$X,X%X%Xy.u g g g s s h 0.A.v.+                                       ",
"                            1 ;.r.0.9.9.4.g u s g g g i ;.5.p.U.[.d.4.h g g g u 4.0.t.L.@                                       ",
"                            , p ;.0.7.0.7.7.5.4.4.5.8.8.t.A.v.7 v.&XI.0.5.5.c 5.7.0.7.L.-                                       ",
"                              . 1 $.>.u.p.y.i.i.t.t.f.Z.b.+.@   # c.$XU.y.0.0.0.0.0.0.u.&                                       ",
"                                  o - q #.*.:.:.:.*.#.2 #         + 7 b.E.d.e.9.0.0.0.L.:                                       ",
"                                          . . . .                     + 6 *.M.y.e.0.9.>.-                                       ",
"                                                                          o & , 1 6 9 5 o                                       ",
"                                                                                                                                ",
"                                                                                                                                ",
"                                                                                                                                ",
"                                                                                                                                ",
"                                                                                                                                ",
"                                                                                                                                ",
"                                                                                                                                ",
"                                                                                                                                ",
"                                                                                                                                ",
"                                                                                                                                ",
"                                                                                                                                ",
"                                                                                                                                "
};
