/* XPM */
static char *b93c7e05f47b42d1fa54c24e439b1a66bCv8CQU85XXEzB4A[] = {
/* columns rows colors chars-per-pixel */
"64 64 231 2 ",
"   c #120E0D",
".  c #06190B",
"X  c #16130D",
"o  c #091619",
"O  c #151718",
"+  c #1D1C1B",
"@  c #261809",
"#  c #34180A",
"$  c #231A12",
"%  c #261D18",
"&  c #07280E",
"*  c #0A2617",
"=  c #17291A",
"-  c #073A1A",
";  c #3D240C",
":  c #2B2215",
">  c #2C231B",
",  c #382615",
"<  c #0C1523",
"1  c #0B1924",
"2  c #0B192C",
"3  c #171925",
"4  c #151B25",
"5  c #141D2C",
"6  c #0B1C33",
"7  c #0B1E3A",
"8  c #131E34",
"9  c #241F24",
"0  c #0D2422",
"q  c #0C3F21",
"w  c #0E2436",
"e  c #0D213D",
"r  c #182335",
"t  c #14233D",
"y  c #282726",
"u  c #372B26",
"i  c #203122",
"p  c #3B3325",
"a  c #3A3527",
"s  c #34342D",
"d  c #272938",
"f  c #352C36",
"g  c #373436",
"h  c #3D3C35",
"j  c #4E280D",
"k  c #482A16",
"l  c #4B3617",
"z  c #56391A",
"x  c #6C380A",
"c  c #68361D",
"v  c #532B27",
"b  c #463729",
"n  c #553826",
"m  c #473B34",
"M  c #663C24",
"N  c #713F23",
"B  c #643E39",
"V  c #06441C",
"C  c #04551C",
"Z  c #0A4B27",
"A  c #134626",
"S  c #085929",
"D  c #135632",
"F  c #30463B",
"G  c #02782E",
"H  c #0B6A39",
"J  c #0F6B39",
"K  c #017E32",
"L  c #097739",
"P  c #047E3B",
"I  c #5B4316",
"U  c #6A450D",
"Y  c #72450D",
"T  c #7D540E",
"R  c #694315",
"E  c #76431D",
"W  c #775813",
"Q  c #40412F",
"!  c #574229",
"~  c #4A4535",
"^  c #544436",
"/  c #524B3C",
"(  c #69442A",
")  c #734424",
"_  c #794423",
"`  c #774728",
"'  c #624C3D",
"]  c #744D34",
"[  c #735639",
"{  c #0D2343",
"}  c #0C264B",
"|  c #0C284F",
" . c #122444",
".. c #1A2A45",
"X. c #132A4D",
"o. c #0B2952",
"O. c #132D56",
"+. c #17355F",
"@. c #2F3847",
"#. c #1B3D69",
"$. c #2B3170",
"%. c #3C4C4F",
"&. c #146A40",
"*. c #097A44",
"=. c #304D72",
"-. c #2A6767",
";. c #317279",
":. c #484743",
">. c #514E47",
",. c #585547",
"<. c #5D5C4C",
"1. c #4D5054",
"2. c #5C5C59",
"3. c #665948",
"4. c #635C4D",
"5. c #7C5E41",
"6. c #635F53",
"7. c #67634D",
"8. c #666455",
"9. c #6C6453",
"0. c #69665A",
"q. c #746955",
"w. c #736B5A",
"e. c #76735B",
"r. c #645D62",
"t. c #537370",
"y. c #6A6863",
"u. c #6F7064",
"i. c #7B7464",
"p. c #78766A",
"a. c #757676",
"s. c #8D3E0A",
"d. c #895A0C",
"f. c #914D11",
"g. c #A44A0F",
"h. c #A44C18",
"j. c #A65614",
"k. c #B15511",
"l. c #AC7509",
"z. c #B27817",
"x. c #924F28",
"c. c #865D3D",
"v. c #CD5E0B",
"b. c #E65E10",
"n. c #D3700C",
"m. c #875744",
"M. c #836548",
"N. c #826C51",
"B. c #857659",
"V. c #977C56",
"C. c #837C6B",
"Z. c #867C6A",
"A. c #00802E",
"S. c #008132",
"D. c #03863B",
"F. c #068642",
"G. c #12894A",
"H. c #08994A",
"J. c #138B52",
"K. c #109950",
"L. c #2F8D70",
"P. c #728A7A",
"I. c #AA8F29",
"U. c #C88909",
"Y. c #D9960B",
"T. c #D48D12",
"R. c #D39316",
"E. c #DDA519",
"W. c #FAA807",
"Q. c #F9B207",
"!. c #E8AA12",
"~. c #F1AC13",
"^. c #F4B113",
"/. c #D4B827",
"(. c #85826C",
"). c #8A826E",
"_. c #97866B",
"`. c #93896D",
"'. c #878576",
"]. c #8D8572",
"[. c #8C8B73",
"{. c #938674",
"}. c #928974",
"|. c #938C79",
" X c #285085",
".X c #395986",
"XX c #506E93",
"oX c #647992",
"OX c #5D75B6",
"+X c #477BC4",
"@X c #834EC1",
"#X c #8F69CE",
"$X c #AB68D5",
"%X c #B867DC",
"&X c #A65DE7",
"*X c #B76AE6",
"=X c #C16DDF",
"-X c #C96BE6",
";X c #C469E8",
":X c #3A9581",
">X c #439885",
",X c #7FB399",
"<X c #5685BE",
"1X c #7893B1",
"2X c #578ACB",
"3X c #568ACC",
"4X c #6694CA",
"5X c #6E9ACB",
"6X c #70A1D5",
"7X c #878585",
"8X c #9C9382",
"9X c #9A9997",
"0X c #A2A199",
"qX c #A9A8A8",
"wX c #ADB1AC",
"eX c #B9B6AE",
"rX c #B5B4B8",
"tX c #9CC1AF",
"yX c #8CADD2",
"uX c #91BCE4",
"iX c #C897C6",
"pX c #9DC1DF",
"aX c #BDCDDD",
"sX c #9BC2E6",
"dX c #B0D2EC",
"fX c #C9C9C9",
"gX c #CDD0D5",
"hX c #D6D6D4",
"jX c #DAD7D6",
"kX c #DBDADB",
"lX c #F6F3EB",
/* pixels */
"o.o.o.o.o.o.o.o.o.o.o.o.o.o.o.o.o.o.o.o.o.o.o.o.o.o.o.o.o.o.o.o.o.o.o.o.o.o.o.o.o.o.o.o.o.o.o.o.o.o.o.o.o.o.o.o.o.o.o.o.o.o.o.o.",
"o.o.o.o.o.o.o.o.o.o.o.o.o.o.o.o.o.o.o.o.o.o.o.o.o.o.o.o.o.o.o.o.o.o.o.o.o.o.o.o.o.o.o.o.o.o.o.o.o.o.o.o.o.o.o.o.o.o.o.o.o.o.o.o.",
"o.o.o.o.o.o.o.o.o.o.o.o.o.o.o.o.o.o.o.o.o.o.o.o.o.o.o.o.o.o.o.o.o.o.o.o.o.o.o.o.o.o.o.o.o.o.o.o.o.o.o.o.o.o.o.o.o.o.o.o.o.o.o.o.",
"o.o.o.o.o.o.o.o.o.o.o.o.o.o.o.o.o.o.o.o.o.o.o.o.o.o.o.o.o.o.o.o.o.o.o.o.o.o.o.o.o.o.o.o.o.o.o.o.o.o.o.o.o.o.o.o.o.o.o.o.o.o.o.o.",
"o.o.o.o.o.o.o.o.o.o.o.o.o.o.o.o.o.o.o.o.o.o.o.o.o.o.o.o.o.o.o.o.o.o.o.o.o.o.o.o.o.o.o.o.o.o.o.o.o.o.o.o.o.o.o.o.o.o.o.o.o.o.o.o.",
"o.o.o.o.o.o.o.o.o.o.o.o.o.o.o.o.o.o.o.o.o.o.o.o.o.o.o.o.o.o.o.o.o.o.o.o.o.o.o.o.o.o.o.o.o.o.o.o.o.o.o.o.o.o.o.o.o.o.o.o.o.o.o.o.",
"o.o.o.o.o.o.o.o.o.o.o.o.o.o.o.o.o.o.o.o.o.o.o.o.o.o.o.o.o.o.o.o.o.o.o.o.o.o.o.o.o.o.o.o.o.o.o.o.o.o.o.o.o.o.o.o.o.o.o.o.o.o.o.o.",
"o.o.o.o.o.o.o.o.o.o.o.o.o.o.o.o.o.o.o.o.o.o.o.o.o.o.o.o.o.o.o.o.o.o.o.o.o.o.o.o.o.o.o.o.o.o.o.o.o.o.o.o.o.o.o.o.o.o.o.o.o.o.o.o.",
"o.o.o.o.o.o.o.o.o.o.o.o.o.o.o.o.o.o.o.o.o.o.o.o.o.o.o.o.} 5 e o.o.o.o.o.o.o.o.o.o.o.o.o.o.o.o.o.o.o.o.o.o.o.o.o.o.o.o.o.o.o.o.o.",
"o.o.o.o.o.o.o.o.o.o.o.o.o.o.o.o.o.o.o.o.o.o.o.o.o.O.$.} 0 D 1 o.o.o.o.o.o.o.o.o.o.o.o.o.o.o.o.o.o.o.o.o.o.o.o.o.o.o.o.o.o.o.o.o.",
"o.o.o.o.o.o.o.o.o.o.o.o.o.o.o.o.o.o.o.o.o.o.o.o.$.-X&X$.&.J.w o.o.o.o.o.o.o.o.o.o.o.o.o.o.o.o.o.o.o.o.o.o.o.o.o.o.o.o.o.o.o.o.o.",
"o.o.o.o.o.o.o.o.o.o.o.o.o.o.o.o.o.o.o.o.o.}  .@X%X-X;X$X#X-.O { o.o.o.o.o.o.o.o.o.o.o.o.o.o.o.o.o.o.o.o.o.o.o.o.o.o.o.o.o.o.o.o.",
"o.o.o.o.o.o.o.o.o.o.o.o.o.o.o.o.o.o.o.} 6 0 %.-X;X;X*X;X$XXXA e o.o.o.o.o.o.o.o.o.o.o.o.o.o.o.o.o.o.o.o.o.o.o.o.o.o.o.o.o.o.o.o.",
"o.o.o.o.o.o.o.o.o.o.o.o.o.o.o.o.o.o.} 1 D G.J.#X-X*XiX=XOXL.Z o { o.o.o.o.o.o.o.o.o.o.o.o.o.o.o.o.o.o.o.o.o.o.o.o.o.o.o.o.o.o.o.",
"o.o.o.o.o.o.o.o.o.o.o.o.o.o.o.o.o.| 0 D F.S.S.t.-X-X*X&XXXD.G.Z o } o.o.o.o.o.o.o.o.o.o.o.o.o.o.o.o.o.o.o.o.o.o.o.o.o.o.o.o.o.o.",
"o.o.o.o.o.o.o.o.o.o.o.o.o.o.o.o.o.w q *.D.K P XX$X#X;X%X;.S.D.H.- < o.o.o.o.o.o.o.o.o.o.o.o.o.o.o.o.o.o.o.o.o.o.o.o.o.o.o.o.o.o.",
"o.o.o.o.o.o.o.o.o.o.o.o.o.o.o.o.} o H *.D.D.P F.;.*.t.;.P S.K H.P . } o.o.o.o.o.o.o.o.o.o.o.o.o.o.o.o.o.o.o.o.o.o.o.o.o.o.o.o.o.",
"o.o.o.o.o.o.o.o.o.o.o.o.o.o.o.o.e * *.F.L Z - - H P K S.S.S.S.D.K.* { o.o.o.o.o.o.o.o.o.o.o.o.o.o.o.o.o.o.o.o.o.o.o.o.o.o.o.o.o.",
"o.o.o.o.o.o.o.o.o.o.o.o.o.o.} ..1.F S H A u.9X7Xi D L S.S.S.S.S.H.- t o.o.o.o.o.o.o.o.o.o.o.o.o.o.o.o.o.o.o.o.o.o.o.o.o.o.o.o.o.",
"o.o.o.o.o.o.o.o.o.o.o.o.o.| d 9XfXwX%.= 9XjXkXhX9X= L K A.A.A.K F.V 6 o.o.o.o.o.o.o.o.o.o.o.o.o.o.o.o.o.o.o.o.o.o.o.o.o.o.o.o.o.",
"o.o.o.o.o.o.o.o.o.o.o.o.o. .7XfXkXkX7Xy.kXjXkXkXhX>.S A.A.A.K G L Z < o.o.o.o.o.o.o.o.o.o.o.o.o.o.o.o.o.o.o.o.o.o.o.o.o.o.o.o.o.",
"o.o.o.o.o.o.| r O { o.o.o.r qXg fXkXa.eXhX9XqXkXhXP.V S.A.A.K C & . o | o.o.o.o.o.o.o.o.o.o.o.o.o.o.o.o.o.o.o.o.o.o.o.o.o.o.o.o.",
"o.o.o.o.o.o.3 I I.I  .o.o.t 9X7XhXrXs rXwXy a.kXjXp.V S.A.A.K S.D.D . 7 o.o.o.o.o.o.o.o.o.o.o.o.o.o.o.o.o.o.o.o.o.o.o.o.o.o.o.o.",
"o.o.o.o.o. .k E.^.!.z r }  .1.gX0Xm Q r.jXqXfXkXgXs S S.A.A.K K K F.J * } o.o.o.o.o.o.o.o.o.o.o.o.o.o.o.o.o.o.o.o.o.o.o.o.o.o.o.",
"o.o.o.o.o.{ z E.W.Q.E.z k ! l ! l W /.7.yXgXaXhXa.q G K A.A.S.K S.S.K.Z 6 o.o.o.o.o.o.o.o.o.o.o.o.o.o.o.o.o.o.o.o.o.o.o.o.o.o.o.",
"o.o.o.o.o.o.3 U T.~.Q.E.z.~.~.~.~.Q.Q.Y.2.oX5XyXpXdXL.K A.K S.K S.S.H.H < o.o.o.o.o.o.o.o.o.o.o.o.o.o.o.o.o.o.o.o.o.o.o.o.o.o.o.",
"o.o.o.o.o.o.o.8 k d.T.Y.~.Q.W.W.W.W.W.W.!.W @ .X+XsX>XK A.A.K S.S.S.H.D 1 o.o.o.o.o.o.o.o.o.o.o.o.o.o.o.o.o.o.o.o.o.o.o.o.o.o.o.",
"o.o.o.o.o.o.o.o.} 8 u I d.l.l.U.U.U.n.l.d.x Y V.+XuXL.K A.A.S.K S.S.H.A 8 o.o.o.o.o.o.o.o.o.o.o.o.o.o.o.o.o.o.o.o.o.o.o.o.o.o.o.",
"o.o.o.o.o.o.o.o.o.o.| } t % # z R x Y f.z.U.Y.R.3XdXL.A.A.A.S.S.S.F.K.*  .o.o.o.o.o.o.o.o.o.o.o.o.o.o.o.o.o.o.o.o.o.o.o.o.o.o.o.",
"o.o.o.o.o.o.o.o.o.o.o.o.o.} 5 , W z.U.Y.Y.Y.Y.U.4XdXL.A.A.A.K P P L - 6 o.o.o.o.o.o.o.o.o.o.o.o.t O < { o.o.o.o.o.o.o.o.o.o.o.o.",
"o.o.o.o.o.o.o.o.o.o.o.o.o.o.o. .3 $ j Y T d.T I 4XdX:XP P L H S Z * 6 o.o.o.o.o.o.o.o.o.o.o.o.{ + 2.:.3 } o.o.o.o.o.o.o.o.o.o.o.",
"o.o.o.o.o.o.o.o.o.o.o.o.o.o.o.o.o.} t 5 3 + $ @.2X6XZ V & & . . 2 } o.o.o.o.o.o.o.o.o.o.o.X.o.e g '.a.h 7 o.o.o.o.o.o.o.o.o.o.o.",
"o.o.o.o.o.o.o.o.o.o.o.o.o.o.o.o.o.o.o.o.o.o.o.=.3X.Xo . q Z = < o.o.o.o.o.o.o.o.o.o.o.X.3 y y r y p.y.2.o o.o.o.o.o.o.o.o.o.o.o.",
"o.o.o.o.o.o.o.o.o.o.o.o.o.o.o.o.o.o.o.o.o.o.o. X2X+.o A H *.* w o.o.o.o.o.o.o.o.o.o.o.{ s p.y.:.  h y.2.O e o.o.o.o.o.o.o.o.o.o.",
"o.o.o.o.o.o.o.o.o.o.o.o.o.o.o.o.o.o.o.o.o.o.o. X4X} * J *.&.. + 9 3 7 } o.o.o.o.o.o.o.} y 2.y.y.:.X >.:.~ :.e o.o.o.o.o.o.o.o.o.",
"o.o.o.o.o.o.o.o.o.o.o.o.o.o.o.o.o.o.o.o.o.o.o.=.<X6 y.tX,XP.= ! M n b y 5 t X.o.o.o.o.o.} r d h 0.O :.h y.0.1 o.o.o.o.o.o.o.o.o.",
"o.o.o.o.o.o.o.o.o.o.o.o.o.o.o.o.o.o.o.o.o.o.o.#.4X3 eXlXlXeX, ) ) ` [ q.4.a + 5  .| o.o.o.o.} 3 h y 0.s 8.>.6 o.o.o.o.o.o.o.o.o.",
"o.o.o.o.o.o.o.o.o.o.o.o.o.o.o.o.o.o.o.o.o.o.o.o.<X: ] m.m.] c _ E _ ) [ 3.).i.:.+ O 5 2 2 8 @.,.0.y.<.u 8.y } o.o.o.o.o.o.o.o.o.",
"o.o.o.o.o.o.o.o.o.o.o.o.o.o.o.o.o.o.o.o.o.o.o.| +Xn ` ` ` ` ` _ _ ` ` M.q.~ ).|.'.u.,.~ ,.p.'.'.'.p.0.8.:. .o.o.o.o.o.o.o.o.o.o.",
"o.o.o.o.o.o.o.o.o.o.o.o.o.o.o.o.o.o.o.o.o.o.o.} .X' ) _ _ E _ _ c.V.5.N.`.8.Q <.C.[.}.[.[.[.[.[.[.p.<.g  .o.o.o.o.o.o.o.o.o.o.o.",
"o.o.o.o.o.o.o.o.o.o.o.o.o.o.o.o.o.o.o.o.o.o.o.7 %.r.) ) c E ` ] c._._._.}.[.i.<.a 9.|.[.[.[.[.[.[.w.h { | o.o.o.o.o.o.o.o.o.o.o.",
"o.o.o.o.o.o.o.o.o.o.o.o.o.o.o.o.o.o.o.o.o.o.o.6 %.a.) c j ) c.V.N._.}.{.|.}.[.C./ m C.[.[.[.[.).C.,.$ v u r t } } o.o.o.o.o.o.o.",
"o.o.o.o.o.o.o.o.o.o.o.o.o.o.o.o.o.o.o.o.o.o.o.6 1.1X) M k ) M._.`.`.}.}.|.|.].w.9.4.p q.(.4.~ y g y j b.v.f.f.R n d o.o.o.o.o.o.",
"o.o.o.o.o.o.o.o.o.o.o.o.o.o.o.o.o.o.o.o.o.o.o.6 oX1X) M # ( M._.`.`.`.`.}.}.|.8X].q.p ,.~ ,.7.<.u ; k.b.v.h.g.g.k.k } o.o.o.o.o.",
"o.o.o.o.o.o.o.o.o.o.o.o.o.o.o.o.o.o.o.o.o.o.o.e yXoXN M # ( N.`.`.`.`.}.}.}.).9.p > m / a p ).).3.# u f @.g ) h.g.s.B ..o.o.o.o.",
"o.o.o.o.o.o.o.o.o.o.o.o.o.o.o.o.o.o.o.o.o.o.o.} =.n N ) ; ^ B.`.`.`.`.}.].i.3.4.Z.8X8X|./ / [.].3.O } o.o.o.X.m c v x.u | o.o.o.",
"o.o.o.o.o.o.o.o.o.o.o.o.o.o.o.o.o.o.o.o.o.o.o.| 5 b M ) z $ q.).}.`.}.}.].).}.{.Z.C.q./ / ].}.9.: k v d f d | |  .| } } o.o.o.o.",
"o.o.o.o.o.o.o.o.o.o.o.o.o.o.o.o.o.o.o.o.o.o.o.o.5X1.n M ( @ b 9.i.C.C.C.C.e.e.9.,.~ ~ 9.].i.m X   n h.v.b.s.7 o.o.o.o.o.o.o.o.o.",
"o.o.o.o.o.o.o.o.o.o.o.o.o.o.o.o.o.o.o.o.o.o.o.#.uX@.b z M z @ % / 6.7.4./ ~ p > ~ w.}.}.C.m u   { | r h.b.x } o.o.o.o.o.o.o.o.o.",
"o.o.o.o.o.o.o.o.o.o.o.o.o.o.o.o.o.o.o.o.o.o.o.O.2X..> ^ z z n b > $ $ > p / w.].|.}.].).C.4.> 1 o.o.g j.j.y o.o.o.o.o.o.o.o.o.o.",
"o.o.o.o.o.o.o.o.o.o.o.o.o.o.o.o.o.o.o.o.o.o.o.o.o.} 3 u ' ' 3.w.q.q.q.i.C.C.C.C.i.i.w.9./ $ 3 | o.X._ h.f.t o.o.o.o.o.o.o.o.o.o.",
"o.o.o.o.o.o.o.o.o.o.o.o.o.o.o.o.o.o.o.o.o.o.o.o.o.o.} < % ~ ,.4.4.4.8.0.8.8.9.8.8.4.>.u O 8 | o.| ( h.g.E } o.o.o.o.o.o.o.o.o.o.",
"o.o.o.o.o.o.o.o.o.o.o.o.o.o.o.o.o.o.o.o.o.o.o.o.o.o.o.| 7 < O O O + y s s s s s y O 3 6 } o.o.o.t E h.k.u o.o.o.o.o.o.o.o.o.o.o.",
"o.o.o.o.o.o.o.o.o.o.o.o.o.o.o.o.o.o.o.o.o.o.o.o.o.o.o.o.o.o.} } { { e 7 6 6 6 7 { } o.o.o.o.o.o.X.` x k  .o.o.o.o.o.o.o.o.o.o.o.",
"o.o.o.o.o.o.o.o.o.o.o.o.o.o.o.o.o.o.o.o.o.o.o.o.o.o.o.o.o.o.o.o.o.o.o.o.o.o.o.o.o.o.o.o.o.o.o.o.r x.d o.o.o.o.o.o.o.o.o.o.o.o.o.",
"o.o.o.o.o.o.o.o.o.o.o.o.o.o.o.o.o.o.o.o.o.o.o.o.o.o.o.o.o.o.o.o.o.o.o.o.o.o.o.o.o.o.o.o.o.o.o.o.t f | o.o.o.o.o.o.o.o.o.o.o.o.o.",
"o.o.o.o.o.o.o.o.o.o.o.o.o.o.o.o.o.o.o.o.o.o.o.o.o.o.o.o.o.o.o.o.o.o.o.o.o.o.o.o.o.o.o.o.o.o.o.o.o.o.o.o.o.o.o.o.o.o.o.o.o.o.o.o.",
"o.o.o.o.o.o.o.o.o.o.o.o.o.o.o.o.o.o.o.o.o.o.o.o.o.o.o.o.o.o.o.o.o.o.o.o.o.o.o.o.o.o.o.o.o.o.o.o.o.o.o.o.o.o.o.o.o.o.o.o.o.o.o.o.",
"o.o.o.o.o.o.o.o.o.o.o.o.o.o.o.o.o.o.o.o.o.o.o.o.o.o.o.o.o.o.o.o.o.o.o.o.o.o.o.o.o.o.o.o.o.o.o.o.o.o.o.o.o.o.o.o.o.o.o.o.o.o.o.o.",
"o.o.o.o.o.o.o.o.o.o.o.o.o.o.o.o.o.o.o.o.o.o.o.o.o.o.o.o.o.o.o.o.o.o.o.o.o.o.o.o.o.o.o.o.o.o.o.o.o.o.o.o.o.o.o.o.o.o.o.o.o.o.o.o.",
"o.o.o.o.o.o.o.o.o.o.o.o.o.o.o.o.o.o.o.o.o.o.o.o.o.o.o.o.o.o.o.o.o.o.o.o.o.o.o.o.o.o.o.o.o.o.o.o.o.o.o.o.o.o.o.o.o.o.o.o.o.o.o.o.",
"o.o.o.o.o.o.o.o.o.o.o.o.o.o.o.o.o.o.o.o.o.o.o.o.o.o.o.o.o.o.o.o.o.o.o.o.o.o.o.o.o.o.o.o.o.o.o.o.o.o.o.o.o.o.o.o.o.o.o.o.o.o.o.o.",
"o.o.o.o.o.o.o.o.o.o.o.o.o.o.o.o.o.o.o.o.o.o.o.o.o.o.o.o.o.o.o.o.o.o.o.o.o.o.o.o.o.o.o.o.o.o.o.o.o.o.o.o.o.o.o.o.o.o.o.o.o.o.o.o.",
"o.o.o.o.o.o.o.o.o.o.o.o.o.o.o.o.o.o.o.o.o.o.o.o.o.o.o.o.o.o.o.o.o.o.o.o.o.o.o.o.o.o.o.o.o.o.o.o.o.o.o.o.o.o.o.o.o.o.o.o.o.o.o.o."
};
