/* XPM */
static char *player1709487783[] = {
/* columns rows colors chars-per-pixel */
"64 64 230 2 ",
"   c #170D07",
".  c #09160B",
"X  c #051D0A",
"o  c #18130D",
"O  c #110F10",
"+  c #0B1415",
"@  c #0A171D",
"#  c #141615",
"$  c #181716",
"%  c #13151D",
"&  c #1D1C1B",
"*  c #27180B",
"=  c #34180A",
"-  c #231A12",
";  c #261D18",
":  c #07280E",
">  c #0A2617",
",  c #17291A",
"<  c #083919",
"1  c #153D12",
"2  c #342E09",
"3  c #2B2115",
"4  c #2C231A",
"5  c #362516",
"6  c #0C1523",
"7  c #0B1924",
"8  c #0C192C",
"9  c #171925",
"0  c #141B25",
"q  c #151D2D",
"w  c #0B1C33",
"e  c #0B1E3A",
"r  c #131E34",
"t  c #241F24",
"y  c #0D2622",
"u  c #1E232F",
"i  c #0C3F21",
"p  c #0E2436",
"a  c #0D213C",
"s  c #182335",
"d  c #14233D",
"f  c #262622",
"g  c #292827",
"h  c #342D25",
"j  c #392926",
"k  c #203122",
"l  c #3B3325",
"z  c #3A3527",
"x  c #34342D",
"c  c #272938",
"v  c #352C36",
"b  c #383433",
"n  c #3D3C35",
"m  c #34353B",
"M  c #522E0C",
"N  c #472A17",
"B  c #4B3617",
"V  c #573B16",
"C  c #55351E",
"Z  c #6D310A",
"A  c #68361D",
"S  c #532B27",
"D  c #473729",
"F  c #553724",
"G  c #473B34",
"H  c #643B22",
"J  c #683D26",
"K  c #713F23",
"L  c #643E39",
"P  c #06441C",
"I  c #04551C",
"U  c #234410",
"Y  c #094A25",
"T  c #124627",
"R  c #095828",
"E  c #15502E",
"W  c #0C5D33",
"Q  c #195637",
"!  c #30463B",
"~  c #09652F",
"^  c #06752D",
"/  c #0B6A39",
"(  c #16673D",
")  c #087636",
"_  c #017E32",
"`  c #037E3B",
"'  c #0A7A3C",
"]  c #18773F",
"[  c #5C540F",
"{  c #5A4214",
"}  c #6A450D",
"|  c #72450D",
" . c #7D540E",
".. c #694315",
"X. c #75431D",
"o. c #79431F",
"O. c #775813",
"+. c #40412F",
"@. c #574229",
"#. c #4B4331",
"$. c #4B4935",
"%. c #47443C",
"&. c #544436",
"*. c #524B3C",
"=. c #6B4527",
"-. c #63432C",
";. c #734424",
":. c #794423",
">. c #774A27",
",. c #764228",
"<. c #634E3D",
"1. c #744D34",
"2. c #735639",
"3. c #0D2343",
"4. c #0D264B",
"5. c #0C284F",
"6. c #122443",
"7. c #192943",
"8. c #132A4D",
"9. c #0B2952",
"0. c #142C50",
"q. c #313845",
"w. c #3B5547",
"e. c #146A40",
"r. c #077942",
"t. c #127C42",
"y. c #484743",
"u. c #514E47",
"i. c #585547",
"p. c #52514F",
"a. c #5D5C4C",
"s. c #5C5B58",
"d. c #665948",
"f. c #635C4D",
"g. c #635F53",
"h. c #66614F",
"j. c #666455",
"k. c #6C6453",
"l. c #64645B",
"z. c #6C6658",
"x. c #6B6A5A",
"c. c #746955",
"v. c #736B5A",
"b. c #76735B",
"n. c #635A63",
"m. c #5F6762",
"M. c #696765",
"N. c #6B6964",
"B. c #6F7064",
"V. c #7B7464",
"C. c #78766A",
"Z. c #767674",
"A. c #8D3E0A",
"S. c #87590B",
"D. c #914D11",
"F. c #A44A0F",
"G. c #A6510B",
"H. c #A44C18",
"J. c #A65614",
"K. c #B75715",
"L. c #A07009",
"P. c #B27709",
"I. c #B27A18",
"U. c #924F28",
"Y. c #865D3D",
"T. c #C85E0A",
"R. c #E2570C",
"E. c #E96514",
"W. c #875744",
"Q. c #836548",
"!. c #826C51",
"~. c #857659",
"^. c #997B5B",
"/. c #837C6B",
"(. c #867C6A",
"). c #00802E",
"_. c #008132",
"`. c #02823B",
"'. c #038D3B",
"]. c #01923B",
"[. c #088742",
"{. c #12894A",
"}. c #059845",
"|. c #0A9649",
" X c #0A9D4D",
".X c #0D9951",
"XX c #119051",
"oX c #728A7A",
"OX c #AA8F29",
"+X c #C88909",
"@X c #DA960B",
"#X c #D48D12",
"$X c #DB9D1A",
"%X c #E0980A",
"&X c #DDA519",
"*X c #FBAC05",
"=X c #FAA508",
"-X c #F9B207",
";X c #E8AA12",
":X c #F1AC13",
">X c #F4B113",
",X c #D4B827",
"<X c #85826C",
"1X c #8A826E",
"2X c #97866B",
"3X c #93896D",
"4X c #878576",
"5X c #8D8572",
"6X c #8C8B73",
"7X c #938674",
"8X c #928974",
"9X c #938C79",
"0X c #7FB399",
"qX c #878585",
"wX c #9C9382",
"eX c #958B90",
"rX c #9A9997",
"tX c #A2A199",
"yX c #A7A6A7",
"uX c #ADB1AC",
"iX c #B9B6AE",
"pX c #B5B4B8",
"aX c #9CC1AF",
"sX c #C9C9C9",
"dX c #D2CFD0",
"fX c #D6D6D4",
"gX c #D9D6D6",
"hX c #DBDAD6",
"jX c #DBDADB",
"kX c #F6F3EB",
/* pixels */
"9.9.9.9.9.9.9.9.9.9.9.9.9.9.9.9.9.9.9.9.9.9.9.9.9.9.9.9.9.9.9.9.9.9.9.9.9.9.9.9.9.9.9.9.9.9.9.9.9.9.9.9.9.9.9.9.9.9.9.9.9.9.9.9.",
"9.9.9.9.9.9.9.9.9.9.9.9.9.9.9.9.9.9.9.9.9.9.9.9.9.9.9.9.9.9.9.9.9.9.9.9.9.9.9.9.9.9.9.9.9.9.9.9.9.9.9.9.9.9.9.9.9.9.9.9.9.9.9.9.",
"9.9.9.9.9.9.9.9.9.9.9.9.9.9.9.9.9.9.9.9.9.9.9.9.9.9.9.9.9.9.9.9.9.9.9.9.9.9.9.9.9.9.9.9.9.9.9.9.9.9.9.9.9.9.9.9.9.9.9.9.9.9.9.9.",
"9.9.9.9.9.9.9.9.9.9.9.9.9.9.9.9.9.9.9.9.9.9.9.9.9.9.9.9.9.9.9.9.9.9.9.9.9.9.9.9.9.9.9.9.9.9.9.9.9.9.9.9.9.9.9.9.9.9.9.9.9.9.9.9.",
"9.9.9.9.9.9.9.9.9.9.9.9.9.9.9.9.9.9.9.9.9.9.9.9.9.9.9.9.9.9.9.9.9.9.9.9.9.9.9.9.9.9.9.9.9.9.9.9.9.9.9.9.9.9.9.9.9.9.9.9.9.9.9.9.",
"9.9.9.9.9.9.9.9.9.9.9.9.9.9.9.9.9.9.9.9.9.9.9.9.9.9.9.9.9.9.9.9.9.9.9.9.9.9.9.9.9.9.9.9.9.9.9.9.9.9.9.9.9.9.9.9.9.9.9.9.9.9.9.9.",
"9.9.9.9.9.9.9.9.9.9.9.9.9.9.9.9.9.9.9.9.9.9.9.9.9.9.9.9.9.9.9.9.9.9.9.9.9.9.9.9.9.9.9.9.9.9.9.9.9.9.9.9.9.9.9.9.9.9.9.9.9.9.9.9.",
"9.9.9.9.9.9.9.9.9.9.9.9.9.9.9.9.9.9.9.9.9.9.9.9.9.9.9.9.9.9.9.9.9.9.9.9.9.9.9.9.9.9.9.9.9.9.9.9.9.9.9.9.9.9.9.9.9.9.9.9.9.9.9.9.",
"9.9.9.9.9.9.9.9.9.9.9.9.9.9.9.9.9.9.9.9.9.9.9.9.9.9.9.9.9.9.9.9.3.q 4.9.9.9.9.9.9.9.9.9.9.9.9.9.9.9.9.9.9.9.9.9.9.9.9.9.9.9.9.9.",
"9.9.9.9.9.9.9.9.9.9.9.9.9.9.9.9.9.9.9.9.9.9.9.9.9.9.9.9.9.9.9.9.7 Q > 5.9.9.9.9.9.9.9.9.9.9.9.9.9.9.9.9.9.9.9.9.9.9.9.9.9.9.9.9.",
"9.9.9.9.9.9.9.9.9.9.9.9.9.9.9.9.9.9.9.9.9.9.9.9.9.9.9.9.9.9.9.9.d XXe.e 9.9.9.0.9.9.9.9.9.9.9.9.9.9.9.9.9.9.9.9.9.9.9.9.9.9.9.9.",
"9.9.9.9.9.9.9.9.9.9.9.9.9.9.9.9.9.9.9.9.9.9.9.9.9.9.9.9.9.9.9.a # ' .Xy 0 % 0 q a 5.9.9.9.9.9.9.9.9.9.9.9.9.9.9.9.9.9.9.9.9.9.9.",
"9.9.9.9.9.9.9.9.9.9.9.9.9.9.9.9.9.9.9.9.9.9.9.9.9.9.9.9.9.9.9.a Y )  X' {.' t.( T y w 5.9.9.9.9.9.9.9.9.9.9.9.9.9.9.9.9.9.9.9.9.",
"9.9.9.9.9.9.9.9.9.9.9.9.9.9.9.9.9.9.9.9.9.9.9.9.9.9.9.9.9.5.3.7 R  X}.].].].].'.{.{.E 7 3.9.9.9.9.9.9.9.9.9.9.9.9.9.9.9.9.9.9.9.",
"9.9.9.9.9.9.9.9.9.9.9.9.9.9.9.9.9.9.9.9.9.9.9.9.9.9.9.9.9.4.+ R {.'.)._.).)._._._.` [.W y 8.9.9.9.9.9.9.9.9.9.9.9.9.9.9.9.9.9.9.",
"9.9.9.9.9.9.9.9.9.9.9.9.9.9.9.9.9.9.9.9.9.9.9.9.9.9.9.9.5.6 < |.'._ ).)._._._.`._ _ ` r.i e 9.9.9.9.9.9.9.9.9.9.9.9.9.9.9.9.9.9.",
"9.9.9.9.9.9.9.9.9.9.9.9.9.9.9.9.9.9.9.9.9.9.9.9.9.9.9.9.3.. ' }._._.)._._.` `.` r.[.[.r.~ 7 9.9.9.9.9.9.9.9.9.9.9.9.9.9.9.9.9.9.",
"9.9.9.9.9.9.9.9.9.9.9.9.9.9.9.9.9.9.9.9.9.9.9.9.9.9.9.9.3.>  X'._._._._._ ` ~ P < Y ) [.t.> e 9.9.9.9.9.9.9.9.9.9.9.9.9.9.9.9.9.",
"9.9.9.9.9.9.9.9.9.9.9.9.9.9.9.9.9.9.9.9.9.9.9.9.9.9.9.9.a < }._._.)._._.` E k qXrXB.T ( W ! w.7.9.9.9.9.9.9.9.9.9.9.9.9.9.9.9.9.",
"9.9.9.9.9.9.9.9.9.9.9.9.9.9.9.9.9.9.9.9.9.9.9.9.9.9.9.9.w P [._.).).).).) , rXfXjXfXrXy w.uXsXrX7.9.9.9.9.9.9.9.9.9.9.9.9.9.9.9.",
"9.9.9.9.9.9.9.9.9.9.9.9.9.9.9.9.9.9.9.9.9.9.9.9.9.9.9.9.6 Y ) ^ _ ).).).R p.fXhXjXjXhXN.4XjXjXsXqX6.9.9.9.5.9.9.9.9.9.9.9.9.9.9.",
"9.9.9.9.9.9.9.9.9.9.9.9.9.9.9.9.9.9.9.9.9.9.9.9.9.9.9.9.6 X : I _ _ ).).< oXfXgXyXrXfXiXZ.hXsXm yXd 9.9.9.6.6 d 5.9.9.9.9.9.9.9.",
"9.9.9.9.9.9.9.9.9.9.9.9.9.9.9.9.9.9.9.9.9.9.9.9.9.9.9.w . W `.`._.).).).P Z.hXjXZ.f uXpXh pXgXeXeXr 9.5.6.{ OXV 9 9.9.9.9.9.9.9.",
"9.9.9.9.9.9.9.9.9.9.9.9.9.9.9.9.9.9.9.9.9.9.9.9.9.9.3.> ] [._ _ _ ).).).R x fXjXsXuXfXn.+.G tXdXp.6.5.d V ;X>X;XN 6.9.9.9.9.9.9.",
"9.9.9.9.9.9.9.9.9.9.9.9.9.9.9.9.9.9.9.9.9.9.9.9.9.9.d Y  X_._._.).).).).^ 1 Z.fXjXjXeX{ ,XO.B @.B C N { &X*X=X$XV 3.5.9.9.9.9.9.",
"9.9.9.9.9.9.9.9.9.9.9.9.9.9.9.9.9.9.9.9.9.9.9.9.9.9.6 / }._._._.).).).).' Y + M.yXz.V @X-X>X;X=X:X=XOX&X-X=X#X} 9 9.9.9.9.9.9.9.",
"9.9.9.9.9.9.9.9.9.9.9.9.9.9.9.9.9.9.9.9.9.9.9.9.9.9.q W  X_._._._ ).)._ ^ U {   *  .%X=X*X=X=X=X*X-X:X@X#XS.N q 9.9.9.9.9.9.9.9.",
"9.9.9.9.9.9.9.9.9.9.9.9.9.9.9.9.9.9.9.9.9.9.9.9.9.5.q i  X_._._ ).).).).^ [ $XI.| } D.P.+X+X+X+XP.L.S.{ j s 8.9.9.9.9.9.9.9.9.9.",
"9.9.9.9.9.9.9.9.9.9.9.9.9.8.9.9.9.9.9.9.9.9.9.9.9.9.6.> XX'.`._ _.).).).^ 2 #X@X@X+XI.D.| } { { = 3 d 3.9.9.9.9.9.9.9.9.9.9.9.9.",
"9.9.9.9.9.9.9.9.9.9.9.3.6 % 6.9.9.9.9.9.9.9.9.9.9.9.9.w < ' r.` _ ).).).^ U  .+X#X@X%X@X+XI.O.5 q 4.9.9.9.9.9.9.9.9.9.9.9.9.9.9.",
"9.9.9.9.9.9.9.9.9.9.9.0 y.s.f 3.9.9.9.9.9.9.9.9.9.9.9.9.w > Y R / ^ _ _ ' ~ 2 {  .S. .| N * 0 6.9.9.9.9.9.9.9.9.9.9.9.9.9.9.9.9.",
"9.9.9.9.9.9.9.9.9.9.e m Z.Z.b 3.9.0.9.9.9.9.9.9.9.9.9.9.9.4.8 . X : < P P P X . - $ 9 8 a 4.9.9.9.9.9.9.9.9.9.9.9.9.9.9.9.9.9.9.",
"9.9.9.9.9.9.9.9.9.9.@ s.M.Z.f g f g 0 8.9.9.9.9.9.9.9.9.9.9.9.@ , E i . + e 3.4.9.9.9.9.5.9.9.9.9.9.9.9.9.9.9.9.9.9.9.9.9.9.9.9.",
"9.9.9.9.9.9.9.9.4.e # j.l.n # y.M.Z.x d 9.9.9.9.9.9.9.4.9.9.9.p > r.r.T + 5.9.9.9.9.9.9.9.9.9.9.9.9.9.9.9.9.9.9.9.9.9.9.9.9.9.9.",
"9.9.9.9.9.9.9.9.e %.y.y.u.o y.N.M.s.c 5.9.9.9.9.9.9.9.5.w 9 f & X ` r./ > 3.5.9.9.9.9.9.9.9.9.9.9.9.9.9.9.9.9.9.9.9.9.9.9.9.9.9.",
"9.9.9.9.9.9.9.9.6 M.x.n y.# k.! c e 3.9.9.9.9.9.8.d q g F F -.@.$ oX0XaXm.w 9.9.9.9.9.9.9.9.9.9.9.9.9.9.9.9.9.9.9.9.9.9.9.9.9.9.",
"9.9.9.9.9.9.9.9.w p.s.x l.4 ! 0 4.5.9.9.9.9.6.q ; b f.c.2.:.:.;.5 iXkXkXiX0 9.9.9.9.9.9.9.9.9.9.9.9.9.9.9.9.9.9.9.9.9.9.9.9.9.9.",
"9.9.9.9.9.9.9.9.4.g l.h h.x.v.i.m s 8 8 q # & *.C.(.d.2.;.o.o.:.A 1.W.W.1.4 6.9.9.9.9.9.9.9.9.9.9.9.9.9.9.9.9.9.9.9.9.9.9.9.9.9.",
"9.9.9.9.9.9.9.9.9.3.w.g.k.C.4X4X4XC.p.%.i.B.4X8X/.#.c.Q.=.:.:.:.:.>.>.,.=.F % 5.9.9.9.9.9.9.9.9.9.9.9.9.9.9.9.9.9.9.9.9.9.9.9.9.",
"9.9.9.9.9.9.9.9.9.4.4.m i.oX6X6X6X6X6X6X8X6X/.d.! j.2X!.Q.^.Y.>.:.X.:.,.,.-.o 3.9.9.9.9.9.9.9.9.9.9.9.9.9.9.9.9.9.9.9.9.9.9.9.9.",
"9.9.9.9.9.9.9.9.9.9.5.a n v.6X6X6X6X6X6X6Xk.l a.V.6X8X2X2X2XY.>.>.X.A K ;.=.3 e 5.9.9.9.9.9.9.9.9.9.9.9.9.9.9.9.9.9.9.9.9.9.9.9.",
"9.9.9.9.9.9.4.4.d s j S 3 i.(.1X6X6X6X6X<X+.$.<X7X9X9X7X2X2X~.^.Y.:.M A =.=.4 p 9.9.9.9.9.9.9.9.9.9.9.9.9.9.9.9.9.9.9.9.9.9.9.9.",
"9.9.9.9.9.c S X.D.D.T.E.M j l g $.f.1Xb.l f.c.v.5X9X7X9X8X8X3X2XQ.;.N A ,.-.3 w 9.9.9.9.9.9.9.9.9.9.9.9.9.9.9.9.9.9.9.9.9.9.9.9.",
"9.9.9.9.3.N J.G.F.H.T.R.K.2 j a.a.i.$.*.l z.5XwX9X9X3X3X2X3X3X2XQ.K = H ,.K * e 9.9.9.9.9.9.9.9.9.9.9.9.9.9.9.9.9.9.9.9.9.9.9.9.",
"9.9.9.7.<.A.A.H.,.v q.v j = d.1X1Xl ! *.G 4 z k.1X9X8X3X3X3X3X2X!.-.= K K V * e 9.9.9.9.9.9.9.9.9.9.9.9.9.9.9.9.9.9.9.9.9.9.9.9.",
"9.9.5.j U.N A G 4.5.9.9.3.$ d.1X3X*.&.8XwXwX/.f.h.V.7X3X3X3X3X3X~.$.5 ,.K F o 4.9.9.9.9.9.9.9.9.9.9.9.9.9.9.9.9.9.9.9.9.9.9.9.9.",
"9.9.9.4.4.5.7.9.4.c v c S S ; h.8X1X&.&.c.(./.8X9X3X5X8X3X3X7X1Xc.* C ,.H N O 4.9.9.9.9.9.9.9.9.9.9.9.9.9.9.9.9.9.9.9.9.9.9.9.9.",
"9.9.9.9.9.9.9.9.e A.R.T.H.L # o G V.1Xc.G #.i.k.b.b.V././.<XV.c.D * =.J F 5 8 9.9.9.9.9.9.9.9.9.9.9.9.9.9.9.9.9.9.9.9.9.9.9.9.9.",
"9.9.9.9.9.9.9.9.5.Z R.H.c 4.d O h G (.8X9Xv.#.5 l #.*.f.h.g.*.; * C J F D # 9.9.9.9.9.9.9.9.9.9.9.9.9.9.9.9.9.9.9.9.9.9.9.9.9.9.",
"9.9.9.9.9.9.9.9.9.t K.H.q.9.9.6 4 f.(.<X5X9X9X1Xv.$.l 4 - - 5 l F C C F 4 e 9.9.9.9.9.9.9.9.9.9.9.9.9.9.9.9.9.9.9.9.9.9.9.9.9.9.",
"9.9.9.9.9.9.9.9.9.d U.F.:.7.9.4.6 - u.z.v.V././././.(.V.z.c.v.v.d.<.i.j 9 4.9.9.9.9.9.9.9.9.9.9.9.9.9.9.9.9.9.9.9.9.9.9.9.9.9.9.",
"9.9.9.9.9.9.9.9.9.8.J F.H.L 5.9.9.r $ l u.a.j.j.j.j.j.z.j.f.g.a.i.G ; 6 4.9.9.9.9.9.9.9.9.9.9.9.9.9.9.9.9.9.9.9.9.9.9.9.9.9.9.9.",
"9.9.9.9.9.9.9.9.9.9.j K.H...d 9.9.5.3.w 9 $ f g x x x x f $ # + # 6 w 5.9.9.9.9.9.9.9.9.9.9.9.9.9.9.9.9.9.9.9.9.9.9.9.9.9.9.9.9.",
"9.9.9.9.9.9.9.9.9.9.7.N Z U.8.9.9.9.9.9.9.5.3.e w w w e a 4.3.4.5.9.9.9.9.9.9.9.9.9.9.9.9.9.9.9.9.9.9.9.9.9.9.9.9.9.9.9.9.9.9.9.",
"9.9.9.9.9.9.9.9.9.9.9.9.m U.u 9.9.9.9.9.9.9.9.9.9.9.9.9.9.9.9.9.9.9.9.9.9.9.9.9.9.9.9.9.9.9.9.9.9.9.9.9.9.9.9.9.9.9.9.9.9.9.9.9.",
"9.9.9.9.9.9.9.9.9.9.9.9.5.v d 9.9.9.9.9.9.9.9.9.9.9.9.9.9.9.9.9.9.9.9.9.9.9.9.9.9.9.9.9.9.9.9.9.9.9.9.9.9.9.9.9.9.9.9.9.9.9.9.9.",
"9.9.9.9.9.9.9.9.9.9.9.9.9.9.9.9.9.9.9.9.9.9.9.9.9.9.9.9.9.9.9.9.9.9.9.9.9.9.9.9.9.9.9.9.9.9.9.9.9.9.9.9.9.9.9.9.9.9.9.9.9.9.9.9.",
"9.9.9.9.9.9.9.9.9.9.9.9.9.9.9.9.9.9.9.9.9.9.9.9.9.9.9.9.9.9.9.9.9.9.9.9.9.9.9.9.9.9.9.9.9.9.9.9.9.9.9.9.9.9.9.9.9.9.9.9.9.9.9.9.",
"9.9.9.9.9.9.9.9.9.9.9.9.9.9.9.9.9.9.9.9.9.9.9.9.9.9.9.9.9.9.9.9.9.9.9.9.9.9.9.9.9.9.9.9.9.9.9.9.9.9.9.9.9.9.9.9.9.9.9.9.9.9.9.9.",
"9.9.9.9.9.9.9.9.9.9.9.9.9.9.9.9.9.9.9.9.9.9.9.9.9.9.9.9.9.9.9.9.9.9.9.9.9.9.9.9.9.9.9.9.9.9.9.9.9.9.9.9.9.9.9.9.9.9.9.9.9.9.9.9.",
"9.9.9.9.9.9.9.9.9.9.9.9.9.9.9.9.9.9.9.9.9.9.9.9.9.9.9.9.9.9.9.9.9.9.9.9.9.9.9.9.9.9.9.9.9.9.9.9.9.9.9.9.9.9.9.9.9.9.9.9.9.9.9.9.",
"9.9.9.9.9.9.9.9.9.9.9.9.9.9.9.9.9.9.9.9.9.9.9.9.9.9.9.9.9.9.9.9.9.9.9.9.9.9.9.9.9.9.9.9.9.9.9.9.9.9.9.9.9.9.9.9.9.9.9.9.9.9.9.9.",
"9.9.9.9.9.9.9.9.9.9.9.9.9.9.9.9.9.9.9.9.9.9.9.9.9.9.9.9.9.9.9.9.9.9.9.9.9.9.9.9.9.9.9.9.9.9.9.9.9.9.9.9.9.9.9.9.9.9.9.9.9.9.9.9.",
"9.9.9.9.9.9.9.9.9.9.9.9.9.9.9.9.9.9.9.9.9.9.9.9.9.9.9.9.9.9.9.9.9.9.9.9.9.9.9.9.9.9.9.9.9.9.9.9.9.9.9.9.9.9.9.9.9.9.9.9.9.9.9.9."
};
