/* XPM */
static char *player_flower1709487783[] = {
/* columns rows colors chars-per-pixel */
"64 64 234 2 ",
"   c #180C06",
".  c #07180B",
"X  c #18130D",
"o  c #110F10",
"O  c #0A151B",
"+  c #151618",
"@  c #1C1C1B",
"#  c #27180B",
"$  c #34180A",
"%  c #241B12",
"&  c #251D19",
"*  c #082E0F",
"=  c #092617",
"-  c #17291A",
";  c #093A1A",
":  c #3D240C",
">  c #2B2115",
",  c #2C231A",
"<  c #362315",
"1  c #0C1523",
"2  c #0B1924",
"3  c #0C192C",
"4  c #171925",
"5  c #141B25",
"6  c #141D2D",
"7  c #0B1C33",
"8  c #0B1E3A",
"9  c #131E34",
"0  c #241F24",
"q  c #0D2622",
"w  c #1E252F",
"e  c #0D3E21",
"r  c #0E2436",
"t  c #0D213C",
"y  c #182335",
"u  c #14233D",
"i  c #262622",
"p  c #292827",
"a  c #342D25",
"s  c #392926",
"d  c #203122",
"f  c #3B3325",
"g  c #3A3527",
"h  c #34342D",
"j  c #272938",
"k  c #352C36",
"l  c #373436",
"z  c #3D3C35",
"x  c #4E280D",
"c  c #472A17",
"v  c #4B3617",
"b  c #563919",
"n  c #6D310A",
"m  c #6B3F0B",
"M  c #68361D",
"N  c #532B27",
"B  c #473729",
"V  c #553724",
"C  c #473B34",
"Z  c #643B22",
"A  c #683D26",
"S  c #713F23",
"D  c #643E39",
"F  c #06451C",
"G  c #04551C",
"H  c #234410",
"J  c #094C26",
"K  c #134425",
"L  c #095828",
"P  c #0C5D33",
"I  c #175332",
"U  c #30463B",
"Y  c #05752D",
"T  c #0B6938",
"R  c #126E36",
"E  c #087637",
"W  c #017F32",
"Q  c #037D3B",
"!  c #0A7A3C",
"~  c #514C0F",
"^  c #5A4214",
"/  c #6A450D",
"(  c #74450D",
")  c #694415",
"_  c #75431D",
"`  c #79431F",
"'  c #755415",
"]  c #40412F",
"[  c #574229",
"{  c #4A4636",
"}  c #524B3C",
"|  c #684429",
" . c #734424",
".. c #794423",
"X. c #774728",
"o. c #634E3D",
"O. c #744D34",
"+. c #735639",
"@. c #79752F",
"#. c #0D2343",
"$. c #0C264B",
"%. c #0C284F",
"&. c #122443",
"*. c #192943",
"=. c #132A4D",
"-. c #0B2952",
";. c #142C50",
":. c #313845",
">. c #49385A",
",. c #334F4D",
"<. c #1C6540",
"1. c #097C43",
"2. c #127C42",
"3. c #337C45",
"4. c #484743",
"5. c #514E47",
"6. c #585547",
"7. c #5D5C4C",
"8. c #4D5553",
"9. c #5C5B58",
"0. c #665948",
"q. c #635C4D",
"w. c #635F53",
"e. c #4E7257",
"r. c #66614F",
"t. c #666455",
"y. c #6C6453",
"u. c #686759",
"i. c #756855",
"p. c #736B5A",
"a. c #76735B",
"s. c #635A63",
"d. c #696765",
"f. c #6B6964",
"g. c #6F7064",
"h. c #7B7464",
"j. c #78766A",
"k. c #767674",
"l. c #8D3E0A",
"z. c #8B590C",
"x. c #914D11",
"c. c #A44A0F",
"v. c #A44C18",
"b. c #A65614",
"n. c #B15511",
"m. c #A07009",
"M. c #B27709",
"N. c #B27A19",
"B. c #924F28",
"V. c #865D3D",
"C. c #C85E0A",
"Z. c #D25F0B",
"A. c #E2570C",
"S. c #D3700C",
"D. c #E96514",
"F. c #8B504C",
"G. c #836548",
"H. c #826C51",
"J. c #997B5B",
"K. c #837C6B",
"L. c #867C6A",
"P. c #AC7674",
"I. c #C2735D",
"U. c #D5596E",
"Y. c #D66875",
"T. c #D7727D",
"R. c #00802E",
"E. c #008132",
"W. c #02823B",
"Q. c #038D3B",
"!. c #01923B",
"~. c #088742",
"^. c #12894A",
"/. c #089948",
"(. c #0D9951",
"). c #119051",
"_. c #728142",
"`. c #728A7A",
"'. c #94912E",
"]. c #B19130",
"[. c #B3A33B",
"{. c #C98B09",
"}. c #DA970B",
"|. c #D48D12",
" X c #DA9C17",
".X c #DDA519",
"XX c #FAA807",
"oX c #F9B207",
"OX c #E8AA12",
"+X c #F1AC13",
"@X c #F4B113",
"#X c #CDAD27",
"$X c #8E9442",
"%X c #B38A58",
"&X c #9BB248",
"*X c #85826C",
"=X c #8A826E",
"-X c #97866B",
";X c #93896D",
":X c #878576",
">X c #8D8572",
",X c #8C8B73",
"<X c #938576",
"1X c #928974",
"2X c #938C79",
"3X c #ACAE61",
"4X c #C19E75",
"5X c #DD6E81",
"6X c #D27584",
"7X c #878585",
"8X c #9C9382",
"9X c #958B90",
"0X c #9A9997",
"qX c #AF9791",
"wX c #80B39A",
"eX c #A2A199",
"rX c #A7A6A7",
"tX c #ADB1AC",
"yX c #B9B6AE",
"uX c #B5B4B8",
"iX c #D98F99",
"pX c #E18191",
"aX c #C7AC86",
"sX c #DD94A4",
"dX c #E69BA7",
"fX c #D5A9A7",
"gX c #E5A2AD",
"hX c #C9C9C9",
"jX c #D2CFD0",
"kX c #D6D6D4",
"lX c #DAD7D6",
"zX c #DBDADB",
"xX c #E0DFDE",
"cX c #F6F3EB",
/* pixels */
"-.-.-.-.-.-.-.-.-.-.-.-.-.-.-.-.-.-.-.-.-.-.-.-.-.-.-.-.-.-.-.-.-.-.-.-.-.-.-.-.-.-.-.-.-.-.-.-.-.-.-.-.-.-.-.-.-.-.-.-.-.-.-.-.",
"-.-.-.-.-.-.-.-.-.-.-.-.-.-.-.-.-.-.-.-.-.-.-.-.-.-.-.-.-.-.-.-.-.-.-.-.-.-.-.-.-.-.-.-.-.-.-.-.-.-.-.-.-.-.-.-.-.-.-.-.-.-.-.-.",
"-.-.-.-.-.-.-.-.-.-.-.-.-.-.-.-.-.-.-.-.-.-.-.-.-.-.-.-.-.-.-.-.-.-.-.-.-.-.-.-.-.-.-.-.-.-.-.-.-.-.-.-.-.-.-.-.-.-.-.-.-.-.-.-.",
"-.-.-.-.-.-.-.-.-.-.-.-.-.-.-.-.-.-.-.-.-.-.-.-.-.-.-.-.-.-.-.-.-.-.-.-.-.-.-.-.-.-.-.-.-.-.-.-.-.-.-.-.-.-.-.-.-.-.-.-.-.-.-.-.",
"-.-.-.-.-.-.-.-.-.-.-.-.-.-.-.-.-.-.-.-.-.-.-.-.-.-.-.-.-.-.-.-.-.-.-.-.-.-.-.-.-.-.-.-.-.-.-.-.-.-.-.-.-.-.-.-.-.-.-.-.-.-.-.-.",
"-.-.-.-.-.-.-.-.-.-.-.-.-.-.-.-.-.-.-.-.-.-.-.-.-.-.-.-.-.-.-.-.-.-.-.-.-.-.-.-.-.-.-.-.-.-.-.-.-.-.-.-.-.-.-.-.-.-.-.-.-.-.-.-.",
"-.-.-.-.-.-.-.-.-.-.-.-.-.-.-.-.-.-.-.-.-.-.-.-.-.-.-.-.-.-.-.-.-.-.-.-.-.-.-.-.-.-.-.-.-.-.-.-.-.-.-.-.-.-.-.-.-.-.-.-.-.-.-.-.",
"-.-.-.-.-.-.-.-.-.-.-.-.-.-.-.-.-.-.-.-.-.-.-.-.-.-.-.-.-.-.-.-.-.-.-.-.-.-.-.-.-.-.-.-.-.-.-.-.-.-.-.-.-.-.-.-.-.-.-.-.-.-.-.-.",
"-.-.-.-.-.-.-.-.-.-.-.-.-.-.-.-.-.-.-.-.-.-.-.-.-.-.-.-.-.-.-.-.-.#.3 #.-.-.-.-.-.-.-.-.-.-.-.-.-.-.-.-.-.-.-.-.-.-.-.-.-.-.-.-.",
"-.-.-.-.-.-.-.-.-.-.-.-.-.-.-.-.-.-.-.-.-.-.-.-.-.-.-.-.-.-.-.-.-.3 I q %.-.-.-.-.-.-.-.-.-.-.-.-.-.-.-.-.-.-.-.-.-.-.-.-.-.-.-.",
"-.-.-.-.-.-.-.-.-.-.-.-.-.-.-.-.-.-.-.-.-.-.-.-.-.-.-.-.-.-.-.-.-.r ).<.t -.-.-.-.-.-.-.-.-.-.-.-.-.-.-.-.-.-.-.-.-.-.-.-.-.-.-.",
"-.-.-.-.-.-.-.-.-.-.-.-.-.-.-.-.-.-.-.-.-.-.-.-.-.-.-.-.-.-.-.-.#.+ ! ).q 4 O 0 6 r $.-.-.-.-.-.-.-.-.-.-.-.-.-.-.-.-.-.-.-.-.-.",
"-.-.-.-.-.-.-.-.-.-.-.-.-.-.-.-.-.-.-.-.-.-.-.-.-.-.-.-.-.-.-.-.t J Y /.! ^.^.! R K q 7 -.-.-.-.-.-.-.-.-.-.-.-.-.-.-.-.-.-.-.-.",
"-.-.-.-.-.-.-.-.-.-.-.-.-.-.-.-.-.-.-.-.-.-.-.-.-.-.-.-.-.-.-.#.O L /./.!.Q.!.!.Q.^.2.I 2 $.-.-.-.-.-.-.-.-.-.-.-.-.-.-.-.-.-.-.",
"-.-.-.-.-.-.-.-.-.-.-.-.-.-.-.-.-.-.-.-.-.-.-.-.-.-.-.-.-.-.#.O L ^.!.E.E.R.R.E.W.E.E.~.I q -.-.-.-.-.-.-.-.-.-.-.-.-.-.-.-.-.-.",
"-.-.-.-.-.-.-.-.-.-.-.-.-.-.-.-.-.-.-.-.-.-.-.-.-.-.-.-.-.-.1 ; /.W.E.R.R.E.E.E.W.Q W Q ~.e 7 -.-.-.-.-.-.-.-.-.-.-.-.-.-.-.-.-.",
"-.-.-.-.-.-.-.-.-.-.-.-.-.-.-.-.-.-.-.-.-.-.-.-.-.-.-.-.-.$.. 1./.E.E.R.E.E.E.E.~.1.W.Q 1.T O $.-.-.-.-.-.-.-.-.-.-.-.-.-.-.-.-.",
"-.-.-.-.-.-.-.-.-.-.-.-.-.-.-.-.-.-.-.-.-.-.-.-.-.-.-.-.-.#.* (.Q.E.E.E.E.Q W.P ; ; J ! 1.1.= t -.-.-.-.-.-.-.-.-.-.-.-.-.-.-.-.",
"-.-.-.-.-.-.-.-.-.-.-.-.-.-.-.-.-.-.-.-.-.-.-.-.-.-.-.-.-.u ; /.R.R.R.E.E.! I d 7X0Xg.K 1.P U 8.*.;.-.-.-.-.-.-.-.-.-.-.-.-.-.-.",
"-.-.-.-.-.-.-.-.-.-.-.-.-.-.-.-.-.-.-.-.-.-.-.-.-.-.-.-.%.7 F Q.E.R.E.R.E.Y - 0XkXlXlX0X- ,.tXhX0X*.-.-.-.-.-.-.-.-.-.-.-.-.-.-.",
"-.-.-.-.-.-.-.-.-.-.-.-.-.-.-.-.-.-.-.-.-.-.-.-.-.-.-.-.-.2 K ! Y E.R.R.W L } kXlXlXlXzXf.7XzXzXhX7X&.-.-.-.-.-.-.-.-.-.-.-.-.-.",
"-.-.-.-.-.-.-.-.-.-.-.-.-.-.-.-.-.-.-.-.-.-.-.-.-.-.-.-.%.O . * G Y R.R.W F `.kXzXtX0XlXtXk.zXhXl rX9 -.-.-.#.+ r -.-.-.-.-.-.-.",
"-.-.-.-.-.-.-.-.-.-.-.-.-.-.-.-.-.-.-.-.-.-.-.-.-.-.-.-.8 . P W.E.W R.R.W F k.lXxXk.i tXuXj yXlX9X9X8 -.-.*.^ ].^ 4 -.-.-.-.-.-.",
"-.-.-.-.-.-.-.-.-.-.-.-.-.-.-.-.-.-.-.-.-.-.-.-.-.-.-.$.= R ~.W W R.R.R.W L h kXzXhXtXlXs.v { eXhX8.*.$.u b OX@X.Xc &.-.-.-.-.-.",
"-.-.-.-.-.-.-.-.-.-.-.-.-.-.-.-.-.-.-.-.-.-.-.-.-.-.-.9 L (.R.E.W R.R.R.W E * k.kXzXzX9X^ #X' v [ v [ : b .XoXXX Xb #.%.-.-.-.-.",
"-.-.-.-.-.-.-.-.-.-.-.-.-.-.-.-.-.-.-.-.-.-.-.-.-.-.-.3 T /.E.E.W E.R.R.R.E L . d.eXf.b  XoXoX+X+X+X@XN.OXXX+X|.( 4 -.-.-.-.-.-.",
"-.-.-.-.-.-.-.-.-.-.-.-.-.-.-.-.-.-.-.-.-.-.-.-.-.-.-.4 P /.E.E.E.W R.R.R.Y H ) # # ' }.oXXXXXXXXXXXoX+X}.|.z.x y %.-.-.-.-.-.-.",
"-.-.-.-.-.-.-.-.-.-.-.-.-.-.-.-.-.-.-.-.-.-.-.-.-.-.-.9 F (.E.E.W W R.R.R.Y ~  XN.( m x.M.S.{.{.{.M.m.z.^ a 9 $.%.-.-.-.-.-.-.-.",
"-.-.-.-.-.-.-.-.-.-.-.-.-.-.%.-.-.-.-.-.-.-.-.-.-.-.-.#.O ).~.Q E.E.R.R.R.R ~ {.}.}.|.N.x./ / ) v $ > r $.%.-.-.-.-.-.-.-.-.-.-.",
"-.-.-.-.-.-.-.-.-.-.-.-.$.1 4 9 -.-.-.-.-.-.-.-.-.-.-.-.7 ; ! Q W.E.R.3.P.T.Y.I.].|.}.}.#X[.[.$X_.w %.-.-.-.-.-.-.-.-.-.-.-.-.-.",
"-.-.-.-.-.-.-.-.-.-.-.-.+ 4.9.0 $.-.-.-.-.-.-.-.-.-.-.-.%.r = J L E 3.iXpXT.T.%X&X'.'.@.) x % 5 &.-.-.-.-.-.-.-.-.-.-.-.-.-.-.-.",
"-.-.-.-.-.-.-.-.-.-.-.8 l k.`.l #.%.;.%.-.-.-.-.-.-.-.-.-.-.#.3 . . } iXdXgX3X&X&X@.@ + 3 t %.%.-.-.-.-.-.-.-.-.-.-.-.-.-.-.-.-.",
"-.-.-.-.-.-.-.-.-.-.-.O 8.d.j.i 9 p p 4 =.-.-.-.-.-.-.-.-.-.-.-.1 = <XgXgXfXaX4XP.i.=.%.-.-.-.-.-.-.-.-.-.-.-.-.-.-.-.-.-.-.-.-.",
"-.-.-.-.-.-.-.-.-.-.8 O w.d.z o 4.d.j.h #.-.-.-.-.-.-.-.-.-.-.-.r = qXfXgXgXT.U.U.9.%.-.-.-.-.-.-.-.-.-.-.-.-.-.-.-.-.-.-.-.-.-.",
"-.-.-.-.-.-.-.-.-.8 4.{ 4.6.X 5.d.d.t.j $.-.-.-.-.-.;.-.$.8 4 i @ . e.P.6XdX5XY.%X,.-.-.-.-.-.-.-.-.-.-.-.-.-.-.-.-.-.-.-.-.-.-.",
"-.-.-.-.-.-.-.-.-.5 u.f.z 4.X u.l p r $.%.-.-.-.-.=.u 4 p B V Z [ > `.wXfX6XF.>.8.-.-.-.-.-.-.-.-.-.-.-.-.-.-.-.-.-.-.-.-.-.-.-.",
"-.-.-.-.-.-.-.-.-.7 5.9.f u.a U 5 $.$.-.%.-.%.&.6 @ f q.a.+.X... .< yXcXcXfX9 -.-.-.-.-.-.-.-.-.-.-.-.-.-.-.-.-.-.-.-.-.-.-.-.-.",
"-.-.-.-.-.-.-.-.-.$.j u.d 9.u.u.6.,.9 3 3 y + + 4.K.=X0.+.X.` ` ..M O.F.F.0., #.-.-.-.-.-.-.-.-.-.-.-.-.-.-.-.-.-.-.-.-.-.-.-.-.",
"-.-.-.-.-.-.-.-.-.-.#.4.t.u.j.:X:X:Xf.6.{ 6.g.:X2X*Xz i.G.| X....... .X.X.O.V O %.-.-.-.-.-.-.-.-.-.-.-.-.-.-.-.-.-.-.-.-.-.-.-.",
"-.-.-.-.-.-.-.-.-.-.-.&.l o.`.,X,X,X,X,X,X1X2Xh.7.] t.-XH.+.%XV.....` ..S  .| X $.-.-.-.-.-.-.-.-.-.-.-.-.-.-.-.-.-.-.-.-.-.-.-.",
"-.-.-.-.-.-.-.-.-.-.-.%.&.z p.,X,X,X,X,X,X,Xy.g 7.j.,X1X-X-X-XV.O.X.S M  . .| > t %.-.-.-.-.-.-.-.-.-.-.-.-.-.-.-.-.-.-.-.-.-.-.",
"-.-.-.-.-.-.-.-.%.&.9 s N % 6.K.*X,X,X,X,X*X] } K.<X2X1X<X1X-XH.J.V._ x Z  .| , 7 -.-.-.-.-.-.-.-.-.-.-.-.-.-.-.-.-.-.-.-.-.-.-.",
"-.-.-.-.-.%.j N m x.v.n.D.x < z , { r.*Xu.f r.p.p.>X2X1X1X1X1X;X-XG...c Z  .| < 7 -.-.-.-.-.-.-.-.-.-.-.-.-.-.-.-.-.-.-.-.-.-.-.",
"-.-.-.-.%.$.c b.c.c.v.C.A.n.c a r.r.6.{ } f p.>X8X2X1X;X-X-X;X;X-XG...$ Z X.A # 7 -.-.-.-.-.-.-.-.-.-.-.-.-.-.-.-.-.-.-.-.-.-.-.",
"-.-.-.-.*.D l.l.v.S C :.k s $ 7.=X*Xf g } ] , g y.>X1X-X;X;X;X;X;Xi.[ $  . .M # t -.-.-.-.-.-.-.-.-.-.-.-.-.-.-.-.-.-.-.-.-.-.-.",
"-.-.-.%.f B.N S C %.-.-.$.$.4 0.=X,X} } 2X8X8X>Xq.0.K.>X,X;X;X;X-X*X[ : S S V X $.-.-.-.-.-.-.-.-.-.-.-.-.-.-.-.-.-.-.-.-.-.-.-.",
"-.-.-.-.$.$.$.#.-.-.j k k N c > y.1X>X} { i.L.L.1X1X=X>X1X;X;X=X-Xi.X b X.A c o %.-.-.-.-.-.-.-.-.-.-.-.-.-.-.-.-.-.-.-.-.-.-.-.",
"-.-.-.-.%.-.-.-.-.8 l.A.Z.v.| o   C g.>Xi.C [ 6.y.a.a.K.K.L.L.K.r.v # | A V , 3 -.-.-.-.-.-.-.-.-.-.-.-.-.-.-.-.-.-.-.-.-.-.-.-.",
"-.-.-.-.-.-.-.-.-.$.n A.v.j %.#.  a C K.<X,Xp.{ < f { } q.r.r.} # # N Z b B + -.-.-.-.-.-.-.-.-.-.-.-.-.-.-.-.-.-.-.-.-.-.-.-.-.",
"-.-.-.-.-.-.-.-.-.-.p v.b.:.%.%.3 , q.K.L.>X2X2X,Xp.} f > % % , B V b b D s 3 -.-.-.-.-.-.-.-.-.-.-.-.-.-.-.-.-.-.-.-.-.-.-.-.-.",
"-.-.-.-.-.-.-.-.-.-.u x.v.S =.-.%.5 % } p.p.h.h.K.L.K.K.h.p.y.p.p.0.o.6.p + -.-.-.-.-.-.-.-.-.-.-.-.-.-.-.-.-.-.-.-.-.-.-.-.-.-.",
"-.-.-.-.-.-.-.-.-.-.$.S v.v.A -.-.-.7 + a 5.q.t.t.t.t.t.u.u.7.r.q.6.C & 1 $.-.-.-.-.-.-.-.-.-.-.-.-.-.-.-.-.-.-.-.-.-.-.-.-.-.-.",
"-.-.-.-.-.-.-.-.-.-.%.B n.n.S u -.-.-.$.7 5 + i a h h h h w @ O + o 1 8 -.-.-.-.-.-.-.-.-.-.-.-.-.-.-.-.-.-.-.-.-.-.-.-.-.-.-.-.",
"-.-.-.-.-.-.-.-.-.-.-.&.c n B.=.-.-.-.%.%.-.%.#.8 7 7 7 7 t #.#.#.%.-.-.-.-.-.-.-.-.-.-.-.-.-.-.-.-.-.-.-.-.-.-.-.-.-.-.-.-.-.-.",
"-.-.-.-.-.-.-.-.-.-.-.-.-.j B.w %.-.-.-.-.-.-.-.-.-.-.-.-.-.-.-.-.-.-.-.-.-.-.-.-.-.-.-.-.-.-.-.-.-.-.-.-.-.-.-.-.-.-.-.-.-.-.-.",
"-.-.-.-.-.-.-.-.-.-.-.-.-.-.h &.-.-.-.-.-.-.-.-.-.-.-.-.-.-.-.-.-.-.-.-.-.-.-.-.-.-.-.-.-.-.-.-.-.-.-.-.-.-.-.-.-.-.-.-.-.-.-.-.",
"-.-.-.-.-.-.-.-.-.-.-.-.-.-.-.-.-.-.-.-.-.-.-.-.-.-.-.-.-.-.-.-.-.-.-.-.-.-.-.-.-.-.-.-.-.-.-.-.-.-.-.-.-.-.-.-.-.-.-.-.-.-.-.-.",
"-.-.-.-.-.-.-.-.-.-.-.-.-.-.-.-.-.-.-.-.-.-.-.-.-.-.-.-.-.-.-.-.-.-.-.-.-.-.-.-.-.-.-.-.-.-.-.-.-.-.-.-.-.-.-.-.-.-.-.-.-.-.-.-.",
"-.-.-.-.-.-.-.-.-.-.-.-.-.-.-.-.-.-.-.-.-.-.-.-.-.-.-.-.-.-.-.-.-.-.-.-.-.-.-.-.-.-.-.-.-.-.-.-.-.-.-.-.-.-.-.-.-.-.-.-.-.-.-.-.",
"-.-.-.-.-.-.-.-.-.-.-.-.-.-.-.-.-.-.-.-.-.-.-.-.-.-.-.-.-.-.-.-.-.-.-.-.-.-.-.-.-.-.-.-.-.-.-.-.-.-.-.-.-.-.-.-.-.-.-.-.-.-.-.-.",
"-.-.-.-.-.-.-.-.-.-.-.-.-.-.-.-.-.-.-.-.-.-.-.-.-.-.-.-.-.-.-.-.-.-.-.-.-.-.-.-.-.-.-.-.-.-.-.-.-.-.-.-.-.-.-.-.-.-.-.-.-.-.-.-.",
"-.-.-.-.-.-.-.-.-.-.-.-.-.-.-.-.-.-.-.-.-.-.-.-.-.-.-.-.-.-.-.-.-.-.-.-.-.-.-.-.-.-.-.-.-.-.-.-.-.-.-.-.-.-.-.-.-.-.-.-.-.-.-.-.",
"-.-.-.-.-.-.-.-.-.-.-.-.-.-.-.-.-.-.-.-.-.-.-.-.-.-.-.-.-.-.-.-.-.-.-.-.-.-.-.-.-.-.-.-.-.-.-.-.-.-.-.-.-.-.-.-.-.-.-.-.-.-.-.-.",
"-.-.-.-.-.-.-.-.-.-.-.-.-.-.-.-.-.-.-.-.-.-.-.-.-.-.-.-.-.-.-.-.-.-.-.-.-.-.-.-.-.-.-.-.-.-.-.-.-.-.-.-.-.-.-.-.-.-.-.-.-.-.-.-."
};
