/* XPM */
static char *_aa734fca450443e80cdb0bd6a15e4146vm2Ff6QCsN1CG8B[] = {
/* columns rows colors chars-per-pixel */
"64 64 198 2 ",
"   c #536C3D",
".  c #597537",
"X  c #57733B",
"o  c #5B743D",
"O  c #5E793E",
"+  c #637E3F",
"@  c #15314F",
"#  c #1A354F",
"$  c #1D394E",
"%  c #0B2952",
"&  c #112E52",
"*  c #153253",
"=  c #193553",
"-  c #1E3A53",
";  c #1A3659",
":  c #233D4C",
">  c #223D54",
",  c #27434B",
"<  c #29444D",
"1  c #2D484C",
"2  c #324C4B",
"3  c #3D564D",
"4  c #3F5A4D",
"5  c #264155",
"6  c #2A4554",
"7  c #2E4953",
"8  c #2C4559",
"9  c #334C54",
"0  c #344E58",
"q  c #365053",
"w  c #3B5454",
"e  c #3E5853",
"r  c #3D5459",
"t  c #425746",
"y  c #435C4B",
"u  c #425C53",
"i  c #455B56",
"p  c #455B5A",
"a  c #495F59",
"s  c #4B6245",
"d  c #4A624F",
"f  c #4E694D",
"g  c #556A42",
"h  c #536D45",
"j  c #556D4A",
"k  c #5C7443",
"l  c #5E7943",
"z  c #58744E",
"x  c #5E794C",
"c  c #466152",
"v  c #4B6553",
"b  c #4E6854",
"n  c #4D6259",
"m  c #536D53",
"M  c #506658",
"N  c #55695A",
"B  c #5A6E58",
"V  c #577152",
"C  c #5B7454",
"Z  c #5F7A52",
"A  c #5D7159",
"S  c #617745",
"D  c #617C44",
"F  c #60764F",
"G  c #627C4B",
"H  c #657756",
"J  c #637C53",
"K  c #62755A",
"L  c #647859",
"P  c #6B7D5A",
"I  c #475C75",
"U  c #4D616A",
"Y  c #6A8345",
"T  c #67814C",
"R  c #6A854B",
"E  c #6D894E",
"W  c #728A46",
"Q  c #718C4C",
"!  c #798D4B",
"~  c #75914D",
"^  c #7B954B",
"/  c #7D9A4D",
"(  c #668151",
")  c #6C8653",
"_  c #6E8951",
"`  c #728C52",
"'  c #73845D",
"]  c #748C58",
"[  c #7A8B5B",
"{  c #769151",
"}  c #7A9552",
"|  c #7E9B51",
" . c #7B9559",
".. c #788764",
"X. c #7D8D62",
"o. c #82934F",
"O. c #819E4E",
"+. c #829E51",
"@. c #85945D",
"#. c #849B5A",
"$. c #889A58",
"%. c #8C9B5C",
"&. c #909F5A",
"*. c #83A14E",
"=. c #97A54F",
"-. c #83A151",
";. c #84A051",
":. c #8BA354",
">. c #8DAC54",
",. c #8BA35C",
"<. c #8FAA5B",
"1. c #95A453",
"2. c #99A655",
"3. c #9BAA56",
"4. c #95A35C",
"5. c #98A65D",
"6. c #97A95A",
"7. c #9DAB5C",
"8. c #9EB05F",
"9. c #A1AE5D",
"0. c #A4B25E",
"q. c #859462",
"w. c #8C9A62",
"e. c #909E60",
"r. c #8FA861",
"t. c #94A362",
"y. c #99A761",
"u. c #97A863",
"i. c #9DAB61",
"p. c #96A468",
"a. c #9BB164",
"s. c #9DA872",
"d. c #A2AF61",
"f. c #A1AF6C",
"g. c #A5B261",
"h. c #A6B363",
"j. c #A7B463",
"k. c #A7B465",
"l. c #A8B563",
"z. c #A8B565",
"x. c #ABB965",
"c. c #A6B36B",
"v. c #A9B56A",
"b. c #AEBA6A",
"n. c #B0BC6C",
"m. c #A7B374",
"M. c #AFBB70",
"N. c #B2BB76",
"B. c #B4BD7A",
"V. c #B7C07F",
"C. c #BCC47C",
"Z. c #808F87",
"A. c #9DA68A",
"S. c #B5BD82",
"D. c #9CA5AA",
"F. c #A8B2A7",
"G. c #BAC084",
"H. c #BDC589",
"J. c #C1C78E",
"K. c #C5C993",
"L. c #C4CC93",
"P. c #D0CF9F",
"I. c #CAD295",
"U. c #CBD29D",
"Y. c #EBD69F",
"T. c #CBD2A2",
"R. c #D2D7A7",
"E. c #CDD1B0",
"W. c #D5DAB5",
"Q. c #D9DEB1",
"!. c #EDDEB3",
"~. c #DCE1B4",
"^. c #DDE1B9",
"/. c #EFE0BA",
"(. c #E4E8BC",
"). c #DFE2C1",
"_. c #E3E6C3",
"`. c #ECE4C3",
"'. c #E7EAC5",
"]. c #ECECC7",
"[. c #E9EBCD",
"{. c #F2ECCC",
"}. c #EEF0C2",
"|. c #F5F5C5",
" X c #EDEDD4",
".X c #EEECDA",
"XX c #F0EBD7",
"oX c #F1EBD8",
"OX c #EFF1D3",
"+X c #F2F3D4",
"@X c #F9F7D4",
"#X c #F3F3DC",
"$X c #EEEFE0",
"%X c #F1EDE0",
"&X c #F5F5E3",
"*X c #F8F7E7",
"=X c #F5F5E9",
"-X c #F7F7E8",
/* pixels */
"% % % % % % % % % % % % % % % % % % % % % % % % % % % % % % % % % % % % % % % % % % % % % % % % % % % % % % % % % % % % % % % % ",
"% % % % % % % % % % % % % % % % % % % % % % % % % % % % % % % % % % % % % % % % % % % % % % % % % % % % % % % % % % % % % % % % ",
"% % % % % % % % % % % % % % % % % % % % % % % % % % % % % % % % % % % % % % % % % % = = & % % % % % % % % % % % % % % % % % % % ",
"% % % % & 6 q 6 % % % % % % % % % % % % % % % % % % % % % % % % % % % % % % % % % > ) ` J w & % % % % % % % % % % % % % % % % % ",
"% % % 6 ) O.O.| 9 % % % % % % % % % % % % % % % % % % % % % % % % % % % % - m e % 9 O.+.O.+.m & % % % % % % % % % % % % % % % % ",
"% % - } +.;.-.) * % % % % % % % % % % % % % % % % % % % % % % % % % % % = ) *.^ u 9 / +.+.*.,.q 2 s s t 2 * % % % % % % % % % % ",
"% % z +./ -.| 6 % = & % % % % % % % % % % % % % % % % % % % % % % % % % i | O.O.^ J O.+.+.+.+.R ` ` l D l h : % % % % % % % % % ",
"% % _ -.O.+.} ( E } w % % % % % * 6 p N A A B a 9 = % % % % % % % % % % C -.O.+.;.O.-./ +.;.+.W o D D G D D k , % % % % % % % % ",
"% % ( -./ O.+.;.;.-.m % % % > N @.i.g.j.g.k.z.g.7.%.N * % % % % % % % % J +.+.+.+./ -.+./ +.+.R o O D o o D l   & % % % % % % % ",
"% % m O./ *./ +.+.O.q % % 8 q.v.z.k.v.k.g.z.z.j.j.g.9.' = % % % % % % % b -.+.^ +.^ +.+.*.*.| Y O l l k D D D X $ % % % % % % % ",
"% % - ` :.-.+.+.+.V % % 6 p.l.g.k.z.z.g.1.g.z.z.l.g.0.z.P & % % % % % % 7 } / +.+./ +.-.*.O.Q D l D D o k D D k : % % % % % % % ",
"% % % * b ] ] Z w & % & X.n.k.g.z.k.k.z.7.2.g.l.j.l.l.c.7.9 % % % % % % % v | -.-.-.+.-.+.~ D l l X D D + W o.! d - % % % % % % ",
"% % % % % % % % % % % p g.b.z.l.j.k.k.z.z.7.g.k.g.g.g.z.z.P % % % % % % % % 9 x ` } } _ d y l D o l D ^ 7.g.g.g.d.i.P > % % % % ",
"% % % % % % % % % % * @.v.z.l.0.g.9.9.7.g.z.z.g.g.g.g.g.l.@.* % % % % % % % % % * = = & % & t o l l ^ g.j.l.z.g.z.z.z.w.5 % % % ",
"% % % % % % % % % % U v.z.R.(.N.k.2.1.2.2.g.g.2.@.p r a ' %.> % % % % % % % % % % % % % % % & 2 s l 3.j.j.3.g.k.z.7.j.k.' & % % ",
"% % % % % % % % % % F.].J.OX=XU.v.L.H.j.k.k.k.0.d.q.i & * 9 * % % % % % & = - = % % % % % % % % & r d.z.j.7.3.g.7.3.k.k.t.> % % ",
"% % % % % % % % % & s.]..X&X=XW.^.&X^.g.g.g.k.z.z.g.7.H = % % % % % * 4 ( ` Q _ m - % % % % % % % N j.z.j.0.j.k.d.z.g.b.c.5 % % ",
"% % % % % % % % % I E.). X.X{..X&X[.B.l.g.1.g.l.z.z.j.d.] > % % % * C / -.+.+.+./ J % % % % % % % N j.g.7.3.0.j.g.z.z.b.q.= % % ",
"% % % % % % % % * D.=X*X%XXX!.oX$X^.N.z.2.3.g.l.l.l.k.l.g.' % % % v | +./ O.+.*./ b % % % % % % % q d.d.2.9.g.g.&.7.k.k.K % % % ",
"% % % % % % % % % ; A.W..X#XXX.X#X*X_.g.1.0.j.k.g.g.z.l.c.L % % = { +.+.^ +.+.{ e % % % % % % % % * @.g.z.z.z.g.A K 7.i.9 % % % ",
"% % % % % % % % % % Z.+X=XQ.^.#XK.~.R.g.0.l.l.z.z.g.j.z.4.5 % % 7 / +.+./ / ~ 9 % % % % % % % % % % r 5.0.v.0.g.K & L P & % % % ",
"% % % % % % % % % % I W.J.g.U.*XL.g.z.l.l.z.z.z.z.g.k.g.a % % % e / +.+./ +./ ` J V v - % % % % % % % p 4.g.j.g.L % & * % % % % ",
"% % % % % % % % % % % ..k.j.N.[.K.j.l.l.z.l.j.z.k.g.j.P * % % % w +.| ^ O.+.+.-.+.O.| q % % % % % % % % 5 A %.7.N % % % % % % % ",
"% % % % % % % % % % % 7 u.k.z.M.v.z.0.l.j.j.j.g.x.b.[ = % % % % - { *.-.+./ +.+.;.*./ 7 % % % % % % % % % % = 6 * % % % % % % % ",
"% % % % % % % % % % % % M 7.0.z.z.k.k.l.l.j.g.k.n.X.- % % % % % % q { *.-./ O.+.+.+.J * % % % % % % % % % % % % % % % % % % % % ",
"% % % % & > 7 9 > % % % & n 4.0.0.g.k.j.z.l.l.c.L = % % % % % % % % 9 R | +.+./ } J > % % % % % % % % % % % % % % % % % % % % % ",
"% % % 5 L #.:.O.{ v * % % % 6 L %.y.7.7.7.t.' 0 % % % % % % % % % % % = e V Z V w * % % % % % % % % % % % % % % % % % % % % % % ",
"% % 6  .>.*.*.O.+./ m % % % % % * 6 9 9 8 = % % % % % % % % % % % % % % % % % % % % % % % % % % % % % % % % % % % % % % % % % % ",
"% - Q -.-.-.-.^ -.-./ w % % % % % % % % % % % % % % % % % % % % % % % % % % % % % % % % % % % % % % % % % % % % % % % % % % % % ",
"% m | +.^ O.O./ *.-.| T & % % % % % % % % % % % % % % % % % % % % % % % % % % % % % @ $ $ # % % % % % % % % % % % % % % % % % % ",
"* ) +.+.+.+.-.+./ / +.~ = % % % % % % % % % % % % % % % % % % % % % % % % % % % # t k o l k s : % % % % % % % % % % % % % % % % ",
"* ` O.+.;.+./ +.O./ | { = % % % % % % % % % % % = 6 9 > % % % % % % % % % % % $ g D D D D D l l 3 % % % % % % % % % % % % % % % ",
"* _ -.;.O._ m | *.;.-.( & % % % % % % % % % % q ) / O._ = % % % % % % % % % * s S G l D D l l D R : * > 0 r e 9 - % % % % % % % ",
"% b *.+.` 6 6 | -.+.O.u % % % % % % % % % % 9 } +.+.+.V = w b - % * - > - = 2 S D G   D D   l D D F ( } <.:.O.O.{ m 5 % % % % % ",
"% * z { 9 % 5 } -.O.) * % % % % % % % % % * T O.+.-./ r C / +.` H @.5.3.2.%.%.o.Y D k o l k l R | ;.*.O.;.:.-.+.-.*.{ r & % % % ",
"% % % = % % > } +.( - % % % % % % % % % % 6 } +.O.-.^ ` O.O.1.0.z.g.d.g.g.9.9.g.i.! l D D D Q +.-.-.;.-.-.;.+.+.O.+.*.| u % % % ",
"% % % % % % & e q * % % % % % % % % % % % q +.^ ^ -.O.+.O.7.g.k.k.j.z.k.k.g.z.k.z.g.^ D l Y +.O.;.-.O.*.*.*.;.;.;.;.-./ m % % % ",
"% % % % % % % % % % % % % % % % % % % % % 6 } O.+./ O.O.6.k.k.z.k.k.z.k.k.g.k.k.z.j.g.^ D } O.;.;.-.;.;.;.-.O.;.;.;.-.} 0 % % % ",
"% % % % % % % % % % % % % % % % % % % % % & Z O.;.^ +.1.g.z.g.z.z.k.7.k.j.k.z.k.k.j.C.c.! } O.;.;.;.;.O.+.-.O.-.-.-.+.J * % = % ",
"% % % % % % % % % % % % % % % % % % % % % % > G O.+.*.7.z.z.z.z.k.7.2.z.j.z.v.B.v.C.|.I.6.O.+.-.;.;.;.^ / ;.-.-.;.*.| w > m m % ",
"% % % % % % % % % % % % % % % % % % % % % % % = c ` 1.j.k.z.z.z.z.2.7.g.g.z.n.}.Q.P.@XL.g.:.*.;.;.;.;.+./ / -.;.;.-.] n ] O.C % ",
"% % % * i * % > % % % % % % % % % % % % % % % % % 6 t.z.z.z.z.z.k.1.g.z.g.g.z.~.&X`.{.J.H.m.*.;.-.;.;.;.-.O.-.-.-.+.^ +.;.*.m % ",
"% % r w.0.> q 7.M % % % % % % % % % % % % % % % % & p.z.z.z.z.j.g.2.g.g.2.7.N.L. X`.{.+X&X'.r.;.-.;.;.;.;.;.O.;.-.;.+.+.-.+.e % ",
"% N v.z.9.n &.j.7.> % % % % % % % % % % % % % % % > 7.k.k.z.z.l.j.g.9.1.7.H.&X*X#XY./.+X+XT.$.;.;.;.-.O.^ ^ O.;.+.;.-.+.+.~ > % ",
"= y.z.k.k.2.c.j.g.K % % % % % % % % % % % % % % % 5 7.k.g.k.k.g.z.z.9.g.g.L.#X&X[..X.X#XL.0.:.;.;.;.^ ^ | +.+.O./ +.;.;.+.C % % ",
"5 g.g.9.g.z.0.l.j.[ % % % % % % % % % % % % % % % * w.g.g.d.i.5.d.k.k.z.g.v.V.G._.=XR.#X}.M.a.;.;.;.-.;.;.;.+.^ O.O.-.-.{ 6 % % ",
"= i.g.9.g.g.7.1.g.] % % % % % % % % % % % % % % % % 8 n r 8 5 9 &.g.9.2.2.=.9.v.OX&XS.L.(.s.,.<.O.*.;.;.;.;./ ^ ;.+.;.| c % % % ",
"% P g.k.g.3.j.k.g.M % % % % % 6 ( ` ( e % % % % % % % % % % & K 7.z.g.g.j.0.j.v._.).v.g.f.#.} | +.;.;.;.;.;.O.+.*.-./ v * % % % ",
"% = %.g.j.9.z.z.%.= % % % % = { *.+.+./ m & % % % % % % % % n 7.g.k.k.g.g.j.z.z.b.v.0.8.+. .` Q } | +.-.-.;.;.-.+.` e & % % % % ",
"% 1 D :.g.k.g.$.> % % % % % % v | ;.+./ +.9 % % % % % % % q 5.0.k.j.g.k.j.j.z.j.z.k.7.$.Q _ _ Y Y ~ ^ { ) ) ) Z c - % % % % % % ",
"*   D O Y ! W l 2 % % % % % % % v +./ +.-.x % % % % % % = w.g.k.g.z.z.k.g.g.g.z.z.g.+.Q E _ E E E E Q F > & & % % % % % % % % % ",
"# k D D o D o l   & % % % = v b m ^ +./ -.` % % % % % % % n i.j.k.g.k.k.k.z.z.g.1.! Q D E E E E E E E _ 1 % % % % % % % % % % % ",
"& k l X l D l D o # % % % 7 O.*.+./ +./ | ` & % % % % % % % q q.i.g.g.g.g.7.:.~ R R Y D E E E E E E _ R 2 % % % % % % % % % % % ",
"% y D D D o l D R e = % % * _ +.O./ O.+./ u % % % % % % % % = > 6 q r w G Q E E D R D E R E E E E E _ R 1 % % % % % % % % % % % ",
"% # k D D l Q +.O.*.} i % % > T -.+.+.} v % % % % % % % * L $.@.B = % % y R E R R E E R O . + E E E _ l $ % % % % % % % % % % % ",
"% % $ j R Q +.O.*.-.O.+.u % % & q f c > % % % % % % % % = @.j.0.d.' % % < G R D R G k R R Y E E _ E T 4 % % % % % % % % % % % % ",
"% % % % 9 ;.+./ +.+./ +./ 5 % % % % % % % % % % % % % = 8 K d.3.7.g.> % & f R _ _ y 2 R E _ E E E Y j # % % % % % % % % % % % % ",
"% % % % q ;.-.+.+.| +./ O.c % % % % % % % % % % % % % K i.d.g.g.j.t.= % % > x E R , # l ) _ _ _ T h $ % % % % % % % % % % % % % ",
"% % % % - | +.O.` O.+.+.+.e % % % % % % % % % % % % % q 7.j.1.d.g.n % % % % < x x & % y R E E G 3 * % % % % % % % % % % % % % % ",
"% % % % % v / ( 7 / O.-.} = % % % % % % % % % % % % % % n e.i.4.N % % % % % % * > % % * y y 1 * % % % % % % % % % % % % % % % % ",
"% % % % % % q - = ^ O.} w % % % % % % % % % % % % % % % % = > = % % % % % % % % % % % % % % % % % % % % % % % % % % % % % % % % ",
"% % % % % % % % % e c 5 % % % % % % % % % % % % % % % % % % % % % % % % % % % % % % % % % % % % % % % % % % % % % % % % % % % % ",
"% % % % % % % % % % % % % % % % % % % % % % % % % % % % % % % % % % % % % % % % % % % % % % % % % % % % % % % % % % % % % % % % ",
"% % % % % % % % % % % % % % % % % % % % % % % % % % % % % % % % % % % % % % % % % % % % % % % % % % % % % % % % % % % % % % % % "
};
